Q-SCI-ICON.glyphspackage
{
glyphname = exclam;
layers = (
{
layerId = m01;
shapes = (
{
closed = 1;
nodes = (
(207,207,l),
(0,207,l),
(0,91,o),
(91,0,o),
(207,0,c)
);
},
{
closed = 1;
nodes = (
(207,207,l),
(207,0,l),
(414,0,l),
(414,207,l)
);
},
{
closed = 1;
nodes = (
(414,207,l),
(414,0,l),
(621,0,l),
(621,207,l)
);
},
{
closed = 1;
nodes = (
(621,207,l),
(621,0,l),
(828,0,l),
(828,207,l)
);
},
{
closed = 1;
nodes = (
(828,207,l),
(828,0,l),
(1035,0,l),
(1035,207,l)
);
},
{
closed = 1;
nodes = (
(1035,207,l),
(1035,0,l),
(1242,0,l),
(1242,207,l)
);
},
{
closed = 1;
nodes = (
(1242,207,l),
(1242,0,l),
(1449,0,l),
(1449,207,l)
);
},
{
closed = 1;
nodes = (
(1449,207,l),
(1449,0,l),
(1656,0,l),
(1656,207,l)
);
},
{
closed = 1;
nodes = (
(1656,207,l),
(1656,0,l),
(1863,0,l),
(1863,207,l)
);
},
{
closed = 1;
nodes = (
(1863,207,l),
(1863,0,l),
(2070,0,l),
(2070,207,l)
);
},
{
closed = 1;
nodes = (
(2070,207,l),
(2070,0,l),
(2277,0,l),
(2277,207,l)
);
},
{
closed = 1;
nodes = (
(2277,207,l),
(2277,0,l),
(2484,0,l),
(2484,207,l)
);
},
{
closed = 1;
nodes = (
(2484,207,l),
(2484,0,l),
(2691,0,l),
(2691,207,l)
);
},
{
closed = 1;
nodes = (
(2691,0,l),
(2807,0,o),
(2898,91,o),
(2898,207,c),
(2691,207,l)
);
},
{
closed = 1;
nodes = (
(0,414,l),
(0,207,l),
(207,207,l),
(207,414,l)
);
},
{
closed = 1;
nodes = (
(414,414,l),
(414,207,l),
(621,207,l),
(621,414,l)
);
},
{
closed = 1;
nodes = (
(2691,414,l),
(2691,207,l),
(2898,207,l),
(2898,414,l)
);
},
{
closed = 1;
nodes = (
(0,621,l),
(0,414,l),
(207,414,l),
(207,621,l)
);
},
{
closed = 1;
nodes = (
(621,621,l),
(505,621,o),
(414,530,o),
(414,414,c),
(621,414,l)
);
},
{
closed = 1;
nodes = (
(621,621,l),
(621,414,l),
(828,414,l),
(828,621,l)
);
},
{
closed = 1;
nodes = (
(828,621,l),
(828,414,l),
(1035,414,l),
(1035,621,l)
);
},
{
closed = 1;
nodes = (
(1035,414,l),
(1151,414,o),
(1242,505,o),
(1242,621,c),
(1035,621,l)
);
},
{
closed = 1;
nodes = (
(1863,621,l),
(1656,621,l),
(1656,505,o),
(1747,414,o),
(1863,414,c)
);
},
{
closed = 1;
nodes = (
(1863,414,l),
(1979,414,o),
(2070,505,o),
(2070,621,c),
(1863,621,l)
);
},
{
closed = 1;
nodes = (
(2691,621,l),
(2691,414,l),
(2898,414,l),
(2898,621,l)
);
},
{
closed = 1;
nodes = (
(0,828,l),
(0,621,l),
(207,621,l),
(207,828,l)
);
},
{
closed = 1;
nodes = (
(1035,828,l),
(919,828,o),
(828,737,o),
(828,621,c),
(1035,621,l)
);
},
{
closed = 1;
nodes = (
(1035,621,l),
(1242,621,l),
(1242,737,o),
(1151,828,o),
(1035,828,c)
);
},
{
closed = 1;
nodes = (
(1863,828,l),
(1747,828,o),
(1656,737,o),
(1656,621,c),
(1863,621,l)
);
},
{
closed = 1;
nodes = (
(1863,828,l),
(1863,621,l),
(2070,621,l),
(2070,828,l)
);
},
{
closed = 1;
nodes = (
(2070,828,l),
(2070,621,l),
(2277,621,l),
(2277,828,l)
);
},
{
closed = 1;
nodes = (
(2277,621,l),
(2393,621,o),
(2484,712,o),
(2484,828,c),
(2277,828,l)
);
},
{
closed = 1;
nodes = (
(2691,828,l),
(2691,621,l),
(2898,621,l),
(2898,828,l)
);
},
{
closed = 1;
nodes = (
(0,1035,l),
(0,828,l),
(207,828,l),
(207,1035,l)
);
},
{
closed = 1;
nodes = (
(2484,1035,l),
(2368,1035,o),
(2277,944,o),
(2277,828,c),
(2484,828,l)
);
},
{
closed = 1;
nodes = (
(2484,1035,l),
(2484,828,l),
(2691,828,l),
(2691,1035,l)
);
},
{
closed = 1;
nodes = (
(2691,1035,l),
(2691,828,l),
(2898,828,l),
(2898,1035,l)
);
},
{
closed = 1;
nodes = (
(0,1242,l),
(0,1035,l),
(207,1035,l),
(207,1242,l)
);
},
{
closed = 1;
nodes = (
(207,1242,l),
(207,1035,l),
(414,1035,l),
(414,1242,l)
);
},
{
closed = 1;
nodes = (
(414,1242,l),
(414,1035,l),
(621,1035,l),
(621,1242,l)
);
},
{
closed = 1;
nodes = (
(621,1242,l),
(621,1035,l),
(828,1035,l),
(828,1242,l)
);
},
{
closed = 1;
nodes = (
(828,1242,l),
(828,1035,l),
(1035,1035,l),
(1035,1242,l)
);
},
{
closed = 1;
nodes = (
(1035,1242,l),
(1035,1035,l),
(1242,1035,l),
(1242,1242,l)
);
},
{
closed = 1;
nodes = (
(1242,1035,l),
(1358,1035,o),
(1449,1126,o),
(1449,1242,c),
(1242,1242,l)
);
},
{
closed = 1;
nodes = (
(2691,1242,l),
(2691,1035,l),
(2898,1035,l),
(2898,1242,l)
);
},
{
closed = 1;
nodes = (
(0,1449,l),
(0,1242,l),
(207,1242,l),
(207,1449,l)
);
},
{
closed = 1;
nodes = (
(1449,1449,l),
(1333,1449,o),
(1242,1358,o),
(1242,1242,c),
(1449,1242,l)
);
},
{
closed = 1;
nodes = (
(1449,1449,l),
(1449,1242,l),
(1656,1242,l),
(1656,1449,l)
);
},
{
closed = 1;
nodes = (
(1656,1449,l),
(1656,1242,l),
(1863,1242,l),
(1863,1449,l)
);
},
{
closed = 1;
nodes = (
(1863,1242,l),
(1979,1242,o),
(2070,1333,o),
(2070,1449,c),
(1863,1449,l)
);
},
{
closed = 1;
nodes = (
(2691,1449,l),
(2691,1242,l),
(2898,1242,l),
(2898,1449,l)
);
},
{
closed = 1;
nodes = (
(0,1656,l),
(0,1449,l),
(207,1449,l),
(207,1656,l)
);
},
{
closed = 1;
nodes = (
(828,1656,l),
(621,1656,l),
(621,1540,o),
(712,1449,o),
(828,1449,c)
);
},
{
closed = 1;
nodes = (
(828,1449,l),
(944,1449,o),
(1035,1540,o),
(1035,1656,c),
(828,1656,l)
);
},
{
closed = 1;
nodes = (
(2070,1656,l),
(1954,1656,o),
(1863,1565,o),
(1863,1449,c),
(2070,1449,l)
);
},
{
closed = 1;
nodes = (
(2070,1656,l),
(2070,1449,l),
(2277,1449,l),
(2277,1656,l)
);
},
{
closed = 1;
nodes = (
(2277,1656,l),
(2277,1449,l),
(2484,1449,l),
(2484,1656,l)
);
},
{
closed = 1;
nodes = (
(2484,1656,l),
(2484,1449,l),
(2691,1449,l),
(2691,1656,l)
);
},
{
closed = 1;
nodes = (
(2691,1656,l),
(2691,1449,l),
(2898,1449,l),
(2898,1656,l)
);
},
{
closed = 1;
nodes = (
(0,1863,l),
(0,1656,l),
(207,1656,l),
(207,1863,l)
);
},
{
closed = 1;
nodes = (
(828,1863,l),
(712,1863,o),
(621,1772,o),
(621,1656,c),
(828,1656,l)
);
},
{
closed = 1;
nodes = (
(828,1863,l),
(828,1656,l),
(1035,1656,l),
(1035,1863,l)
);
},
{
closed = 1;
nodes = (
(1035,1863,l),
(1035,1656,l),
(1242,1656,l),
(1242,1863,l)
);
},
{
closed = 1;
nodes = (
(1242,1863,l),
(1242,1656,l),
(1449,1656,l),
(1449,1863,l)
);
},
{
closed = 1;
nodes = (
(1449,1656,l),
(1565,1656,o),
(1656,1747,o),
(1656,1863,c),
(1449,1863,l)
);
},
{
closed = 1;
nodes = (
(2691,1863,l),
(2691,1656,l),
(2898,1656,l),
(2898,1863,l)
);
},
{
closed = 1;
nodes = (
(0,2070,l),
(0,1863,l),
(207,1863,l),
(207,2070,l)
);
},
{
closed = 1;
nodes = (
(1449,2070,l),
(1449,1863,l),
(1656,1863,l),
(1656,2070,l)
);
},
{
closed = 1;
nodes = (
(2691,2070,l),
(2691,1863,l),
(2898,1863,l),
(2898,2070,l)
);
},
{
closed = 1;
nodes = (
(0,2277,l),
(0,2070,l),
(207,2070,l),
(207,2277,l)
);
},
{
closed = 1;
nodes = (
(621,2277,l),
(414,2277,l),
(414,2161,o),
(505,2070,o),
(621,2070,c)
);
},
{
closed = 1;
nodes = (
(621,2070,l),
(737,2070,o),
(828,2161,o),
(828,2277,c),
(621,2277,l)
);
},
{
closed = 1;
nodes = (
(1449,2277,l),
(1449,2070,l),
(1656,2070,l),
(1656,2277,l)
);
},
{
closed = 1;
nodes = (
(2691,2277,l),
(2691,2070,l),
(2898,2070,l),
(2898,2277,l)
);
},
{
closed = 1;
nodes = (
(0,2484,l),
(0,2277,l),
(207,2277,l),
(207,2484,l)
);
},
{
closed = 1;
nodes = (
(621,2484,l),
(505,2484,o),
(414,2393,o),
(414,2277,c),
(621,2277,l)
);
},
{
closed = 1;
nodes = (
(621,2484,l),
(621,2277,l),
(828,2277,l),
(828,2484,l)
);
},
{
closed = 1;
nodes = (
(828,2277,l),
(944,2277,o),
(1035,2368,o),
(1035,2484,c),
(828,2484,l)
);
},
{
closed = 1;
nodes = (
(1656,2484,l),
(1540,2484,o),
(1449,2393,o),
(1449,2277,c),
(1656,2277,l)
);
},
{
closed = 1;
nodes = (
(1656,2484,l),
(1656,2277,l),
(1863,2277,l),
(1863,2484,l)
);
},
{
closed = 1;
nodes = (
(1863,2484,l),
(1863,2277,l),
(2070,2277,l),
(2070,2484,l)
);
},
{
closed = 1;
nodes = (
(2070,2484,l),
(2070,2277,l),
(2277,2277,l),
(2277,2484,l)
);
},
{
closed = 1;
nodes = (
(2277,2484,l),
(2277,2277,l),
(2484,2277,l),
(2484,2484,l)
);
},
{
closed = 1;
nodes = (
(2484,2484,l),
(2484,2277,l),
(2691,2277,l),
(2691,2484,l)
);
},
{
closed = 1;
nodes = (
(2691,2484,l),
(2691,2277,l),
(2898,2277,l),
(2898,2484,l)
);
},
{
closed = 1;
nodes = (
(0,2691,l),
(0,2484,l),
(207,2484,l),
(207,2691,l)
);
},
{
closed = 1;
nodes = (
(828,2691,l),
(828,2484,l),
(1035,2484,l),
(1035,2691,l)
);
},
{
closed = 1;
nodes = (
(2691,2691,l),
(2691,2484,l),
(2898,2484,l),
(2898,2691,l)
);
},
{
closed = 1;
nodes = (
(207,2898,l),
(91,2898,o),
(0,2807,o),
(0,2691,c),
(207,2691,l)
);
},
{
closed = 1;
nodes = (
(207,2898,l),
(207,2691,l),
(414,2691,l),
(414,2898,l)
);
},
{
closed = 1;
nodes = (
(414,2898,l),
(414,2691,l),
(621,2691,l),
(621,2898,l)
);
},
{
closed = 1;
nodes = (
(621,2898,l),
(621,2691,l),
(828,2691,l),
(828,2898,l)
);
},
{
closed = 1;
nodes = (
(828,2898,l),
(828,2691,l),
(1035,2691,l),
(1035,2898,l)
);
},
{
closed = 1;
nodes = (
(1035,2898,l),
(1035,2691,l),
(1242,2691,l),
(1242,2898,l)
);
},
{
closed = 1;
nodes = (
(1242,2898,l),
(1242,2691,l),
(1449,2691,l),
(1449,2898,l)
);
},
{
closed = 1;
nodes = (
(1449,2898,l),
(1449,2691,l),
(1656,2691,l),
(1656,2898,l)
);
},
{
closed = 1;
nodes = (
(1656,2898,l),
(1656,2691,l),
(1863,2691,l),
(1863,2898,l)
);
},
{
closed = 1;
nodes = (
(1863,2898,l),
(1863,2691,l),
(2070,2691,l),
(2070,2898,l)
);
},
{
closed = 1;
nodes = (
(2070,2898,l),
(2070,2691,l),
(2277,2691,l),
(2277,2898,l)
);
},
{
closed = 1;
nodes = (
(2277,2898,l),
(2277,2691,l),
(2484,2691,l),
(2484,2898,l)
);
},
{
closed = 1;
nodes = (
(2484,2898,l),
(2484,2691,l),
(2691,2691,l),
(2691,2898,l)
);
},
{
closed = 1;
nodes = (
(2691,2691,l),
(2898,2691,l),
(2898,2807,o),
(2807,2898,o),
(2691,2898,c)
);
}
);
width = 2898;
}
);
unicode = 33;
}
{
glyphname = quotedbl;
layers = (
{
layerId = m01;
shapes = (
{
closed = 1;
nodes = (
(414,207,l),
(414,0,l),
(621,0,l),
(621,207,l)
);
},
{
closed = 1;
nodes = (
(621,207,l),
(621,0,l),
(828,0,l),
(828,207,l)
);
},
{
closed = 1;
nodes = (
(828,207,l),
(828,0,l),
(1035,0,l),
(1035,207,l)
);
},
{
closed = 1;
nodes = (
(1035,207,l),
(1035,0,l),
(1242,0,l),
(1242,207,l)
);
},
{
closed = 1;
nodes = (
(1242,207,l),
(1242,0,l),
(1449,0,l),
(1449,207,l)
);
},
{
closed = 1;
nodes = (
(1449,0,l),
(1565,0,o),
(1656,91,o),
(1656,207,c),
(1449,207,l)
);
},
{
closed = 1;
nodes = (
(414,414,l),
(207,414,l),
(207,298,o),
(298,207,o),
(414,207,c)
);
},
{
closed = 1;
nodes = (
(414,414,l),
(414,207,l),
(621,207,l),
(621,414,l)
);
},
{
closed = 1;
nodes = (
(621,414,l),
(621,207,l),
(828,207,l),
(828,414,l)
);
},
{
closed = 1;
nodes = (
(828,414,l),
(828,207,l),
(1035,207,l),
(1035,414,l)
);
},
{
closed = 1;
nodes = (
(1035,414,l),
(1035,207,l),
(1242,207,l),
(1242,414,l)
);
},
{
closed = 1;
nodes = (
(1242,414,l),
(1242,207,l),
(1449,207,l),
(1449,414,l)
);
},
{
closed = 1;
nodes = (
(1449,414,l),
(1449,207,l),
(1656,207,l),
(1656,414,l)
);
},
{
closed = 1;
nodes = (
(1656,207,l),
(1772,207,o),
(1863,298,o),
(1863,414,c),
(1656,414,l)
);
},
{
closed = 1;
nodes = (
(207,621,l),
(0,621,l),
(0,505,o),
(91,414,o),
(207,414,c)
);
},
{
closed = 1;
nodes = (
(207,621,l),
(207,414,l),
(414,414,l),
(414,621,l)
);
},
{
closed = 1;
nodes = (
(414,621,l),
(414,414,l),
(621,414,l),
(621,621,l)
);
},
{
closed = 1;
nodes = (
(621,621,l),
(621,414,l),
(828,414,l),
(828,621,l)
);
},
{
closed = 1;
nodes = (
(828,621,l),
(828,414,l),
(1035,414,l),
(1035,621,l)
);
},
{
closed = 1;
nodes = (
(1035,621,l),
(1035,414,l),
(1242,414,l),
(1242,621,l)
);
},
{
closed = 1;
nodes = (
(1242,621,l),
(1242,414,l),
(1449,414,l),
(1449,621,l)
);
},
{
closed = 1;
nodes = (
(1449,621,l),
(1449,414,l),
(1656,414,l),
(1656,621,l)
);
},
{
closed = 1;
nodes = (
(1656,621,l),
(1656,414,l),
(1863,414,l),
(1863,621,l)
);
},
{
closed = 1;
nodes = (
(0,828,l),
(0,621,l),
(207,621,l),
(207,828,l)
);
},
{
closed = 1;
nodes = (
(207,828,l),
(207,621,l),
(414,621,l),
(414,828,l)
);
},
{
closed = 1;
nodes = (
(414,828,l),
(414,621,l),
(621,621,l),
(621,828,l)
);
},
{
closed = 1;
nodes = (
(621,828,l),
(621,621,l),
(828,621,l),
(828,828,l)
);
},
{
closed = 1;
nodes = (
(828,828,l),
(828,621,l),
(1035,621,l),
(1035,828,l)
);
},
{
closed = 1;
nodes = (
(1035,828,l),
(1035,621,l),
(1242,621,l),
(1242,828,l)
);
},
{
closed = 1;
nodes = (
(1242,828,l),
(1242,621,l),
(1449,621,l),
(1449,828,l)
);
},
{
closed = 1;
nodes = (
(1449,828,l),
(1449,621,l),
(1656,621,l),
(1656,828,l)
);
},
{
closed = 1;
nodes = (
(1656,828,l),
(1656,621,l),
(1863,621,l),
(1863,828,l)
);
},
{
closed = 1;
nodes = (
(0,1035,l),
(0,828,l),
(207,828,l),
(207,1035,l)
);
},
{
closed = 1;
nodes = (
(414,828,l),
(414,1035,l),
(414,919,o),
(323,828,o),
(207,828,c)
);
},
{
closed = 1;
nodes = (
(414,1035,l),
(414,828,l),
(621,828,l),
(621,1035,l)
);
},
{
closed = 1;
nodes = (
(621,1035,l),
(621,828,l),
(828,828,l),
(828,1035,l)
);
},
{
closed = 1;
nodes = (
(828,1035,l),
(828,828,l),
(1035,828,l),
(1035,1035,l)
);
},
{
closed = 1;
nodes = (
(1035,1035,l),
(1035,828,l),
(1242,828,l),
(1242,1035,l)
);
},
{
closed = 1;
nodes = (
(1242,1035,l),
(1242,828,l),
(1449,828,l),
(1449,1035,l)
);
},
{
closed = 1;
nodes = (
(1449,1035,l),
(1449,828,l),
(1656,828,l),
(1656,1035,l)
);
},
{
closed = 1;
nodes = (
(1656,1035,l),
(1656,828,l),
(1863,828,l),
(1863,1035,l)
);
},
{
closed = 1;
nodes = (
(0,1242,l),
(0,1035,l),
(207,1035,l),
(207,1242,l)
);
},
{
closed = 1;
nodes = (
(207,1035,l),
(323,1035,o),
(414,1126,o),
(414,1242,c),
(207,1242,l)
);
},
{
closed = 1;
nodes = (
(414,1242,l),
(414,1035,l),
(621,1035,l),
(621,1242,l)
);
},
{
closed = 1;
nodes = (
(621,1242,l),
(621,1035,l),
(828,1035,l),
(828,1242,l)
);
},
{
closed = 1;
nodes = (
(828,1242,l),
(828,1035,l),
(1035,1035,l),
(1035,1242,l)
);
},
{
closed = 1;
nodes = (
(1035,1242,l),
(1035,1035,l),
(1242,1035,l),
(1242,1242,l)
);
},
{
closed = 1;
nodes = (
(1242,1242,l),
(1242,1035,l),
(1449,1035,l),
(1449,1242,l)
);
},
{
closed = 1;
nodes = (
(1449,1242,l),
(1449,1035,l),
(1656,1035,l),
(1656,1242,l)
);
},
{
closed = 1;
nodes = (
(1656,1242,l),
(1656,1035,l),
(1863,1035,l),
(1863,1242,l)
);
},
{
closed = 1;
nodes = (
(207,1449,l),
(91,1449,o),
(0,1358,o),
(0,1242,c),
(207,1242,l)
);
},
{
closed = 1;
nodes = (
(207,1242,l),
(414,1242,l),
(414,1358,o),
(323,1449,o),
(207,1449,c)
);
},
{
closed = 1;
nodes = (
(414,1449,l),
(414,1242,l),
(621,1242,l),
(621,1449,l)
);
},
{
closed = 1;
nodes = (
(828,1242,l),
(828,1449,l),
(828,1333,o),
(737,1242,o),
(621,1242,c)
);
},
{
closed = 1;
nodes = (
(828,1449,l),
(828,1242,l),
(1035,1242,l),
(1035,1449,l)
);
},
{
closed = 1;
nodes = (
(1242,1242,l),
(1242,1449,l),
(1242,1333,o),
(1151,1242,o),
(1035,1242,c)
);
},
{
closed = 1;
nodes = (
(1242,1449,l),
(1242,1242,l),
(1449,1242,l),
(1449,1449,l)
);
},
{
closed = 1;
nodes = (
(1656,1242,l),
(1656,1449,l),
(1656,1333,o),
(1565,1242,o),
(1449,1242,c)
);
},
{
closed = 1;
nodes = (
(1656,1449,l),
(1656,1242,l),
(1863,1242,l),
(1863,1449,l)
);
},
{
closed = 1;
nodes = (
(414,1656,l),
(414,1449,l),
(621,1449,l),
(621,1656,l)
);
},
{
closed = 1;
nodes = (
(828,1656,l),
(828,1449,l),
(1035,1449,l),
(1035,1656,l)
);
},
{
closed = 1;
nodes = (
(1242,1656,l),
(1242,1449,l),
(1449,1449,l),
(1449,1656,l)
);
},
{
closed = 1;
nodes = (
(1656,1656,l),
(1449,1656,l),
(1449,1540,o),
(1540,1449,o),
(1656,1449,c)
);
},
{
closed = 1;
nodes = (
(1656,1656,l),
(1656,1449,l),
(1863,1449,l),
(1863,1656,l)
);
},
{
closed = 1;
nodes = (
(414,1863,l),
(414,1656,l),
(621,1656,l),
(621,1863,l)
);
},
{
closed = 1;
nodes = (
(828,1863,l),
(828,1656,l),
(1035,1656,l),
(1035,1863,l)
);
},
{
closed = 1;
nodes = (
(1242,1863,l),
(1242,1656,l),
(1449,1656,l),
(1449,1863,l)
);
},
{
closed = 1;
nodes = (
(1656,1863,l),
(1540,1863,o),
(1449,1772,o),
(1449,1656,c),
(1656,1656,l)
);
},
{
closed = 1;
nodes = (
(1656,1656,l),
(1863,1656,l),
(1863,1772,o),
(1772,1863,o),
(1656,1863,c)
);
},
{
closed = 1;
nodes = (
(414,2070,l),
(207,2070,l),
(207,1954,o),
(298,1863,o),
(414,1863,c)
);
},
{
closed = 1;
nodes = (
(414,2070,l),
(414,1863,l),
(621,1863,l),
(621,2070,l)
);
},
{
closed = 1;
nodes = (
(828,2070,l),
(828,1863,l),
(1035,1863,l),
(1035,2070,l)
);
},
{
closed = 1;
nodes = (
(1242,2070,l),
(1035,2070,l),
(1035,1954,o),
(1126,1863,o),
(1242,1863,c)
);
},
{
closed = 1;
nodes = (
(1242,2070,l),
(1242,1863,l),
(1449,1863,l),
(1449,2070,l)
);
},
{
closed = 1;
nodes = (
(414,2277,l),
(298,2277,o),
(207,2186,o),
(207,2070,c),
(414,2070,l)
);
},
{
closed = 1;
nodes = (
(414,2070,l),
(621,2070,l),
(621,2186,o),
(530,2277,o),
(414,2277,c)
);
},
{
closed = 1;
nodes = (
(828,2277,l),
(621,2277,l),
(621,2161,o),
(712,2070,o),
(828,2070,c)
);
},
{
closed = 1;
nodes = (
(828,2277,l),
(828,2070,l),
(1035,2070,l),
(1035,2277,l)
);
},
{
closed = 1;
nodes = (
(1242,2277,l),
(1126,2277,o),
(1035,2186,o),
(1035,2070,c),
(1242,2070,l)
);
},
{
closed = 1;
nodes = (
(1242,2070,l),
(1449,2070,l),
(1449,2186,o),
(1358,2277,o),
(1242,2277,c)
);
},
{
closed = 1;
nodes = (
(828,2484,l),
(712,2484,o),
(621,2393,o),
(621,2277,c),
(828,2277,l)
);
},
{
closed = 1;
nodes = (
(828,2277,l),
(1035,2277,l),
(1035,2393,o),
(944,2484,o),
(828,2484,c)
);
}
);
width = 1863;
}
);
note = x;
unicode = 34;
}
{
glyphname = percent;
layers = (
{
layerId = m01;
shapes = (
{
closed = 1;
nodes = (
(414,207,l),
(414,0,l),
(621,0,l),
(621,207,l)
);
},
{
closed = 1;
nodes = (
(621,207,l),
(621,0,l),
(828,0,l),
(828,207,l)
);
},
{
closed = 1;
nodes = (
(828,207,l),
(828,0,l),
(1035,0,l),
(1035,207,l)
);
},
{
closed = 1;
nodes = (
(1035,207,l),
(1035,0,l),
(1242,0,l),
(1242,207,l)
);
},
{
closed = 1;
nodes = (
(1242,207,l),
(1242,0,l),
(1449,0,l),
(1449,207,l)
);
},
{
closed = 1;
nodes = (
(1449,207,l),
(1449,0,l),
(1656,0,l),
(1656,207,l)
);
},
{
closed = 1;
nodes = (
(1656,207,l),
(1656,0,l),
(1863,0,l),
(1863,207,l)
);
},
{
closed = 1;
nodes = (
(1863,207,l),
(1863,0,l),
(2070,0,l),
(2070,207,l)
);
},
{
closed = 1;
nodes = (
(2070,0,l),
(2277,0,l),
(2277,116,o),
(2186,207,o),
(2070,207,c)
);
},
{
closed = 1;
nodes = (
(621,414,l),
(505,414,o),
(414,323,o),
(414,207,c),
(621,207,l)
);
},
{
closed = 1;
nodes = (
(621,414,l),
(621,207,l),
(828,207,l),
(828,414,l)
);
},
{
closed = 1;
nodes = (
(828,414,l),
(828,207,l),
(1035,207,l),
(1035,414,l)
);
},
{
closed = 1;
nodes = (
(1035,414,l),
(1035,207,l),
(1242,207,l),
(1242,414,l)
);
},
{
closed = 1;
nodes = (
(1242,414,l),
(1242,207,l),
(1449,207,l),
(1449,414,l)
);
},
{
closed = 1;
nodes = (
(1449,414,l),
(1449,207,l),
(1656,207,l),
(1656,414,l)
);
},
{
closed = 1;
nodes = (
(1656,414,l),
(1656,207,l),
(1863,207,l),
(1863,414,l)
);
},
{
closed = 1;
nodes = (
(2070,207,l),
(1954,207,o),
(1863,298,o),
(1863,414,c),
(1863,207,l)
);
},
{
closed = 1;
nodes = (
(828,621,l),
(712,621,o),
(621,530,o),
(621,414,c),
(828,414,l)
);
},
{
closed = 1;
nodes = (
(828,621,l),
(828,414,l),
(1035,414,l),
(1035,621,l)
);
},
{
closed = 1;
nodes = (
(1035,621,l),
(1035,414,l),
(1242,414,l),
(1242,621,l)
);
},
{
closed = 1;
nodes = (
(1242,621,l),
(1242,414,l),
(1449,414,l),
(1449,621,l)
);
},
{
closed = 1;
nodes = (
(1449,621,l),
(1449,414,l),
(1656,414,l),
(1656,621,l)
);
},
{
closed = 1;
nodes = (
(1656,414,l),
(1863,414,l),
(1863,530,o),
(1772,621,o),
(1656,621,c)
);
},
{
closed = 1;
nodes = (
(828,828,l),
(828,621,l),
(1035,621,l),
(1035,828,l)
);
},
{
closed = 1;
nodes = (
(1035,828,l),
(1035,621,l),
(1242,621,l),
(1242,828,l)
);
},
{
closed = 1;
nodes = (
(1242,828,l),
(1242,621,l),
(1449,621,l),
(1449,828,l)
);
},
{
closed = 1;
nodes = (
(1449,828,l),
(1449,621,l),
(1656,621,l),
(1656,828,l)
);
},
{
closed = 1;
nodes = (
(1656,828,l),
(1656,621,l),
(1863,621,l),
(1863,828,l)
);
},
{
closed = 1;
nodes = (
(1863,828,l),
(1863,621,l),
(2070,621,l),
(2070,828,l)
);
},
{
closed = 1;
nodes = (
(2070,828,l),
(2070,621,l),
(2277,621,l),
(2277,828,l)
);
},
{
closed = 1;
nodes = (
(2277,621,l),
(2393,621,o),
(2484,712,o),
(2484,828,c),
(2277,828,l)
);
},
{
closed = 1;
nodes = (
(621,1035,l),
(737,1035,o),
(828,944,o),
(828,828,c),
(828,1035,l)
);
},
{
closed = 1;
nodes = (
(828,1035,l),
(828,828,l),
(1035,828,l),
(1035,1035,l)
);
},
{
closed = 1;
nodes = (
(1035,1035,l),
(1035,828,l),
(1242,828,l),
(1242,1035,l)
);
},
{
closed = 1;
nodes = (
(1242,1035,l),
(1242,828,l),
(1449,828,l),
(1449,1035,l)
);
},
{
closed = 1;
nodes = (
(1449,1035,l),
(1449,828,l),
(1656,828,l),
(1656,1035,l)
);
},
{
closed = 1;
nodes = (
(1656,1035,l),
(1656,828,l),
(1863,828,l),
(1863,1035,l)
);
},
{
closed = 1;
nodes = (
(1863,1035,l),
(1863,828,l),
(2070,828,l),
(2070,1035,l)
);
},
{
closed = 1;
nodes = (
(2070,1035,l),
(2070,828,l),
(2277,828,l),
(2277,1035,l)
);
},
{
closed = 1;
nodes = (
(2277,828,l),
(2484,828,l),
(2484,944,o),
(2393,1035,o),
(2277,1035,c)
);
},
{
closed = 1;
nodes = (
(414,1242,l),
(530,1242,o),
(621,1151,o),
(621,1035,c),
(621,1242,l)
);
},
{
closed = 1;
nodes = (
(621,1242,l),
(621,1035,l),
(828,1035,l),
(828,1242,l)
);
},
{
closed = 1;
nodes = (
(828,1242,l),
(828,1035,l),
(1035,1035,l),
(1035,1242,l)
);
},
{
closed = 1;
nodes = (
(1035,1242,l),
(1035,1035,l),
(1242,1035,l),
(1242,1242,l)
);
},
{
closed = 1;
nodes = (
(1242,1242,l),
(1242,1035,l),
(1449,1035,l),
(1449,1242,l)
);
},
{
closed = 1;
nodes = (
(1449,1242,l),
(1449,1035,l),
(1656,1035,l),
(1656,1242,l)
);
},
{
closed = 1;
nodes = (
(1656,1242,l),
(1656,1035,l),
(1863,1035,l),
(1863,1242,l)
);
},
{
closed = 1;
nodes = (
(1863,1242,l),
(1863,1035,l),
(2070,1035,l),
(2070,1242,l)
);
},
{
closed = 1;
nodes = (
(2070,1242,l),
(2070,1035,l),
(2277,1035,l),
(2277,1242,l)
);
},
{
closed = 1;
nodes = (
(414,1449,l),
(414,1242,l),
(621,1242,l),
(621,1449,l)
);
},
{
closed = 1;
nodes = (
(621,1449,l),
(621,1242,l),
(828,1242,l),
(828,1449,l)
);
},
{
closed = 1;
nodes = (
(828,1449,l),
(828,1242,l),
(1035,1242,l),
(1035,1449,l)
);
},
{
closed = 1;
nodes = (
(1035,1449,l),
(1035,1242,l),
(1242,1242,l),
(1242,1449,l)
);
},
{
closed = 1;
nodes = (
(1242,1449,l),
(1358,1449,o),
(1449,1358,o),
(1449,1242,c),
(1449,1449,l)
);
},
{
closed = 1;
nodes = (
(1449,1449,l),
(1565,1449,o),
(1656,1358,o),
(1656,1242,c),
(1656,1449,l)
);
},
{
closed = 1;
nodes = (
(1656,1449,l),
(1656,1242,l),
(1863,1242,l),
(1863,1449,l)
);
},
{
closed = 1;
nodes = (
(1863,1449,l),
(1863,1242,l),
(2070,1242,l),
(2070,1449,l)
);
},
{
closed = 1;
nodes = (
(414,1656,l),
(414,1449,l),
(621,1449,l),
(621,1656,l)
);
},
{
closed = 1;
nodes = (
(621,1656,l),
(621,1449,l),
(828,1449,l),
(828,1656,l)
);
},
{
closed = 1;
nodes = (
(828,1656,l),
(828,1449,l),
(1035,1449,l),
(1035,1656,l)
);
},
{
closed = 1;
nodes = (
(1035,1656,l),
(1035,1449,l),
(1242,1449,l),
(1242,1656,l)
);
},
{
closed = 1;
nodes = (
(1242,1656,l),
(1242,1449,l),
(1449,1449,l),
(1449,1656,l)
);
},
{
closed = 1;
nodes = (
(1449,1656,l),
(1449,1449,l),
(1656,1449,l),
(1656,1656,l)
);
},
{
closed = 1;
nodes = (
(1656,1656,l),
(1656,1449,l),
(1863,1449,l),
(1863,1656,l)
);
},
{
closed = 1;
nodes = (
(1863,1656,l),
(1863,1449,l),
(2070,1449,l),
(2070,1656,l)
);
},
{
closed = 1;
nodes = (
(414,1863,l),
(414,1656,l),
(621,1656,l),
(621,1863,l)
);
},
{
closed = 1;
nodes = (
(621,1863,l),
(621,1656,l),
(828,1656,l),
(828,1863,l)
);
},
{
closed = 1;
nodes = (
(828,1656,l),
(1035,1656,l),
(1035,1772,o),
(944,1863,o),
(828,1863,c)
);
},
{
closed = 1;
nodes = (
(1242,1863,l),
(1126,1863,o),
(1035,1772,o),
(1035,1656,c),
(1242,1656,l)
);
},
{
closed = 1;
nodes = (
(1242,1863,l),
(1242,1656,l),
(1449,1656,l),
(1449,1863,l)
);
},
{
closed = 1;
nodes = (
(1449,1656,l),
(1656,1656,l),
(1656,1772,o),
(1565,1863,o),
(1449,1863,c)
);
},
{
closed = 1;
nodes = (
(1863,1863,l),
(1747,1863,o),
(1656,1772,o),
(1656,1656,c),
(1863,1656,l)
);
},
{
closed = 1;
nodes = (
(1863,1863,l),
(1863,1656,l),
(2070,1656,l),
(2070,1863,l)
);
},
{
closed = 1;
nodes = (
(414,2070,l),
(414,1863,l),
(621,1863,l),
(621,2070,l)
);
},
{
closed = 1;
nodes = (
(621,2070,l),
(621,1863,l),
(828,1863,l),
(828,2070,l)
);
},
{
closed = 1;
nodes = (
(828,1863,l),
(944,1863,o),
(1035,1954,o),
(1035,2070,c),
(828,2070,l)
);
},
{
closed = 1;
nodes = (
(1242,2070,l),
(1035,2070,l),
(1035,1954,o),
(1126,1863,o),
(1242,1863,c)
);
},
{
closed = 1;
nodes = (
(1242,2070,l),
(1242,1863,l),
(1449,1863,l),
(1449,2070,l)
);
},
{
closed = 1;
nodes = (
(1449,1863,l),
(1565,1863,o),
(1656,1954,o),
(1656,2070,c),
(1449,2070,l)
);
},
{
closed = 1;
nodes = (
(1863,2070,l),
(1656,2070,l),
(1656,1954,o),
(1747,1863,o),
(1863,1863,c)
);
},
{
closed = 1;
nodes = (
(1863,2070,l),
(1863,1863,l),
(2070,1863,l),
(2070,2070,l)
);
},
{
closed = 1;
nodes = (
(414,2277,l),
(414,2070,l),
(621,2070,l),
(621,2277,l)
);
},
{
closed = 1;
nodes = (
(621,2277,l),
(621,2070,l),
(828,2070,l),
(828,2277,l)
);
},
{
closed = 1;
nodes = (
(828,2277,l),
(828,2070,l),
(1035,2070,l),
(1035,2277,l)
);
},
{
closed = 1;
nodes = (
(1035,2277,l),
(1035,2070,l),
(1242,2070,l),
(1242,2277,l)
);
},
{
closed = 1;
nodes = (
(1242,2277,l),
(1242,2070,l),
(1449,2070,l),
(1449,2277,l)
);
},
{
closed = 1;
nodes = (
(1449,2277,l),
(1449,2070,l),
(1656,2070,l),
(1656,2277,l)
);
},
{
closed = 1;
nodes = (
(1656,2277,l),
(1656,2070,l),
(1863,2070,l),
(1863,2277,l)
);
},
{
closed = 1;
nodes = (
(1863,2277,l),
(1863,2070,l),
(2070,2070,l),
(2070,2277,l)
);
},
{
closed = 1;
nodes = (
(207,2484,l),
(323,2484,o),
(414,2393,o),
(414,2277,c),
(414,2484,l)
);
},
{
closed = 1;
nodes = (
(414,2484,l),
(414,2277,l),
(621,2277,l),
(621,2484,l)
);
},
{
closed = 1;
nodes = (
(621,2484,l),
(621,2277,l),
(828,2277,l),
(828,2484,l)
);
},
{
closed = 1;
nodes = (
(828,2484,l),
(828,2277,l),
(1035,2277,l),
(1035,2484,l)
);
},
{
closed = 1;
nodes = (
(1035,2484,l),
(1035,2277,l),
(1242,2277,l),
(1242,2484,l)
);
},
{
closed = 1;
nodes = (
(1242,2484,l),
(1242,2277,l),
(1449,2277,l),
(1449,2484,l)
);
},
{
closed = 1;
nodes = (
(1449,2484,l),
(1449,2277,l),
(1656,2277,l),
(1656,2484,l)
);
},
{
closed = 1;
nodes = (
(1656,2277,l),
(1863,2277,l),
(1863,2393,o),
(1772,2484,o),
(1656,2484,c)
);
},
{
closed = 1;
nodes = (
(1863,2484,l),
(1863,2277,l),
(2070,2277,l),
(2070,2484,l)
);
},
{
closed = 1;
nodes = (
(207,2691,l),
(0,2691,l),
(0,2575,o),
(91,2484,o),
(207,2484,c)
);
},
{
closed = 1;
nodes = (
(207,2691,l),
(207,2484,l),
(414,2484,l),
(414,2691,l)
);
},
{
closed = 1;
nodes = (
(621,2691,l),
(414,2691,l),
(414,2575,o),
(505,2484,o),
(621,2484,c)
);
},
{
closed = 1;
nodes = (
(621,2484,l),
(737,2484,o),
(828,2575,o),
(828,2691,c),
(621,2691,l)
);
},
{
closed = 1;
nodes = (
(1863,2691,l),
(1656,2691,l),
(1656,2575,o),
(1747,2484,o),
(1863,2484,c)
);
},
{
closed = 1;
nodes = (
(1863,2691,l),
(1863,2484,l),
(2070,2484,l),
(2070,2691,l)
);
},
{
closed = 1;
nodes = (
(2277,2691,l),
(2070,2691,l),
(2070,2575,o),
(2161,2484,o),
(2277,2484,c)
);
},
{
closed = 1;
nodes = (
(2277,2484,l),
(2393,2484,o),
(2484,2575,o),
(2484,2691,c),
(2277,2691,l)
);
},
{
closed = 1;
nodes = (
(207,2898,l),
(91,2898,o),
(0,2807,o),
(0,2691,c),
(207,2691,l)
);
},
{
closed = 1;
nodes = (
(414,2691,l),
(298,2691,o),
(207,2782,o),
(207,2898,c),
(207,2691,l)
);
},
{
closed = 1;
nodes = (
(621,2898,l),
(505,2898,o),
(414,2807,o),
(414,2691,c),
(621,2691,l)
);
},
{
closed = 1;
nodes = (
(828,2691,l),
(712,2691,o),
(621,2782,o),
(621,2898,c),
(621,2691,l)
);
},
{
closed = 1;
nodes = (
(1863,2691,l),
(1863,2898,l),
(1863,2782,o),
(1772,2691,o),
(1656,2691,c)
);
},
{
closed = 1;
nodes = (
(1863,2691,l),
(2070,2691,l),
(2070,2807,o),
(1979,2898,o),
(1863,2898,c)
);
},
{
closed = 1;
nodes = (
(2277,2691,l),
(2277,2898,l),
(2277,2782,o),
(2186,2691,o),
(2070,2691,c)
);
},
{
closed = 1;
nodes = (
(2277,2691,l),
(2484,2691,l),
(2484,2807,o),
(2393,2898,o),
(2277,2898,c)
);
}
);
width = 2484;
}
);
note = "0.1-mostroculo_1";
unicode = 37;
}
{
glyphname = parenright;
layers = (
{
layerId = m01;
shapes = (
{
closed = 1;
nodes = (
(207,207,l),
(0,207,l),
(0,91,o),
(91,0,o),
(207,0,c)
);
},
{
closed = 1;
nodes = (
(207,0,l),
(323,0,o),
(414,91,o),
(414,207,c),
(207,207,l)
);
},
{
closed = 1;
nodes = (
(207,414,l),
(91,414,o),
(0,323,o),
(0,207,c),
(207,207,l)
);
},
{
closed = 1;
nodes = (
(207,207,l),
(414,207,l),
(414,323,o),
(323,414,o),
(207,414,c)
);
},
{
closed = 1;
nodes = (
(414,621,l),
(207,621,l),
(207,505,o),
(298,414,o),
(414,414,c)
);
},
{
closed = 1;
nodes = (
(414,414,l),
(530,414,o),
(621,505,o),
(621,621,c),
(414,621,l)
);
},
{
closed = 1;
nodes = (
(414,828,l),
(298,828,o),
(207,737,o),
(207,621,c),
(414,621,l)
);
},
{
closed = 1;
nodes = (
(414,621,l),
(621,621,l),
(621,737,o),
(530,828,o),
(414,828,c)
);
},
{
closed = 1;
nodes = (
(621,1035,l),
(414,1035,l),
(414,919,o),
(505,828,o),
(621,828,c)
);
},
{
closed = 1;
nodes = (
(621,828,l),
(737,828,o),
(828,919,o),
(828,1035,c),
(621,1035,l)
);
},
{
closed = 1;
nodes = (
(621,1242,l),
(505,1242,o),
(414,1151,o),
(414,1035,c),
(621,1035,l)
);
},
{
closed = 1;
nodes = (
(621,1242,l),
(621,1035,l),
(828,1035,l),
(828,1242,l)
);
},
{
closed = 1;
nodes = (
(828,1242,l),
(828,1035,l),
(1035,1035,l),
(1035,1242,l)
);
},
{
closed = 1;
nodes = (
(1035,1242,l),
(1035,1035,l),
(1242,1035,l),
(1242,1242,l)
);
},
{
closed = 1;
nodes = (
(1242,1035,l),
(1358,1035,o),
(1449,1126,o),
(1449,1242,c),
(1242,1242,l)
);
},
{
closed = 1;
nodes = (
(828,1242,l),
(828,1449,l),
(828,1333,o),
(737,1242,o),
(621,1242,c)
);
},
{
closed = 1;
nodes = (
(1035,1242,l),
(919,1242,o),
(828,1333,o),
(828,1449,c),
(828,1242,l)
);
},
{
closed = 1;
nodes = (
(1449,1449,l),
(1333,1449,o),
(1242,1358,o),
(1242,1242,c),
(1449,1242,l)
);
},
{
closed = 1;
nodes = (
(1449,1449,l),
(1449,1242,l),
(1656,1242,l),
(1656,1449,l)
);
},
{
closed = 1;
nodes = (
(1656,1449,l),
(1656,1242,l),
(1863,1242,l),
(1863,1449,l)
);
},
{
closed = 1;
nodes = (
(1863,1242,l),
(1979,1242,o),
(2070,1333,o),
(2070,1449,c),
(1863,1449,l)
);
},
{
closed = 1;
nodes = (
(621,1656,l),
(737,1656,o),
(828,1565,o),
(828,1449,c),
(828,1656,l)
);
},
{
closed = 1;
nodes = (
(828,1656,l),
(828,1449,l),
(828,1565,o),
(919,1656,o),
(1035,1656,c)
);
},
{
closed = 1;
nodes = (
(2070,1656,l),
(1954,1656,o),
(1863,1565,o),
(1863,1449,c),
(2070,1449,l)
);
},
{
closed = 1;
nodes = (
(2070,1449,l),
(2186,1449,o),
(2277,1540,o),
(2277,1656,c),
(2070,1656,l)
);
},
{
closed = 1;
nodes = (
(414,1863,l),
(207,1863,l),
(207,1747,o),
(298,1656,o),
(414,1656,c)
);
},
{
closed = 1;
nodes = (
(414,1863,l),
(414,1656,l),
(621,1656,l),
(621,1863,l)
);
},
{
closed = 1;
nodes = (
(621,1863,l),
(621,1656,l),
(828,1656,l),
(828,1863,l)
);
},
{
closed = 1;
nodes = (
(828,1863,l),
(828,1656,l),
(1035,1656,l),
(1035,1863,l)
);
},
{
closed = 1;
nodes = (
(1035,1656,l),
(1242,1656,l),
(1242,1772,o),
(1151,1863,o),
(1035,1863,c)
);
},
{
closed = 1;
nodes = (
(2277,1863,l),
(2161,1863,o),
(2070,1772,o),
(2070,1656,c),
(2277,1656,l)
);
},
{
closed = 1;
nodes = (
(2277,1656,l),
(2393,1656,o),
(2484,1747,o),
(2484,1863,c),
(2277,1863,l)
);
},
{
closed = 1;
nodes = (
(207,2070,l),
(207,1863,l),
(414,1863,l),
(414,2070,l)
);
},
{
closed = 1;
nodes = (
(621,1863,l),
(505,1863,o),
(414,1954,o),
(414,2070,c),
(414,1863,l)
);
},
{
closed = 1;
nodes = (
(2277,2070,l),
(2277,1863,l),
(2484,1863,l),
(2484,2070,l)
);
},
{
closed = 1;
nodes = (
(207,2277,l),
(0,2277,l),
(0,2161,o),
(91,2070,o),
(207,2070,c)
);
},
{
closed = 1;
nodes = (
(207,2277,l),
(207,2070,l),
(414,2070,l),
(414,2277,l)
);
},
{
closed = 1;
nodes = (
(1863,2277,l),
(1656,2277,l),
(1656,2161,o),
(1747,2070,o),
(1863,2070,c)
);
},
{
closed = 1;
nodes = (
(1863,2070,l),
(1979,2070,o),
(2070,2161,o),
(2070,2277,c),
(1863,2277,l)
);
},
{
closed = 1;
nodes = (
(2277,2277,l),
(2277,2070,l),
(2484,2070,l),
(2484,2277,l)
);
},
{
closed = 1;
nodes = (
(207,2484,l),
(91,2484,o),
(0,2393,o),
(0,2277,c),
(207,2277,l)
);
},
{
closed = 1;
nodes = (
(207,2277,l),
(414,2277,l),
(414,2393,o),
(323,2484,o),
(207,2484,c)
);
},
{
closed = 1;
nodes = (
(1449,2484,l),
(1565,2484,o),
(1656,2393,o),
(1656,2277,c),
(1656,2484,l)
);
},
{
closed = 1;
nodes = (
(1656,2484,l),
(1656,2277,l),
(1863,2277,l),
(1863,2484,l)
);
},
{
closed = 1;
nodes = (
(1863,2484,l),
(1863,2277,l),
(2070,2277,l),
(2070,2484,l)
);
},
{
closed = 1;
nodes = (
(2070,2484,l),
(2070,2277,l),
(2070,2393,o),
(2161,2484,o),
(2277,2484,c)
);
},
{
closed = 1;
nodes = (
(2277,2484,l),
(2277,2277,l),
(2484,2277,l),
(2484,2484,l)
);
},
{
closed = 1;
nodes = (
(207,2691,l),
(0,2691,l),
(0,2575,o),
(91,2484,o),
(207,2484,c)
);
},
{
closed = 1;
nodes = (
(207,2484,l),
(323,2484,o),
(414,2575,o),
(414,2691,c),
(207,2691,l)
);
},
{
closed = 1;
nodes = (
(828,2691,l),
(621,2691,l),
(621,2575,o),
(712,2484,o),
(828,2484,c)
);
},
{
closed = 1;
nodes = (
(828,2691,l),
(828,2484,l),
(1035,2484,l),
(1035,2691,l)
);
},
{
closed = 1;
nodes = (
(1035,2691,l),
(1035,2484,l),
(1242,2484,l),
(1242,2691,l)
);
},
{
closed = 1;
nodes = (
(1242,2691,l),
(1242,2484,l),
(1449,2484,l),
(1449,2691,l)
);
},
{
closed = 1;
nodes = (
(1449,2691,l),
(1449,2484,l),
(1656,2484,l),
(1656,2691,l)
);
},
{
closed = 1;
nodes = (
(1656,2691,l),
(1656,2484,l),
(1863,2484,l),
(1863,2691,l)
);
},
{
closed = 1;
nodes = (
(1863,2691,l),
(1863,2484,l),
(2070,2484,l),
(2070,2691,l)
);
},
{
closed = 1;
nodes = (
(2070,2691,l),
(2070,2484,l),
(2277,2484,l),
(2277,2691,l)
);
},
{
closed = 1;
nodes = (
(2277,2691,l),
(2277,2484,l),
(2484,2484,l),
(2484,2691,l)
);
},
{
closed = 1;
nodes = (
(207,2898,l),
(91,2898,o),
(0,2807,o),
(0,2691,c),
(207,2691,l)
);
},
{
closed = 1;
nodes = (
(207,2898,l),
(207,2691,l),
(414,2691,l),
(414,2898,l)
);
},
{
closed = 1;
nodes = (
(414,2898,l),
(414,2691,l),
(621,2691,l),
(621,2898,l)
);
},
{
closed = 1;
nodes = (
(621,2691,l),
(828,2691,l),
(828,2807,o),
(737,2898,o),
(621,2898,c)
);
},
{
closed = 1;
nodes = (
(1449,2898,l),
(1333,2898,o),
(1242,2807,o),
(1242,2691,c),
(1449,2691,l)
);
},
{
closed = 1;
nodes = (
(1449,2691,l),
(1656,2691,l),
(1656,2807,o),
(1565,2898,o),
(1449,2898,c)
);
},
{
closed = 1;
nodes = (
(2277,2898,l),
(2161,2898,o),
(2070,2807,o),
(2070,2691,c),
(2277,2691,l)
);
},
{
closed = 1;
nodes = (
(2277,2691,l),
(2484,2691,l),
(2484,2807,o),
(2393,2898,o),
(2277,2898,c)
);
}
);
width = 2484;
}
);
note = 0.nuvola_1;
unicode = 41;
}
{
glyphname = plus;
layers = (
{
layerId = m01;
shapes = (
{
closed = 1;
nodes = (
(828,207,l),
(621,207,l),
(621,91,o),
(712,0,o),
(828,0,c)
);
},
{
closed = 1;
nodes = (
(828,207,l),
(828,0,l),
(1035,0,l),
(1035,207,l)
);
},
{
closed = 1;
nodes = (
(1035,207,l),
(1035,0,l),
(1242,0,l),
(1242,207,l)
);
},
{
closed = 1;
nodes = (
(1242,0,l),
(1358,0,o),
(1449,91,o),
(1449,207,c),
(1242,207,l)
);
},
{
closed = 1;
nodes = (
(828,414,l),
(621,414,l),
(621,298,o),
(712,207,o),
(828,207,c)
);
},
{
closed = 1;
nodes = (
(828,414,l),
(828,207,l),
(1035,207,l),
(1035,414,l)
);
},
{
closed = 1;
nodes = (
(1035,414,l),
(1035,207,l),
(1242,207,l),
(1242,414,l)
);
},
{
closed = 1;
nodes = (
(1242,207,l),
(1358,207,o),
(1449,298,o),
(1449,414,c),
(1242,414,l)
);
},
{
closed = 1;
nodes = (
(828,621,l),
(621,621,l),
(621,505,o),
(712,414,o),
(828,414,c)
);
},
{
closed = 1;
nodes = (
(828,621,l),
(828,414,l),
(1035,414,l),
(1035,621,l)
);
},
{
closed = 1;
nodes = (
(1035,621,l),
(1035,414,l),
(1242,414,l),
(1242,621,l)
);
},
{
closed = 1;
nodes = (
(1242,414,l),
(1358,414,o),
(1449,505,o),
(1449,621,c),
(1242,621,l)
);
},
{
closed = 1;
nodes = (
(828,828,l),
(621,828,l),
(621,712,o),
(712,621,o),
(828,621,c)
);
},
{
closed = 1;
nodes = (
(828,828,l),
(828,621,l),
(1035,621,l),
(1035,828,l)
);
},
{
closed = 1;
nodes = (
(1035,828,l),
(1035,621,l),
(1242,621,l),
(1242,828,l)
);
},
{
closed = 1;
nodes = (
(1242,621,l),
(1358,621,o),
(1449,712,o),
(1449,828,c),
(1242,828,l)
);
},
{
closed = 1;
nodes = (
(621,1035,l),
(414,1035,l),
(414,919,o),
(505,828,o),
(621,828,c)
);
},
{
closed = 1;
nodes = (
(621,828,l),
(828,828,l),
(828,944,o),
(737,1035,o),
(621,1035,c)
);
},
{
closed = 1;
nodes = (
(828,1035,l),
(828,828,l),
(1035,828,l),
(1035,1035,l)
);
},
{
closed = 1;
nodes = (
(1035,1035,l),
(1035,828,l),
(1242,828,l),
(1242,1035,l)
);
},
{
closed = 1;
nodes = (
(1449,1035,l),
(1333,1035,o),
(1242,944,o),
(1242,828,c),
(1449,828,l)
);
},
{
closed = 1;
nodes = (
(1449,828,l),
(1565,828,o),
(1656,919,o),
(1656,1035,c),
(1449,1035,l)
);
},
{
closed = 1;
nodes = (
(414,1242,l),
(207,1242,l),
(207,1126,o),
(298,1035,o),
(414,1035,c)
);
},
{
closed = 1;
nodes = (
(414,1035,l),
(621,1035,l),
(621,1151,o),
(530,1242,o),
(414,1242,c)
);
},
{
closed = 1;
nodes = (
(1035,1242,l),
(828,1242,l),
(828,1126,o),
(919,1035,o),
(1035,1035,c)
);
},
{
closed = 1;
nodes = (
(1035,1035,l),
(1151,1035,o),
(1242,1126,o),
(1242,1242,c),
(1035,1242,l)
);
},
{
closed = 1;
nodes = (
(1656,1242,l),
(1540,1242,o),
(1449,1151,o),
(1449,1035,c),
(1656,1035,l)
);
},
{
closed = 1;
nodes = (
(1656,1035,l),
(1772,1035,o),
(1863,1126,o),
(1863,1242,c),
(1656,1242,l)
);
},
{
closed = 1;
nodes = (
(207,1449,l),
(0,1449,l),
(0,1333,o),
(91,1242,o),
(207,1242,c)
);
},
{
closed = 1;
nodes = (
(207,1242,l),
(414,1242,l),
(414,1358,o),
(323,1449,o),
(207,1449,c)
);
},
{
closed = 1;
nodes = (
(828,1242,l),
(1035,1242,l),
(1035,1358,o),
(944,1449,o),
(828,1449,c)
);
},
{
closed = 1;
nodes = (
(1242,1449,l),
(1126,1449,o),
(1035,1358,o),
(1035,1242,c),
(1242,1242,l)
);
},
{
closed = 1;
nodes = (
(1863,1449,l),
(1747,1449,o),
(1656,1358,o),
(1656,1242,c),
(1863,1242,l)
);
},
{
closed = 1;
nodes = (
(1863,1242,l),
(1979,1242,o),
(2070,1333,o),
(2070,1449,c),
(1863,1449,l)
);
},
{
closed = 1;
nodes = (
(0,1656,l),
(0,1449,l),
(207,1449,l),
(207,1656,l)
);
},
{
closed = 1;
nodes = (
(828,1449,l),
(944,1449,o),
(1035,1540,o),
(1035,1656,c),
(828,1656,l)
);
},
{
closed = 1;
nodes = (
(1242,1656,l),
(1035,1656,l),
(1035,1540,o),
(1126,1449,o),
(1242,1449,c)
);
},
{
closed = 1;
nodes = (
(1863,1656,l),
(1863,1449,l),
(2070,1449,l),
(2070,1656,l)
);
},
{
closed = 1;
nodes = (
(0,1863,l),
(0,1656,l),
(207,1656,l),
(207,1863,l)
);
},
{
closed = 1;
nodes = (
(1035,1863,l),
(919,1863,o),
(828,1772,o),
(828,1656,c),
(1035,1656,l)
);
},
{
closed = 1;
nodes = (
(1035,1656,l),
(1242,1656,l),
(1242,1772,o),
(1151,1863,o),
(1035,1863,c)
);
},
{
closed = 1;
nodes = (
(1863,1863,l),
(1863,1656,l),
(2070,1656,l),
(2070,1863,l)
);
},
{
closed = 1;
nodes = (
(0,2070,l),
(0,1863,l),
(207,1863,l),
(207,2070,l)
);
},
{
closed = 1;
nodes = (
(1863,2070,l),
(1863,1863,l),
(2070,1863,l),
(2070,2070,l)
);
},
{
closed = 1;
nodes = (
(0,2277,l),
(0,2070,l),
(207,2070,l),
(207,2277,l)
);
},
{
closed = 1;
nodes = (
(207,2070,l),
(323,2070,o),
(414,2161,o),
(414,2277,c),
(207,2277,l)
);
},
{
closed = 1;
nodes = (
(1863,2277,l),
(1656,2277,l),
(1656,2161,o),
(1747,2070,o),
(1863,2070,c)
);
},
{
closed = 1;
nodes = (
(1863,2277,l),
(1863,2070,l),
(2070,2070,l),
(2070,2277,l)
);
},
{
closed = 1;
nodes = (
(207,2484,l),
(91,2484,o),
(0,2393,o),
(0,2277,c),
(207,2277,l)
);
},
{
closed = 1;
nodes = (
(207,2277,l),
(414,2277,l),
(414,2393,o),
(323,2484,o),
(207,2484,c)
);
},
{
closed = 1;
nodes = (
(1863,2484,l),
(1747,2484,o),
(1656,2393,o),
(1656,2277,c),
(1863,2277,l)
);
},
{
closed = 1;
nodes = (
(1863,2277,l),
(2070,2277,l),
(2070,2393,o),
(1979,2484,o),
(1863,2484,c)
);
},
{
closed = 1;
nodes = (
(414,2691,l),
(207,2691,l),
(207,2575,o),
(298,2484,o),
(414,2484,c)
);
},
{
closed = 1;
nodes = (
(414,2484,l),
(530,2484,o),
(621,2575,o),
(621,2691,c),
(414,2691,l)
);
},
{
closed = 1;
nodes = (
(1656,2691,l),
(1449,2691,l),
(1449,2575,o),
(1540,2484,o),
(1656,2484,c)
);
},
{
closed = 1;
nodes = (
(1656,2484,l),
(1772,2484,o),
(1863,2575,o),
(1863,2691,c),
(1656,2691,l)
);
},
{
closed = 1;
nodes = (
(414,2898,l),
(298,2898,o),
(207,2807,o),
(207,2691,c),
(414,2691,l)
);
},
{
closed = 1;
nodes = (
(414,2898,l),
(414,2691,l),
(621,2691,l),
(621,2898,l)
);
},
{
closed = 1;
nodes = (
(621,2898,l),
(621,2691,l),
(828,2691,l),
(828,2898,l)
);
},
{
closed = 1;
nodes = (
(828,2898,l),
(828,2691,l),
(1035,2691,l),
(1035,2898,l)
);
},
{
closed = 1;
nodes = (
(1035,2898,l),
(1035,2691,l),
(1242,2691,l),
(1242,2898,l)
);
},
{
closed = 1;
nodes = (
(1242,2898,l),
(1242,2691,l),
(1449,2691,l),
(1449,2898,l)
);
},
{
closed = 1;
nodes = (
(1449,2898,l),
(1449,2691,l),
(1656,2691,l),
(1656,2898,l)
);
},
{
closed = 1;
nodes = (
(1656,2691,l),
(1863,2691,l),
(1863,2807,o),
(1772,2898,o),
(1656,2898,c)
);
}
);
width = 2070;
}
);
note = 0.lampadina1;
unicode = 43;
}
{
glyphname = slash;
layers = (
{
layerId = m01;
shapes = (
{
closed = 1;
nodes = (
(1035,207,l),
(1151,207,o),
(1242,116,o),
(1242,0,c),
(1242,207,l)
);
},
{
closed = 1;
nodes = (
(1242,207,l),
(1242,0,l),
(1242,116,o),
(1333,207,o),
(1449,207,c)
);
},
{
closed = 1;
nodes = (
(207,414,l),
(0,414,l),
(0,298,o),
(91,207,o),
(207,207,c)
);
},
{
closed = 1;
nodes = (
(207,414,l),
(207,207,l),
(414,207,l),
(414,414,l)
);
},
{
closed = 1;
nodes = (
(414,207,l),
(621,207,l),
(621,323,o),
(530,414,o),
(414,414,c)
);
},
{
closed = 1;
nodes = (
(828,414,l),
(712,414,o),
(621,323,o),
(621,207,c),
(828,207,l)
);
},
{
closed = 1;
nodes = (
(1035,414,l),
(919,414,o),
(828,323,o),
(828,207,c),
(1035,207,l)
);
},
{
closed = 1;
nodes = (
(1242,414,l),
(1126,414,o),
(1035,323,o),
(1035,207,c),
(1242,207,l)
);
},
{
closed = 1;
nodes = (
(1449,414,l),
(1333,414,o),
(1242,323,o),
(1242,207,c),
(1449,207,l)
);
},
{
closed = 1;
nodes = (
(1656,414,l),
(1540,414,o),
(1449,323,o),
(1449,207,c),
(1656,207,l)
);
},
{
closed = 1;
nodes = (
(1863,414,l),
(1747,414,o),
(1656,323,o),
(1656,207,c),
(1863,207,l)
);
},
{
closed = 1;
nodes = (
(1863,414,l),
(1863,207,l),
(2070,207,l),
(2070,414,l)
);
},
{
closed = 1;
nodes = (
(2070,207,l),
(2186,207,o),
(2277,298,o),
(2277,414,c),
(2070,414,l)
);
},
{
closed = 1;
nodes = (
(0,621,l),
(0,414,l),
(207,414,l),
(207,621,l)
);
},
{
closed = 1;
nodes = (
(414,414,l),
(298,414,o),
(207,505,o),
(207,621,c),
(207,414,l)
);
},
{
closed = 1;
nodes = (
(2070,414,l),
(2070,621,l),
(2070,505,o),
(1979,414,o),
(1863,414,c)
);
},
{
closed = 1;
nodes = (
(2070,621,l),
(2070,414,l),
(2277,414,l),
(2277,621,l)
);
},
{
closed = 1;
nodes = (
(0,828,l),
(0,621,l),
(207,621,l),
(207,828,l)
);
},
{
closed = 1;
nodes = (
(2070,828,l),
(2070,621,l),
(2277,621,l),
(2277,828,l)
);
},
{
closed = 1;
nodes = (
(207,1035,l),
(91,1035,o),
(0,944,o),
(0,828,c),
(207,828,l)
);
},
{
closed = 1;
nodes = (
(1035,1035,l),
(1151,1035,o),
(1242,944,o),
(1242,828,c),
(1242,1035,l)
);
},
{
closed = 1;
nodes = (
(1242,1035,l),
(1242,828,l),
(1242,944,o),
(1333,1035,o),
(1449,1035,c)
);
},
{
closed = 1;
nodes = (
(2070,828,l),
(2277,828,l),
(2277,944,o),
(2186,1035,o),
(2070,1035,c)
);
},
{
closed = 1;
nodes = (
(207,1242,l),
(0,1242,l),
(0,1126,o),
(91,1035,o),
(207,1035,c)
);
},
{
closed = 1;
nodes = (
(621,1035,l),
(828,1035,l),
(828,1151,o),
(737,1242,o),
(621,1242,c)
);
},
{
closed = 1;
nodes = (
(828,1035,l),
(1035,1035,l),
(1035,1151,o),
(944,1242,o),
(828,1242,c)
);
},
{
closed = 1;
nodes = (
(1035,1035,l),
(1242,1035,l),
(1242,1151,o),
(1151,1242,o),
(1035,1242,c)
);
},
{
closed = 1;
nodes = (
(1242,1035,l),
(1449,1035,l),
(1449,1151,o),
(1358,1242,o),
(1242,1242,c)
);
},
{
closed = 1;
nodes = (
(1449,1035,l),
(1656,1035,l),
(1656,1151,o),
(1565,1242,o),
(1449,1242,c)
);
},
{
closed = 1;
nodes = (
(1656,1035,l),
(1863,1035,l),
(1863,1151,o),
(1772,1242,o),
(1656,1242,c)
);
},
{
closed = 1;
nodes = (
(2070,1035,l),
(2186,1035,o),
(2277,1126,o),
(2277,1242,c),
(2070,1242,l)
);
},
{
closed = 1;
nodes = (
(0,1449,l),
(0,1242,l),
(207,1242,l),
(207,1449,l)
);
},
{
closed = 1;
nodes = (
(207,1449,l),
(207,1242,l),
(207,1358,o),
(298,1449,o),
(414,1449,c)
);
},
{
closed = 1;
nodes = (
(1863,1449,l),
(1979,1449,o),
(2070,1358,o),
(2070,1242,c),
(2070,1449,l)
);
},
{
closed = 1;
nodes = (
(2070,1449,l),
(2070,1242,l),
(2277,1242,l),
(2277,1449,l)
);
},
{
closed = 1;
nodes = (
(207,1656,l),
(91,1656,o),
(0,1565,o),
(0,1449,c),
(207,1449,l)
);
},
{
closed = 1;
nodes = (
(207,1449,l),
(414,1449,l),
(414,1565,o),
(323,1656,o),
(207,1656,c)
);
},
{
closed = 1;
nodes = (
(1035,1656,l),
(1151,1656,o),
(1242,1565,o),
(1242,1449,c),
(1242,1656,l)
);
},
{
closed = 1;
nodes = (
(1242,1656,l),
(1242,1449,l),
(1242,1565,o),
(1333,1656,o),
(1449,1656,c)
);
},
{
closed = 1;
nodes = (
(2070,1656,l),
(1954,1656,o),
(1863,1565,o),
(1863,1449,c),
(2070,1449,l)
);
},
{
closed = 1;
nodes = (
(2070,1449,l),
(2277,1449,l),
(2277,1565,o),
(2186,1656,o),
(2070,1656,c)
);
},
{
closed = 1;
nodes = (
(207,1863,l),
(0,1863,l),
(0,1747,o),
(91,1656,o),
(207,1656,c)
);
},
{
closed = 1;
nodes = (
(207,1863,l),
(207,1656,l),
(207,1772,o),
(298,1863,o),
(414,1863,c)
);
},
{
closed = 1;
nodes = (
(621,1863,l),
(737,1863,o),
(828,1772,o),
(828,1656,c),
(828,1863,l)
);
},
{
closed = 1;
nodes = (
(828,1863,l),
(828,1656,l),
(828,1772,o),
(919,1863,o),
(1035,1863,c)
);
},
{
closed = 1;
nodes = (
(1449,1863,l),
(1565,1863,o),
(1656,1772,o),
(1656,1656,c),
(1656,1863,l)
);
},
{
closed = 1;
nodes = (
(1656,1863,l),
(1656,1656,l),
(1656,1772,o),
(1747,1863,o),
(1863,1863,c)
);
},
{
closed = 1;
nodes = (
(1863,1863,l),
(1979,1863,o),
(2070,1772,o),
(2070,1656,c),
(2070,1863,l)
);
},
{
closed = 1;
nodes = (
(2070,1656,l),
(2186,1656,o),
(2277,1747,o),
(2277,1863,c),
(2070,1863,l)
);
},
{
closed = 1;
nodes = (
(0,2070,l),
(0,1863,l),
(207,1863,l),
(207,2070,l)
);
},
{
closed = 1;
nodes = (
(414,1863,l),
(298,1863,o),
(207,1954,o),
(207,2070,c),
(207,1863,l)
);
},
{
closed = 1;
nodes = (
(828,1863,l),
(828,2070,l),
(828,1954,o),
(737,1863,o),
(621,1863,c)
);
},
{
closed = 1;
nodes = (
(1035,1863,l),
(919,1863,o),
(828,1954,o),
(828,2070,c),
(828,1863,l)
);
},
{
closed = 1;
nodes = (
(1656,1863,l),
(1656,2070,l),
(1656,1954,o),
(1565,1863,o),
(1449,1863,c)
);
},
{
closed = 1;
nodes = (
(1863,1863,l),
(1747,1863,o),
(1656,1954,o),
(1656,2070,c),
(1656,1863,l)
);
},
{
closed = 1;
nodes = (
(2070,1863,l),
(2070,2070,l),
(2070,1954,o),
(1979,1863,o),
(1863,1863,c)
);
},
{
closed = 1;
nodes = (
(2070,2070,l),
(2070,1863,l),
(2277,1863,l),
(2277,2070,l)
);
},
{
closed = 1;
nodes = (
(207,2277,l),
(91,2277,o),
(0,2186,o),
(0,2070,c),
(207,2070,l)
);
},
{
closed = 1;
nodes = (
(207,2277,l),
(207,2070,l),
(207,2186,o),
(298,2277,o),
(414,2277,c)
);
},
{
closed = 1;
nodes = (
(1035,2277,l),
(1151,2277,o),
(1242,2186,o),
(1242,2070,c),
(1242,2277,l)
);
},
{
closed = 1;
nodes = (
(1242,2277,l),
(1242,2070,l),
(1242,2186,o),
(1333,2277,o),
(1449,2277,c)
);
},
{
closed = 1;
nodes = (
(1863,2277,l),
(1979,2277,o),
(2070,2186,o),
(2070,2070,c),
(2070,2277,l)
);
},
{
closed = 1;
nodes = (
(2070,2070,l),
(2277,2070,l),
(2277,2186,o),
(2186,2277,o),
(2070,2277,c)
);
},
{
closed = 1;
nodes = (
(207,2484,l),
(0,2484,l),
(0,2368,o),
(91,2277,o),
(207,2277,c)
);
},
{
closed = 1;
nodes = (
(207,2484,l),
(207,2277,l),
(414,2277,l),
(414,2484,l)
);
},
{
closed = 1;
nodes = (
(414,2484,l),
(414,2277,l),
(621,2277,l),
(621,2484,l)
);
},
{
closed = 1;
nodes = (
(621,2484,l),
(621,2277,l),
(828,2277,l),
(828,2484,l)
);
},
{
closed = 1;
nodes = (
(828,2484,l),
(828,2277,l),
(1035,2277,l),
(1035,2484,l)
);
},
{
closed = 1;
nodes = (
(1035,2277,l),
(1242,2277,l),
(1242,2393,o),
(1151,2484,o),
(1035,2484,c)
);
},
{
closed = 1;
nodes = (
(1449,2484,l),
(1333,2484,o),
(1242,2393,o),
(1242,2277,c),
(1449,2277,l)
);
},
{
closed = 1;
nodes = (
(1449,2484,l),
(1449,2277,l),
(1656,2277,l),
(1656,2484,l)
);
},
{
closed = 1;
nodes = (
(1656,2484,l),
(1656,2277,l),
(1863,2277,l),
(1863,2484,l)
);
},
{
closed = 1;
nodes = (
(1863,2484,l),
(1863,2277,l),
(2070,2277,l),
(2070,2484,l)
);
},
{
closed = 1;
nodes = (
(2070,2277,l),
(2186,2277,o),
(2277,2368,o),
(2277,2484,c),
(2070,2484,l)
);
},
{
closed = 1;
nodes = (
(0,2691,l),
(0,2484,l),
(207,2484,l),
(207,2691,l)
);
},
{
closed = 1;
nodes = (
(2070,2691,l),
(2070,2484,l),
(2277,2484,l),
(2277,2691,l)
);
},
{
closed = 1;
nodes = (
(207,2898,l),
(91,2898,o),
(0,2807,o),
(0,2691,c),
(207,2691,l)
);
},
{
closed = 1;
nodes = (
(207,2898,l),
(207,2691,l),
(414,2691,l),
(414,2898,l)
);
},
{
closed = 1;
nodes = (
(414,2691,l),
(621,2691,l),
(621,2807,o),
(530,2898,o),
(414,2898,c)
);
},
{
closed = 1;
nodes = (
(2070,2898,l),
(1954,2898,o),
(1863,2807,o),
(1863,2691,c),
(2070,2691,l)
);
},
{
closed = 1;
nodes = (
(2070,2691,l),
(2277,2691,l),
(2277,2807,o),
(2186,2898,o),
(2070,2898,c)
);
}
);
width = 2277;
}
);
note = "0.1-mostroculo_2";
unicode = 47;
}
{
glyphname = zero;
layers = (
{
layerId = m01;
shapes = (
{
closed = 1;
nodes = (
(0,207,l),
(0,0,l),
(207,0,l),
(207,207,l)
);
},
{
closed = 1;
nodes = (
(207,207,l),
(207,0,l),
(414,0,l),
(414,207,l)
);
},
{
closed = 1;
nodes = (
(414,207,l),
(414,0,l),
(621,0,l),
(621,207,l)
);
},
{
closed = 1;
nodes = (
(621,207,l),
(621,0,l),
(828,0,l),
(828,207,l)
);
},
{
closed = 1;
nodes = (
(828,207,l),
(828,0,l),
(1035,0,l),
(1035,207,l)
);
},
{
closed = 1;
nodes = (
(1035,207,l),
(1035,0,l),
(1242,0,l),
(1242,207,l)
);
},
{
closed = 1;
nodes = (
(1449,207,l),
(1449,0,l),
(1656,0,l),
(1656,207,l)
);
},
{
closed = 1;
nodes = (
(1656,207,l),
(1656,0,l),
(1863,0,l),
(1863,207,l)
);
},
{
closed = 1;
nodes = (
(1863,207,l),
(1863,0,l),
(2070,0,l),
(2070,207,l)
);
},
{
closed = 1;
nodes = (
(2070,207,l),
(2070,0,l),
(2277,0,l),
(2277,207,l)
);
},
{
closed = 1;
nodes = (
(2277,207,l),
(2277,0,l),
(2484,0,l),
(2484,207,l)
);
},
{
closed = 1;
nodes = (
(2484,207,l),
(2484,0,l),
(2691,0,l),
(2691,207,l)
);
},
{
closed = 1;
nodes = (
(0,414,l),
(0,207,l),
(207,207,l),
(207,414,l)
);
},
{
closed = 1;
nodes = (
(1035,414,l),
(1035,207,l),
(1242,207,l),
(1242,414,l)
);
},
{
closed = 1;
nodes = (
(1449,414,l),
(1449,207,l),
(1656,207,l),
(1656,414,l)
);
},
{
closed = 1;
nodes = (
(2484,414,l),
(2484,207,l),
(2691,207,l),
(2691,414,l)
);
},
{
closed = 1;
nodes = (
(0,621,l),
(0,414,l),
(207,414,l),
(207,621,l)
);
},
{
closed = 1;
nodes = (
(207,621,l),
(207,414,l),
(414,414,l),
(414,621,l)
);
},
{
closed = 1;
nodes = (
(414,621,l),
(414,414,l),
(621,414,l),
(621,621,l)
);
},
{
closed = 1;
nodes = (
(621,621,l),
(621,414,l),
(828,414,l),
(828,621,l)
);
},
{
closed = 1;
nodes = (
(828,621,l),
(828,414,l),
(1035,414,l),
(1035,621,l)
);
},
{
closed = 1;
nodes = (
(1035,621,l),
(1035,414,l),
(1242,414,l),
(1242,621,l)
);
},
{
closed = 1;
nodes = (
(1449,621,l),
(1449,414,l),
(1656,414,l),
(1656,621,l)
);
},
{
closed = 1;
nodes = (
(1656,621,l),
(1656,414,l),
(1863,414,l),
(1863,621,l)
);
},
{
closed = 1;
nodes = (
(1863,621,l),
(1863,414,l),
(2070,414,l),
(2070,621,l)
);
},
{
closed = 1;
nodes = (
(2070,621,l),
(2070,414,l),
(2277,414,l),
(2277,621,l)
);
},
{
closed = 1;
nodes = (
(2277,621,l),
(2277,414,l),
(2484,414,l),
(2484,621,l)
);
},
{
closed = 1;
nodes = (
(2484,621,l),
(2484,414,l),
(2691,414,l),
(2691,621,l)
);
},
{
closed = 1;
nodes = (
(0,828,l),
(0,621,l),
(207,621,l),
(207,828,l)
);
},
{
closed = 1;
nodes = (
(1035,621,l),
(1035,828,l),
(1035,712,o),
(944,621,o),
(828,621,c)
);
},
{
closed = 1;
nodes = (
(1035,828,l),
(1035,621,l),
(1242,621,l),
(1242,828,l)
);
},
{
closed = 1;
nodes = (
(1449,828,l),
(1449,621,l),
(1656,621,l),
(1656,828,l)
);
},
{
closed = 1;
nodes = (
(1863,621,l),
(1747,621,o),
(1656,712,o),
(1656,828,c),
(1656,621,l)
);
},
{
closed = 1;
nodes = (
(2484,828,l),
(2484,621,l),
(2691,621,l),
(2691,828,l)
);
},
{
closed = 1;
nodes = (
(0,1035,l),
(0,828,l),
(207,828,l),
(207,1035,l)
);
},
{
closed = 1;
nodes = (
(207,1035,l),
(207,828,l),
(414,828,l),
(414,1035,l)
);
},
{
closed = 1;
nodes = (
(414,1035,l),
(414,828,l),
(621,828,l),
(621,1035,l)
);
},
{
closed = 1;
nodes = (
(621,1035,l),
(621,828,l),
(828,828,l),
(828,1035,l)
);
},
{
closed = 1;
nodes = (
(828,1035,l),
(828,828,l),
(1035,828,l),
(1035,1035,l)
);
},
{
closed = 1;
nodes = (
(1035,1035,l),
(1035,828,l),
(1242,828,l),
(1242,1035,l)
);
},
{
closed = 1;
nodes = (
(1449,1035,l),
(1449,828,l),
(1656,828,l),
(1656,1035,l)
);
},
{
closed = 1;
nodes = (
(1656,1035,l),
(1656,828,l),
(1863,828,l),
(1863,1035,l)
);
},
{
closed = 1;
nodes = (
(1863,1035,l),
(1863,828,l),
(2070,828,l),
(2070,1035,l)
);
},
{
closed = 1;
nodes = (
(2070,1035,l),
(2070,828,l),
(2277,828,l),
(2277,1035,l)
);
},
{
closed = 1;
nodes = (
(2277,1035,l),
(2277,828,l),
(2484,828,l),
(2484,1035,l)
);
},
{
closed = 1;
nodes = (
(2484,1035,l),
(2484,828,l),
(2691,828,l),
(2691,1035,l)
);
},
{
closed = 1;
nodes = (
(0,1242,l),
(0,1035,l),
(207,1035,l),
(207,1242,l)
);
},
{
closed = 1;
nodes = (
(1035,1242,l),
(1035,1035,l),
(1242,1035,l),
(1242,1242,l)
);
},
{
closed = 1;
nodes = (
(1449,1242,l),
(1449,1035,l),
(1656,1035,l),
(1656,1242,l)
);
},
{
closed = 1;
nodes = (
(2484,1242,l),
(2484,1035,l),
(2691,1035,l),
(2691,1242,l)
);
},
{
closed = 1;
nodes = (
(0,1449,l),
(0,1242,l),
(207,1242,l),
(207,1449,l)
);
},
{
closed = 1;
nodes = (
(1035,1449,l),
(1035,1242,l),
(1242,1242,l),
(1242,1449,l)
);
},
{
closed = 1;
nodes = (
(1449,1449,l),
(1449,1242,l),
(1656,1242,l),
(1656,1449,l)
);
},
{
closed = 1;
nodes = (
(2484,1449,l),
(2484,1242,l),
(2691,1242,l),
(2691,1449,l)
);
},
{
closed = 1;
nodes = (
(0,1656,l),
(0,1449,l),
(207,1449,l),
(207,1656,l)
);
},
{
closed = 1;
nodes = (
(1035,1656,l),
(1035,1449,l),
(1242,1449,l),
(1242,1656,l)
);
},
{
closed = 1;
nodes = (
(1449,1656,l),
(1449,1449,l),
(1656,1449,l),
(1656,1656,l)
);
},
{
closed = 1;
nodes = (
(2484,1656,l),
(2484,1449,l),
(2691,1449,l),
(2691,1656,l)
);
},
{
closed = 1;
nodes = (
(207,1863,l),
(91,1863,o),
(0,1772,o),
(0,1656,c),
(207,1656,l)
);
},
{
closed = 1;
nodes = (
(207,1863,l),
(207,1656,l),
(414,1656,l),
(414,1863,l)
);
},
{
closed = 1;
nodes = (
(414,1656,l),
(530,1656,o),
(621,1747,o),
(621,1863,c),
(414,1863,l)
);
},
{
closed = 1;
nodes = (
(1035,1863,l),
(1035,1656,l),
(1242,1656,l),
(1242,1863,l)
);
},
{
closed = 1;
nodes = (
(1449,1863,l),
(1449,1656,l),
(1656,1656,l),
(1656,1863,l)
);
},
{
closed = 1;
nodes = (
(2277,1863,l),
(2070,1863,l),
(2070,1747,o),
(2161,1656,o),
(2277,1656,c)
);
},
{
closed = 1;
nodes = (
(2277,1863,l),
(2277,1656,l),
(2484,1656,l),
(2484,1863,l)
);
},
{
closed = 1;
nodes = (
(2484,1656,l),
(2691,1656,l),
(2691,1772,o),
(2600,1863,o),
(2484,1863,c)
);
},
{
closed = 1;
nodes = (
(414,2070,l),
(414,1863,l),
(621,1863,l),
(621,2070,l)
);
},
{
closed = 1;
nodes = (
(1035,2070,l),
(1035,1863,l),
(1242,1863,l),
(1242,2070,l)
);
},
{
closed = 1;
nodes = (
(1242,2070,l),
(1242,1863,l),
(1449,1863,l),
(1449,2070,l)
);
},
{
closed = 1;
nodes = (
(1449,2070,l),
(1449,1863,l),
(1656,1863,l),
(1656,2070,l)
);
},
{
closed = 1;
nodes = (
(2070,2070,l),
(2070,1863,l),
(2277,1863,l),
(2277,2070,l)
);
},
{
closed = 1;
nodes = (
(414,2277,l),
(414,2070,l),
(621,2070,l),
(621,2277,l)
);
},
{
closed = 1;
nodes = (
(1035,2277,l),
(828,2277,l),
(828,2161,o),
(919,2070,o),
(1035,2070,c)
);
},
{
closed = 1;
nodes = (
(1035,2070,l),
(1242,2070,l),
(1242,2186,o),
(1151,2277,o),
(1035,2277,c)
);
},
{
closed = 1;
nodes = (
(1656,2277,l),
(1540,2277,o),
(1449,2186,o),
(1449,2070,c),
(1656,2070,l)
);
},
{
closed = 1;
nodes = (
(1656,2070,l),
(1772,2070,o),
(1863,2161,o),
(1863,2277,c),
(1656,2277,l)
);
},
{
closed = 1;
nodes = (
(2070,2277,l),
(2070,2070,l),
(2277,2070,l),
(2277,2277,l)
);
},
{
closed = 1;
nodes = (
(414,2484,l),
(414,2277,l),
(621,2277,l),
(621,2484,l)
);
},
{
closed = 1;
nodes = (
(828,2484,l),
(828,2277,l),
(1035,2277,l),
(1035,2484,l)
);
},
{
closed = 1;
nodes = (
(1656,2484,l),
(1656,2277,l),
(1863,2277,l),
(1863,2484,l)
);
},
{
closed = 1;
nodes = (
(2070,2484,l),
(2070,2277,l),
(2277,2277,l),
(2277,2484,l)
);
},
{
closed = 1;
nodes = (
(414,2691,l),
(414,2484,l),
(621,2484,l),
(621,2691,l)
);
},
{
closed = 1;
nodes = (
(828,2691,l),
(828,2484,l),
(1035,2484,l),
(1035,2691,l)
);
},
{
closed = 1;
nodes = (
(1656,2691,l),
(1656,2484,l),
(1863,2484,l),
(1863,2691,l)
);
},
{
closed = 1;
nodes = (
(2070,2691,l),
(2070,2484,l),
(2277,2484,l),
(2277,2691,l)
);
},
{
closed = 1;
nodes = (
(621,2898,l),
(505,2898,o),
(414,2807,o),
(414,2691,c),
(621,2691,l)
);
},
{
closed = 1;
nodes = (
(621,2898,l),
(621,2691,l),
(828,2691,l),
(828,2898,l)
);
},
{
closed = 1;
nodes = (
(828,2898,l),
(828,2691,l),
(1035,2691,l),
(1035,2898,l)
);
},
{
closed = 1;
nodes = (
(1656,2898,l),
(1656,2691,l),
(1863,2691,l),
(1863,2898,l)
);
},
{
closed = 1;
nodes = (
(1863,2898,l),
(1863,2691,l),
(2070,2691,l),
(2070,2898,l)
);
},
{
closed = 1;
nodes = (
(2070,2691,l),
(2277,2691,l),
(2277,2807,o),
(2186,2898,o),
(2070,2898,c)
);
}
);
width = 2691;
}
);
unicode = 48;
}
{
glyphname = three;
layers = (
{
layerId = m01;
shapes = (
{
closed = 1;
nodes = (
(621,207,l),
(414,207,l),
(414,91,o),
(505,0,o),
(621,0,c)
);
},
{
closed = 1;
nodes = (
(621,207,l),
(621,0,l),
(828,0,l),
(828,207,l)
);
},
{
closed = 1;
nodes = (
(828,207,l),
(828,0,l),
(1035,0,l),
(1035,207,l)
);
},
{
closed = 1;
nodes = (
(1035,207,l),
(1035,0,l),
(1242,0,l),
(1242,207,l)
);
},
{
closed = 1;
nodes = (
(1242,207,l),
(1242,0,l),
(1449,0,l),
(1449,207,l)
);
},
{
closed = 1;
nodes = (
(1449,207,l),
(1449,0,l),
(1656,0,l),
(1656,207,l)
);
},
{
closed = 1;
nodes = (
(1656,207,l),
(1656,0,l),
(1863,0,l),
(1863,207,l)
);
},
{
closed = 1;
nodes = (
(1863,207,l),
(1863,0,l),
(2070,0,l),
(2070,207,l)
);
},
{
closed = 1;
nodes = (
(2070,207,l),
(2070,0,l),
(2277,0,l),
(2277,207,l)
);
},
{
closed = 1;
nodes = (
(2277,0,l),
(2393,0,o),
(2484,91,o),
(2484,207,c),
(2277,207,l)
);
},
{
closed = 1;
nodes = (
(621,414,l),
(505,414,o),
(414,323,o),
(414,207,c),
(621,207,l)
);
},
{
closed = 1;
nodes = (
(621,207,l),
(737,207,o),
(828,298,o),
(828,414,c),
(621,414,l)
);
},
{
closed = 1;
nodes = (
(2277,414,l),
(2070,414,l),
(2070,298,o),
(2161,207,o),
(2277,207,c)
);
},
{
closed = 1;
nodes = (
(2277,207,l),
(2484,207,l),
(2484,323,o),
(2393,414,o),
(2277,414,c)
);
},
{
closed = 1;
nodes = (
(828,621,l),
(712,621,o),
(621,530,o),
(621,414,c),
(828,414,l)
);
},
{
closed = 1;
nodes = (
(1035,621,l),
(828,621,l),
(828,505,o),
(919,414,o),
(1035,414,c)
);
},
{
closed = 1;
nodes = (
(1035,621,l),
(1035,414,l),
(1242,414,l),
(1242,621,l)
);
},
{
closed = 1;
nodes = (
(1242,621,l),
(1242,414,l),
(1449,414,l),
(1449,621,l)
);
},
{
closed = 1;
nodes = (
(1449,621,l),
(1449,414,l),
(1656,414,l),
(1656,621,l)
);
},
{
closed = 1;
nodes = (
(1656,621,l),
(1656,414,l),
(1863,414,l),
(1863,621,l)
);
},
{
closed = 1;
nodes = (
(1863,414,l),
(1979,414,o),
(2070,505,o),
(2070,621,c),
(1863,621,l)
);
},
{
closed = 1;
nodes = (
(2070,414,l),
(2277,414,l),
(2277,530,o),
(2186,621,o),
(2070,621,c)
);
},
{
closed = 1;
nodes = (
(828,828,l),
(621,828,l),
(621,712,o),
(712,621,o),
(828,621,c)
);
},
{
closed = 1;
nodes = (
(828,621,l),
(1035,621,l),
(1035,737,o),
(944,828,o),
(828,828,c)
);
},
{
closed = 1;
nodes = (
(2070,828,l),
(1954,828,o),
(1863,737,o),
(1863,621,c),
(2070,621,l)
);
},
{
closed = 1;
nodes = (
(2070,621,l),
(2186,621,o),
(2277,712,o),
(2277,828,c),
(2070,828,l)
);
},
{
closed = 1;
nodes = (
(207,1035,l),
(91,1035,o),
(0,944,o),
(0,828,c),
(207,828,l)
);
},
{
closed = 1;
nodes = (
(207,828,l),
(323,828,o),
(414,919,o),
(414,1035,c),
(207,1035,l)
);
},
{
closed = 1;
nodes = (
(621,1035,l),
(621,828,l),
(828,828,l),
(828,1035,l)
);
},
{
closed = 1;
nodes = (
(828,1035,l),
(828,828,l),
(1035,828,l),
(1035,1035,l)
);
},
{
closed = 1;
nodes = (
(1035,828,l),
(1151,828,o),
(1242,919,o),
(1242,1035,c),
(1035,1035,l)
);
},
{
closed = 1;
nodes = (
(2070,1035,l),
(2070,828,l),
(2277,828,l),
(2277,1035,l)
);
},
{
closed = 1;
nodes = (
(414,1242,l),
(298,1242,o),
(207,1151,o),
(207,1035,c),
(414,1035,l)
);
},
{
closed = 1;
nodes = (
(414,1035,l),
(530,1035,o),
(621,1126,o),
(621,1242,c),
(414,1242,l)
);
},
{
closed = 1;
nodes = (
(621,1242,l),
(621,1035,l),
(828,1035,l),
(828,1242,l)
);
},
{
closed = 1;
nodes = (
(1242,1242,l),
(1126,1242,o),
(1035,1151,o),
(1035,1035,c),
(1242,1035,l)
);
},
{
closed = 1;
nodes = (
(1242,1242,l),
(1242,1035,l),
(1449,1035,l),
(1449,1242,l)
);
},
{
closed = 1;
nodes = (
(1449,1242,l),
(1449,1035,l),
(1656,1035,l),
(1656,1242,l)
);
},
{
closed = 1;
nodes = (
(1656,1035,l),
(1772,1035,o),
(1863,1126,o),
(1863,1242,c),
(1656,1242,l)
);
},
{
closed = 1;
nodes = (
(2070,1242,l),
(2070,1035,l),
(2277,1035,l),
(2277,1242,l)
);
},
{
closed = 1;
nodes = (
(621,1449,l),
(505,1449,o),
(414,1358,o),
(414,1242,c),
(621,1242,l)
);
},
{
closed = 1;
nodes = (
(621,1449,l),
(621,1242,l),
(828,1242,l),
(828,1449,l)
);
},
{
closed = 1;
nodes = (
(1863,1449,l),
(1747,1449,o),
(1656,1358,o),
(1656,1242,c),
(1863,1242,l)
);
},
{
closed = 1;
nodes = (
(1863,1449,l),
(1863,1242,l),
(2070,1242,l),
(2070,1449,l)
);
},
{
closed = 1;
nodes = (
(2070,1449,l),
(2070,1242,l),
(2277,1242,l),
(2277,1449,l)
);
},
{
closed = 1;
nodes = (
(621,1656,l),
(621,1449,l),
(828,1449,l),
(828,1656,l)
);
},
{
closed = 1;
nodes = (
(828,1656,l),
(828,1449,l),
(1035,1449,l),
(1035,1656,l)
);
},
{
closed = 1;
nodes = (
(1035,1449,l),
(1151,1449,o),
(1242,1540,o),
(1242,1656,c),
(1035,1656,l)
);
},
{
closed = 1;
nodes = (
(2070,1656,l),
(2070,1449,l),
(2277,1449,l),
(2277,1656,l)
);
},
{
closed = 1;
nodes = (
(621,1863,l),
(621,1656,l),
(828,1656,l),
(828,1863,l)
);
},
{
closed = 1;
nodes = (
(1242,1863,l),
(1126,1863,o),
(1035,1772,o),
(1035,1656,c),
(1242,1656,l)
);
},
{
closed = 1;
nodes = (
(1242,1863,l),
(1242,1656,l),
(1449,1656,l),
(1449,1863,l)
);
},
{
closed = 1;
nodes = (
(1449,1863,l),
(1449,1656,l),
(1656,1656,l),
(1656,1863,l)
);
},
{
closed = 1;
nodes = (
(1656,1656,l),
(1772,1656,o),
(1863,1747,o),
(1863,1863,c),
(1656,1863,l)
);
},
{
closed = 1;
nodes = (
(2070,1863,l),
(2070,1656,l),
(2277,1656,l),
(2277,1863,l)
);
},
{
closed = 1;
nodes = (
(621,2070,l),
(621,1863,l),
(828,1863,l),
(828,2070,l)
);
},
{
closed = 1;
nodes = (
(1863,2070,l),
(1747,2070,o),
(1656,1979,o),
(1656,1863,c),
(1863,1863,l)
);
},
{
closed = 1;
nodes = (
(1863,2070,l),
(1863,1863,l),
(2070,1863,l),
(2070,2070,l)
);
},
{
closed = 1;
nodes = (
(2070,2070,l),
(2070,1863,l),
(2277,1863,l),
(2277,2070,l)
);
},
{
closed = 1;
nodes = (
(828,2277,l),
(712,2277,o),
(621,2186,o),
(621,2070,c),
(828,2070,l)
);
},
{
closed = 1;
nodes = (
(828,2070,l),
(944,2070,o),
(1035,2161,o),
(1035,2277,c),
(828,2277,l)
);
},
{
closed = 1;
nodes = (
(2070,2277,l),
(1863,2277,l),
(1863,2161,o),
(1954,2070,o),
(2070,2070,c)
);
},
{
closed = 1;
nodes = (
(2070,2070,l),
(2277,2070,l),
(2277,2186,o),
(2186,2277,o),
(2070,2277,c)
);
},
{
closed = 1;
nodes = (
(828,2484,l),
(621,2484,l),
(621,2368,o),
(712,2277,o),
(828,2277,c)
);
},
{
closed = 1;
nodes = (
(1035,2484,l),
(919,2484,o),
(828,2393,o),
(828,2277,c),
(1035,2277,l)
);
},
{
closed = 1;
nodes = (
(1035,2484,l),
(1035,2277,l),
(1242,2277,l),
(1242,2484,l)
);
},
{
closed = 1;
nodes = (
(1242,2484,l),
(1242,2277,l),
(1449,2277,l),
(1449,2484,l)
);
},
{
closed = 1;
nodes = (
(1449,2484,l),
(1449,2277,l),
(1656,2277,l),
(1656,2484,l)
);
},
{
closed = 1;
nodes = (
(1656,2484,l),
(1656,2277,l),
(1863,2277,l),
(1863,2484,l)
);
},
{
closed = 1;
nodes = (
(1863,2277,l),
(2070,2277,l),
(2070,2393,o),
(1979,2484,o),
(1863,2484,c)
);
},
{
closed = 1;
nodes = (
(2070,2277,l),
(2186,2277,o),
(2277,2368,o),
(2277,2484,c),
(2070,2484,l)
);
},
{
closed = 1;
nodes = (
(621,2691,l),
(414,2691,l),
(414,2575,o),
(505,2484,o),
(621,2484,c)
);
},
{
closed = 1;
nodes = (
(621,2484,l),
(828,2484,l),
(828,2600,o),
(737,2691,o),
(621,2691,c)
);
},
{
closed = 1;
nodes = (
(2277,2691,l),
(2161,2691,o),
(2070,2600,o),
(2070,2484,c),
(2277,2484,l)
);
},
{
closed = 1;
nodes = (
(2277,2484,l),
(2393,2484,o),
(2484,2575,o),
(2484,2691,c),
(2277,2691,l)
);
},
{
closed = 1;
nodes = (
(621,2898,l),
(505,2898,o),
(414,2807,o),
(414,2691,c),
(621,2691,l)
);
},
{
closed = 1;
nodes = (
(621,2898,l),
(621,2691,l),
(828,2691,l),
(828,2898,l)
);
},
{
closed = 1;
nodes = (
(828,2898,l),
(828,2691,l),
(1035,2691,l),
(1035,2898,l)
);
},
{
closed = 1;
nodes = (
(1035,2898,l),
(1035,2691,l),
(1242,2691,l),
(1242,2898,l)
);
},
{
closed = 1;
nodes = (
(1242,2898,l),
(1242,2691,l),
(1449,2691,l),
(1449,2898,l)
);
},
{
closed = 1;
nodes = (
(1449,2898,l),
(1449,2691,l),
(1656,2691,l),
(1656,2898,l)
);
},
{
closed = 1;
nodes = (
(1656,2898,l),
(1656,2691,l),
(1863,2691,l),
(1863,2898,l)
);
},
{
closed = 1;
nodes = (
(1863,2898,l),
(1863,2691,l),
(2070,2691,l),
(2070,2898,l)
);
},
{
closed = 1;
nodes = (
(2070,2898,l),
(2070,2691,l),
(2277,2691,l),
(2277,2898,l)
);
},
{
closed = 1;
nodes = (
(2277,2691,l),
(2484,2691,l),
(2484,2807,o),
(2393,2898,o),
(2277,2898,c)
);
}
);
width = 2484;
}
);
note = filo_cucito_2;
unicode = 51;
}
{
glyphname = five;
layers = (
{
layerId = m01;
shapes = (
{
closed = 1;
nodes = (
(621,207,l),
(414,207,l),
(414,91,o),
(505,0,o),
(621,0,c)
);
},
{
closed = 1;
nodes = (
(621,0,l),
(737,0,o),
(828,91,o),
(828,207,c),
(621,207,l)
);
},
{
closed = 1;
nodes = (
(1863,207,l),
(1656,207,l),
(1656,91,o),
(1747,0,o),
(1863,0,c)
);
},
{
closed = 1;
nodes = (
(1863,0,l),
(1979,0,o),
(2070,91,o),
(2070,207,c),
(1863,207,l)
);
},
{
closed = 1;
nodes = (
(414,207,l),
(621,207,l),
(621,323,o),
(530,414,o),
(414,414,c)
);
},
{
closed = 1;
nodes = (
(828,414,l),
(712,414,o),
(621,323,o),
(621,207,c),
(828,207,l)
);
},
{
closed = 1;
nodes = (
(1656,207,l),
(1863,207,l),
(1863,323,o),
(1772,414,o),
(1656,414,c)
);
},
{
closed = 1;
nodes = (
(2070,414,l),
(1954,414,o),
(1863,323,o),
(1863,207,c),
(2070,207,l)
);
},
{
closed = 1;
nodes = (
(207,621,l),
(0,621,l),
(0,505,o),
(91,414,o),
(207,414,c)
);
},
{
closed = 1;
nodes = (
(207,414,l),
(323,414,o),
(414,505,o),
(414,621,c),
(207,621,l)
);
},
{
closed = 1;
nodes = (
(621,621,l),
(414,621,l),
(414,505,o),
(505,414,o),
(621,414,c)
);
},
{
closed = 1;
nodes = (
(621,414,l),
(737,414,o),
(828,505,o),
(828,621,c),
(621,621,l)
);
},
{
closed = 1;
nodes = (
(1035,621,l),
(828,621,l),
(828,505,o),
(919,414,o),
(1035,414,c)
);
},
{
closed = 1;
nodes = (
(1035,414,l),
(1151,414,o),
(1242,505,o),
(1242,621,c),
(1035,621,l)
);
},
{
closed = 1;
nodes = (
(1449,621,l),
(1242,621,l),
(1242,505,o),
(1333,414,o),
(1449,414,c)
);
},
{
closed = 1;
nodes = (
(1449,414,l),
(1565,414,o),
(1656,505,o),
(1656,621,c),
(1449,621,l)
);
},
{
closed = 1;
nodes = (
(1863,621,l),
(1656,621,l),
(1656,505,o),
(1747,414,o),
(1863,414,c)
);
},
{
closed = 1;
nodes = (
(1863,414,l),
(1979,414,o),
(2070,505,o),
(2070,621,c),
(1863,621,l)
);
},
{
closed = 1;
nodes = (
(2277,621,l),
(2070,621,l),
(2070,505,o),
(2161,414,o),
(2277,414,c)
);
},
{
closed = 1;
nodes = (
(2277,414,l),
(2393,414,o),
(2484,505,o),
(2484,621,c),
(2277,621,l)
);
},
{
closed = 1;
nodes = (
(0,621,l),
(207,621,l),
(207,737,o),
(116,828,o),
(0,828,c)
);
},
{
closed = 1;
nodes = (
(414,828,l),
(298,828,o),
(207,737,o),
(207,621,c),
(414,621,l)
);
},
{
closed = 1;
nodes = (
(414,621,l),
(621,621,l),
(621,737,o),
(530,828,o),
(414,828,c)
);
},
{
closed = 1;
nodes = (
(828,828,l),
(712,828,o),
(621,737,o),
(621,621,c),
(828,621,l)
);
},
{
closed = 1;
nodes = (
(828,621,l),
(1035,621,l),
(1035,737,o),
(944,828,o),
(828,828,c)
);
},
{
closed = 1;
nodes = (
(1242,828,l),
(1126,828,o),
(1035,737,o),
(1035,621,c),
(1242,621,l)
);
},
{
closed = 1;
nodes = (
(1242,621,l),
(1449,621,l),
(1449,737,o),
(1358,828,o),
(1242,828,c)
);
},
{
closed = 1;
nodes = (
(1656,828,l),
(1540,828,o),
(1449,737,o),
(1449,621,c),
(1656,621,l)
);
},
{
closed = 1;
nodes = (
(1656,621,l),
(1863,621,l),
(1863,737,o),
(1772,828,o),
(1656,828,c)
);
},
{
closed = 1;
nodes = (
(2070,828,l),
(1954,828,o),
(1863,737,o),
(1863,621,c),
(2070,621,l)
);
},
{
closed = 1;
nodes = (
(2070,621,l),
(2277,621,l),
(2277,737,o),
(2186,828,o),
(2070,828,c)
);
},
{
closed = 1;
nodes = (
(2484,828,l),
(2368,828,o),
(2277,737,o),
(2277,621,c),
(2484,621,l)
);
},
{
closed = 1;
nodes = (
(207,1035,l),
(0,1035,l),
(0,919,o),
(91,828,o),
(207,828,c)
);
},
{
closed = 1;
nodes = (
(207,828,l),
(323,828,o),
(414,919,o),
(414,1035,c),
(207,1035,l)
);
},
{
closed = 1;
nodes = (
(1449,1035,l),
(1242,1035,l),
(1242,919,o),
(1333,828,o),
(1449,828,c)
);
},
{
closed = 1;
nodes = (
(1449,828,l),
(1565,828,o),
(1656,919,o),
(1656,1035,c),
(1449,1035,l)
);
},
{
closed = 1;
nodes = (
(2277,1035,l),
(2070,1035,l),
(2070,919,o),
(2161,828,o),
(2277,828,c)
);
},
{
closed = 1;
nodes = (
(2277,828,l),
(2393,828,o),
(2484,919,o),
(2484,1035,c),
(2277,1035,l)
);
},
{
closed = 1;
nodes = (
(0,1035,l),
(207,1035,l),
(207,1151,o),
(116,1242,o),
(0,1242,c)
);
},
{
closed = 1;
nodes = (
(414,1242,l),
(298,1242,o),
(207,1151,o),
(207,1035,c),
(414,1035,l)
);
},
{
closed = 1;
nodes = (
(1242,1035,l),
(1449,1035,l),
(1449,1151,o),
(1358,1242,o),
(1242,1242,c)
);
},
{
closed = 1;
nodes = (
(1656,1242,l),
(1540,1242,o),
(1449,1151,o),
(1449,1035,c),
(1656,1035,l)
);
},
{
closed = 1;
nodes = (
(2070,1035,l),
(2277,1035,l),
(2277,1151,o),
(2186,1242,o),
(2070,1242,c)
);
},
{
closed = 1;
nodes = (
(2484,1242,l),
(2368,1242,o),
(2277,1151,o),
(2277,1035,c),
(2484,1035,l)
);
},
{
closed = 1;
nodes = (
(207,1449,l),
(0,1449,l),
(0,1333,o),
(91,1242,o),
(207,1242,c)
);
},
{
closed = 1;
nodes = (
(207,1242,l),
(323,1242,o),
(414,1333,o),
(414,1449,c),
(207,1449,l)
);
},
{
closed = 1;
nodes = (
(621,1449,l),
(414,1449,l),
(414,1333,o),
(505,1242,o),
(621,1242,c)
);
},
{
closed = 1;
nodes = (
(621,1242,l),
(737,1242,o),
(828,1333,o),
(828,1449,c),
(621,1449,l)
);
},
{
closed = 1;
nodes = (
(1035,1449,l),
(828,1449,l),
(828,1333,o),
(919,1242,o),
(1035,1242,c)
);
},
{
closed = 1;
nodes = (
(1035,1242,l),
(1151,1242,o),
(1242,1333,o),
(1242,1449,c),
(1035,1449,l)
);
},
{
closed = 1;
nodes = (
(1449,1449,l),
(1242,1449,l),
(1242,1333,o),
(1333,1242,o),
(1449,1242,c)
);
},
{
closed = 1;
nodes = (
(1449,1242,l),
(1565,1242,o),
(1656,1333,o),
(1656,1449,c),
(1449,1449,l)
);
},
{
closed = 1;
nodes = (
(1863,1449,l),
(1656,1449,l),
(1656,1333,o),
(1747,1242,o),
(1863,1242,c)
);
},
{
closed = 1;
nodes = (
(1863,1242,l),
(1979,1242,o),
(2070,1333,o),
(2070,1449,c),
(1863,1449,l)
);
},
{
closed = 1;
nodes = (
(2277,1449,l),
(2070,1449,l),
(2070,1333,o),
(2161,1242,o),
(2277,1242,c)
);
},
{
closed = 1;
nodes = (
(2277,1242,l),
(2393,1242,o),
(2484,1333,o),
(2484,1449,c),
(2277,1449,l)
);
},
{
closed = 1;
nodes = (
(0,1449,l),
(207,1449,l),
(207,1565,o),
(116,1656,o),
(0,1656,c)
);
},
{
closed = 1;
nodes = (
(414,1656,l),
(298,1656,o),
(207,1565,o),
(207,1449,c),
(414,1449,l)
);
},
{
closed = 1;
nodes = (
(414,1449,l),
(621,1449,l),
(621,1565,o),
(530,1656,o),
(414,1656,c)
);
},
{
closed = 1;
nodes = (
(828,1656,l),
(712,1656,o),
(621,1565,o),
(621,1449,c),
(828,1449,l)
);
},
{
closed = 1;
nodes = (
(828,1449,l),
(1035,1449,l),
(1035,1565,o),
(944,1656,o),
(828,1656,c)
);
},
{
closed = 1;
nodes = (
(1242,1656,l),
(1126,1656,o),
(1035,1565,o),
(1035,1449,c),
(1242,1449,l)
);
},
{
closed = 1;
nodes = (
(1242,1449,l),
(1449,1449,l),
(1449,1565,o),
(1358,1656,o),
(1242,1656,c)
);
},
{
closed = 1;
nodes = (
(1656,1656,l),
(1540,1656,o),
(1449,1565,o),
(1449,1449,c),
(1656,1449,l)
);
},
{
closed = 1;
nodes = (
(1656,1449,l),
(1863,1449,l),
(1863,1565,o),
(1772,1656,o),
(1656,1656,c)
);
},
{
closed = 1;
nodes = (
(2070,1656,l),
(1954,1656,o),
(1863,1565,o),
(1863,1449,c),
(2070,1449,l)
);
},
{
closed = 1;
nodes = (
(2070,1449,l),
(2277,1449,l),
(2277,1565,o),
(2186,1656,o),
(2070,1656,c)
);
},
{
closed = 1;
nodes = (
(2484,1656,l),
(2368,1656,o),
(2277,1565,o),
(2277,1449,c),
(2484,1449,l)
);
},
{
closed = 1;
nodes = (
(621,1863,l),
(414,1863,l),
(414,1747,o),
(505,1656,o),
(621,1656,c)
);
},
{
closed = 1;
nodes = (
(621,1656,l),
(737,1656,o),
(828,1747,o),
(828,1863,c),
(621,1863,l)
);
},
{
closed = 1;
nodes = (
(1863,1863,l),
(1656,1863,l),
(1656,1747,o),
(1747,1656,o),
(1863,1656,c)
);
},
{
closed = 1;
nodes = (
(1863,1656,l),
(1979,1656,o),
(2070,1747,o),
(2070,1863,c),
(1863,1863,l)
);
},
{
closed = 1;
nodes = (
(414,1863,l),
(621,1863,l),
(621,1979,o),
(530,2070,o),
(414,2070,c)
);
},
{
closed = 1;
nodes = (
(828,2070,l),
(712,2070,o),
(621,1979,o),
(621,1863,c),
(828,1863,l)
);
},
{
closed = 1;
nodes = (
(1656,1863,l),
(1863,1863,l),
(1863,1979,o),
(1772,2070,o),
(1656,2070,c)
);
},
{
closed = 1;
nodes = (
(2070,2070,l),
(1954,2070,o),
(1863,1979,o),
(1863,1863,c),
(2070,1863,l)
);
},
{
closed = 1;
nodes = (
(207,2277,l),
(0,2277,l),
(0,2161,o),
(91,2070,o),
(207,2070,c)
);
},
{
closed = 1;
nodes = (
(207,2070,l),
(323,2070,o),
(414,2161,o),
(414,2277,c),
(207,2277,l)
);
},
{
closed = 1;
nodes = (
(621,2277,l),
(414,2277,l),
(414,2161,o),
(505,2070,o),
(621,2070,c)
);
},
{
closed = 1;
nodes = (
(621,2070,l),
(737,2070,o),
(828,2161,o),
(828,2277,c),
(621,2277,l)
);
},
{
closed = 1;
nodes = (
(1035,2277,l),
(828,2277,l),
(828,2161,o),
(919,2070,o),
(1035,2070,c)
);
},
{
closed = 1;
nodes = (
(1035,2070,l),
(1151,2070,o),
(1242,2161,o),
(1242,2277,c),
(1035,2277,l)
);
},
{
closed = 1;
nodes = (
(1449,2277,l),
(1242,2277,l),
(1242,2161,o),
(1333,2070,o),
(1449,2070,c)
);
},
{
closed = 1;
nodes = (
(1449,2070,l),
(1565,2070,o),
(1656,2161,o),
(1656,2277,c),
(1449,2277,l)
);
},
{
closed = 1;
nodes = (
(1863,2277,l),
(1656,2277,l),
(1656,2161,o),
(1747,2070,o),
(1863,2070,c)
);
},
{
closed = 1;
nodes = (
(1863,2070,l),
(1979,2070,o),
(2070,2161,o),
(2070,2277,c),
(1863,2277,l)
);
},
{
closed = 1;
nodes = (
(2277,2277,l),
(2070,2277,l),
(2070,2161,o),
(2161,2070,o),
(2277,2070,c)
);
},
{
closed = 1;
nodes = (
(2277,2070,l),
(2393,2070,o),
(2484,2161,o),
(2484,2277,c),
(2277,2277,l)
);
},
{
closed = 1;
nodes = (
(0,2277,l),
(207,2277,l),
(207,2393,o),
(116,2484,o),
(0,2484,c)
);
},
{
closed = 1;
nodes = (
(414,2484,l),
(298,2484,o),
(207,2393,o),
(207,2277,c),
(414,2277,l)
);
},
{
closed = 1;
nodes = (
(414,2277,l),
(621,2277,l),
(621,2393,o),
(530,2484,o),
(414,2484,c)
);
},
{
closed = 1;
nodes = (
(828,2484,l),
(712,2484,o),
(621,2393,o),
(621,2277,c),
(828,2277,l)
);
},
{
closed = 1;
nodes = (
(828,2277,l),
(1035,2277,l),
(1035,2393,o),
(944,2484,o),
(828,2484,c)
);
},
{
closed = 1;
nodes = (
(1242,2484,l),
(1126,2484,o),
(1035,2393,o),
(1035,2277,c),
(1242,2277,l)
);
},
{
closed = 1;
nodes = (
(1242,2277,l),
(1449,2277,l),
(1449,2393,o),
(1358,2484,o),
(1242,2484,c)
);
},
{
closed = 1;
nodes = (
(1656,2484,l),
(1540,2484,o),
(1449,2393,o),
(1449,2277,c),
(1656,2277,l)
);
},
{
closed = 1;
nodes = (
(1656,2277,l),
(1863,2277,l),
(1863,2393,o),
(1772,2484,o),
(1656,2484,c)
);
},
{
closed = 1;
nodes = (
(2070,2484,l),
(1954,2484,o),
(1863,2393,o),
(1863,2277,c),
(2070,2277,l)
);
},
{
closed = 1;
nodes = (
(2070,2277,l),
(2277,2277,l),
(2277,2393,o),
(2186,2484,o),
(2070,2484,c)
);
},
{
closed = 1;
nodes = (
(2484,2484,l),
(2368,2484,o),
(2277,2393,o),
(2277,2277,c),
(2484,2277,l)
);
},
{
closed = 1;
nodes = (
(207,2691,l),
(0,2691,l),
(0,2575,o),
(91,2484,o),
(207,2484,c)
);
},
{
closed = 1;
nodes = (
(207,2484,l),
(323,2484,o),
(414,2575,o),
(414,2691,c),
(207,2691,l)
);
},
{
closed = 1;
nodes = (
(1035,2691,l),
(828,2691,l),
(828,2575,o),
(919,2484,o),
(1035,2484,c)
);
},
{
closed = 1;
nodes = (
(1035,2484,l),
(1151,2484,o),
(1242,2575,o),
(1242,2691,c),
(1035,2691,l)
);
},
{
closed = 1;
nodes = (
(2277,2691,l),
(2070,2691,l),
(2070,2575,o),
(2161,2484,o),
(2277,2484,c)
);
},
{
closed = 1;
nodes = (
(2277,2484,l),
(2393,2484,o),
(2484,2575,o),
(2484,2691,c),
(2277,2691,l)
);
},
{
closed = 1;
nodes = (
(0,2691,l),
(207,2691,l),
(207,2807,o),
(116,2898,o),
(0,2898,c)
);
},
{
closed = 1;
nodes = (
(414,2898,l),
(298,2898,o),
(207,2807,o),
(207,2691,c),
(414,2691,l)
);
},
{
closed = 1;
nodes = (
(828,2691,l),
(1035,2691,l),
(1035,2807,o),
(944,2898,o),
(828,2898,c)
);
},
{
closed = 1;
nodes = (
(1242,2898,l),
(1126,2898,o),
(1035,2807,o),
(1035,2691,c),
(1242,2691,l)
);
},
{
closed = 1;
nodes = (
(2070,2691,l),
(2277,2691,l),
(2277,2807,o),
(2186,2898,o),
(2070,2898,c)
);
},
{
closed = 1;
nodes = (
(2484,2898,l),
(2368,2898,o),
(2277,2807,o),
(2277,2691,c),
(2484,2691,l)
);
}
);
width = 2484;
}
);
note = 0.natura_2;
unicode = 53;
}
{
glyphname = less;
layers = (
{
layerId = m01;
shapes = (
{
closed = 1;
nodes = (
(1242,207,l),
(1035,207,l),
(1035,91,o),
(1126,0,o),
(1242,0,c)
);
},
{
closed = 1;
nodes = (
(1242,0,l),
(1358,0,o),
(1449,91,o),
(1449,207,c),
(1242,207,l)
);
},
{
closed = 1;
nodes = (
(1035,414,l),
(828,414,l),
(828,298,o),
(919,207,o),
(1035,207,c)
);
},
{
closed = 1;
nodes = (
(1242,207,l),
(1126,207,o),
(1035,298,o),
(1035,414,c),
(1035,207,l)
);
},
{
closed = 1;
nodes = (
(1449,207,l),
(1449,414,l),
(1449,298,o),
(1358,207,o),
(1242,207,c)
);
},
{
closed = 1;
nodes = (
(1449,207,l),
(1565,207,o),
(1656,298,o),
(1656,414,c),
(1449,414,l)
);
},
{
closed = 1;
nodes = (
(828,621,l),
(621,621,l),
(621,505,o),
(712,414,o),
(828,414,c)
);
},
{
closed = 1;
nodes = (
(828,414,l),
(1035,414,l),
(1035,530,o),
(944,621,o),
(828,621,c)
);
},
{
closed = 1;
nodes = (
(1656,621,l),
(1540,621,o),
(1449,530,o),
(1449,414,c),
(1656,414,l)
);
},
{
closed = 1;
nodes = (
(1656,414,l),
(1772,414,o),
(1863,505,o),
(1863,621,c),
(1656,621,l)
);
},
{
closed = 1;
nodes = (
(621,828,l),
(414,828,l),
(414,712,o),
(505,621,o),
(621,621,c)
);
},
{
closed = 1;
nodes = (
(621,621,l),
(828,621,l),
(828,737,o),
(737,828,o),
(621,828,c)
);
},
{
closed = 1;
nodes = (
(1242,828,l),
(1035,828,l),
(1035,712,o),
(1126,621,o),
(1242,621,c)
);
},
{
closed = 1;
nodes = (
(1242,621,l),
(1358,621,o),
(1449,712,o),
(1449,828,c),
(1242,828,l)
);
},
{
closed = 1;
nodes = (
(1863,828,l),
(1747,828,o),
(1656,737,o),
(1656,621,c),
(1863,621,l)
);
},
{
closed = 1;
nodes = (
(1863,621,l),
(1979,621,o),
(2070,712,o),
(2070,828,c),
(1863,828,l)
);
},
{
closed = 1;
nodes = (
(414,1035,l),
(207,1035,l),
(207,919,o),
(298,828,o),
(414,828,c)
);
},
{
closed = 1;
nodes = (
(414,828,l),
(621,828,l),
(621,944,o),
(530,1035,o),
(414,1035,c)
);
},
{
closed = 1;
nodes = (
(1035,1035,l),
(828,1035,l),
(828,919,o),
(919,828,o),
(1035,828,c)
);
},
{
closed = 1;
nodes = (
(1035,828,l),
(1242,828,l),
(1242,944,o),
(1151,1035,o),
(1035,1035,c)
);
},
{
closed = 1;
nodes = (
(1449,1035,l),
(1333,1035,o),
(1242,944,o),
(1242,828,c),
(1449,828,l)
);
},
{
closed = 1;
nodes = (
(1449,828,l),
(1565,828,o),
(1656,919,o),
(1656,1035,c),
(1449,1035,l)
);
},
{
closed = 1;
nodes = (
(2070,1035,l),
(1954,1035,o),
(1863,944,o),
(1863,828,c),
(2070,828,l)
);
},
{
closed = 1;
nodes = (
(2070,828,l),
(2186,828,o),
(2277,919,o),
(2277,1035,c),
(2070,1035,l)
);
},
{
closed = 1;
nodes = (
(207,1242,l),
(0,1242,l),
(0,1126,o),
(91,1035,o),
(207,1035,c)
);
},
{
closed = 1;
nodes = (
(207,1035,l),
(414,1035,l),
(414,1151,o),
(323,1242,o),
(207,1242,c)
);
},
{
closed = 1;
nodes = (
(828,1242,l),
(621,1242,l),
(621,1126,o),
(712,1035,o),
(828,1035,c)
);
},
{
closed = 1;
nodes = (
(828,1035,l),
(1035,1035,l),
(1035,1151,o),
(944,1242,o),
(828,1242,c)
);
},
{
closed = 1;
nodes = (
(1656,1242,l),
(1540,1242,o),
(1449,1151,o),
(1449,1035,c),
(1656,1035,l)
);
},
{
closed = 1;
nodes = (
(1656,1035,l),
(1772,1035,o),
(1863,1126,o),
(1863,1242,c),
(1656,1242,l)
);
},
{
closed = 1;
nodes = (
(2277,1242,l),
(2161,1242,o),
(2070,1151,o),
(2070,1035,c),
(2277,1035,l)
);
},
{
closed = 1;
nodes = (
(2277,1035,l),
(2393,1035,o),
(2484,1126,o),
(2484,1242,c),
(2277,1242,l)
);
},
{
closed = 1;
nodes = (
(0,1449,l),
(0,1242,l),
(207,1242,l),
(207,1449,l)
);
},
{
closed = 1;
nodes = (
(621,1449,l),
(414,1449,l),
(414,1333,o),
(505,1242,o),
(621,1242,c)
);
},
{
closed = 1;
nodes = (
(621,1242,l),
(828,1242,l),
(828,1358,o),
(737,1449,o),
(621,1449,c)
);
},
{
closed = 1;
nodes = (
(1863,1449,l),
(1747,1449,o),
(1656,1358,o),
(1656,1242,c),
(1863,1242,l)
);
},
{
closed = 1;
nodes = (
(1863,1242,l),
(1979,1242,o),
(2070,1333,o),
(2070,1449,c),
(1863,1449,l)
);
},
{
closed = 1;
nodes = (
(2484,1449,l),
(2368,1449,o),
(2277,1358,o),
(2277,1242,c),
(2484,1242,l)
);
},
{
closed = 1;
nodes = (
(2484,1242,l),
(2600,1242,o),
(2691,1333,o),
(2691,1449,c),
(2484,1449,l)
);
},
{
closed = 1;
nodes = (
(207,1656,l),
(91,1656,o),
(0,1565,o),
(0,1449,c),
(207,1449,l)
);
},
{
closed = 1;
nodes = (
(207,1656,l),
(207,1449,l),
(414,1449,l),
(414,1656,l)
);
},
{
closed = 1;
nodes = (
(414,1449,l),
(621,1449,l),
(621,1565,o),
(530,1656,o),
(414,1656,c)
);
},
{
closed = 1;
nodes = (
(2070,1656,l),
(1954,1656,o),
(1863,1565,o),
(1863,1449,c),
(2070,1449,l)
);
},
{
closed = 1;
nodes = (
(2070,1449,l),
(2186,1449,o),
(2277,1540,o),
(2277,1656,c),
(2070,1656,l)
);
},
{
closed = 1;
nodes = (
(2691,1656,l),
(2575,1656,o),
(2484,1565,o),
(2484,1449,c),
(2691,1449,l)
);
},
{
closed = 1;
nodes = (
(2691,1449,l),
(2807,1449,o),
(2898,1540,o),
(2898,1656,c),
(2691,1656,l)
);
},
{
closed = 1;
nodes = (
(2277,1863,l),
(2161,1863,o),
(2070,1772,o),
(2070,1656,c),
(2277,1656,l)
);
},
{
closed = 1;
nodes = (
(2277,1656,l),
(2393,1656,o),
(2484,1747,o),
(2484,1863,c),
(2277,1863,l)
);
},
{
closed = 1;
nodes = (
(2898,1863,l),
(2782,1863,o),
(2691,1772,o),
(2691,1656,c),
(2898,1656,l)
);
},
{
closed = 1;
nodes = (
(2898,1656,l),
(3014,1656,o),
(3105,1747,o),
(3105,1863,c),
(2898,1863,l)
);
},
{
closed = 1;
nodes = (
(2484,2070,l),
(2368,2070,o),
(2277,1979,o),
(2277,1863,c),
(2484,1863,l)
);
},
{
closed = 1;
nodes = (
(2484,1863,l),
(2600,1863,o),
(2691,1954,o),
(2691,2070,c),
(2484,2070,l)
);
},
{
closed = 1;
nodes = (
(3105,2070,l),
(2989,2070,o),
(2898,1979,o),
(2898,1863,c),
(3105,1863,l)
);
},
{
closed = 1;
nodes = (
(3105,1863,l),
(3221,1863,o),
(3312,1954,o),
(3312,2070,c),
(3105,2070,l)
);
},
{
closed = 1;
nodes = (
(2691,2277,l),
(2575,2277,o),
(2484,2186,o),
(2484,2070,c),
(2691,2070,l)
);
},
{
closed = 1;
nodes = (
(2691,2070,l),
(2807,2070,o),
(2898,2161,o),
(2898,2277,c),
(2691,2277,l)
);
},
{
closed = 1;
nodes = (
(3312,2277,l),
(3196,2277,o),
(3105,2186,o),
(3105,2070,c),
(3312,2070,l)
);
},
{
closed = 1;
nodes = (
(3312,2070,l),
(3428,2070,o),
(3519,2161,o),
(3519,2277,c),
(3312,2277,l)
);
},
{
closed = 1;
nodes = (
(2898,2484,l),
(2782,2484,o),
(2691,2393,o),
(2691,2277,c),
(2898,2277,l)
);
},
{
closed = 1;
nodes = (
(2898,2277,l),
(3014,2277,o),
(3105,2368,o),
(3105,2484,c),
(2898,2484,l)
);
},
{
closed = 1;
nodes = (
(3519,2484,l),
(3403,2484,o),
(3312,2393,o),
(3312,2277,c),
(3519,2277,l)
);
},
{
closed = 1;
nodes = (
(3519,2277,l),
(3635,2277,o),
(3726,2368,o),
(3726,2484,c),
(3519,2484,l)
);
},
{
closed = 1;
nodes = (
(3105,2691,l),
(2989,2691,o),
(2898,2600,o),
(2898,2484,c),
(3105,2484,l)
);
},
{
closed = 1;
nodes = (
(3105,2484,l),
(3221,2484,o),
(3312,2575,o),
(3312,2691,c),
(3105,2691,l)
);
},
{
closed = 1;
nodes = (
(3519,2691,l),
(3519,2484,l),
(3726,2484,l),
(3726,2691,l)
);
},
{
closed = 1;
nodes = (
(3312,2898,l),
(3196,2898,o),
(3105,2807,o),
(3105,2691,c),
(3312,2691,l)
);
},
{
closed = 1;
nodes = (
(3312,2898,l),
(3312,2691,l),
(3519,2691,l),
(3519,2898,l)
);
},
{
closed = 1;
nodes = (
(3519,2691,l),
(3726,2691,l),
(3726,2807,o),
(3635,2898,o),
(3519,2898,c)
);
}
);
width = 3726;
}
);
unicode = 60;
}
{
glyphname = at;
layers = (
{
layerId = m01;
shapes = (
{
closed = 1;
nodes = (
(414,207,l),
(207,207,l),
(207,91,o),
(298,0,o),
(414,0,c)
);
},
{
closed = 1;
nodes = (
(414,207,l),
(414,0,l),
(621,0,l),
(621,207,l)
);
},
{
closed = 1;
nodes = (
(621,207,l),
(621,0,l),
(828,0,l),
(828,207,l)
);
},
{
closed = 1;
nodes = (
(828,207,l),
(828,0,l),
(1035,0,l),
(1035,207,l)
);
},
{
closed = 1;
nodes = (
(1035,207,l),
(1035,0,l),
(1242,0,l),
(1242,207,l)
);
},
{
closed = 1;
nodes = (
(1242,207,l),
(1242,0,l),
(1449,0,l),
(1449,207,l)
);
},
{
closed = 1;
nodes = (
(1449,207,l),
(1449,0,l),
(1656,0,l),
(1656,207,l)
);
},
{
closed = 1;
nodes = (
(1656,207,l),
(1656,0,l),
(1863,0,l),
(1863,207,l)
);
},
{
closed = 1;
nodes = (
(1863,207,l),
(1863,0,l),
(2070,0,l),
(2070,207,l)
);
},
{
closed = 1;
nodes = (
(2070,0,l),
(2186,0,o),
(2277,91,o),
(2277,207,c),
(2070,207,l)
);
},
{
closed = 1;
nodes = (
(207,414,l),
(0,414,l),
(0,298,o),
(91,207,o),
(207,207,c)
);
},
{
closed = 1;
nodes = (
(207,207,l),
(323,207,o),
(414,298,o),
(414,414,c),
(207,414,l)
);
},
{
closed = 1;
nodes = (
(2277,414,l),
(2070,414,l),
(2070,298,o),
(2161,207,o),
(2277,207,c)
);
},
{
closed = 1;
nodes = (
(2277,207,l),
(2393,207,o),
(2484,298,o),
(2484,414,c),
(2277,414,l)
);
},
{
closed = 1;
nodes = (
(207,621,l),
(91,621,o),
(0,530,o),
(0,414,c),
(207,414,l)
);
},
{
closed = 1;
nodes = (
(207,621,l),
(207,414,l),
(414,414,l),
(414,621,l)
);
},
{
closed = 1;
nodes = (
(414,621,l),
(414,414,l),
(621,414,l),
(621,621,l)
);
},
{
closed = 1;
nodes = (
(621,621,l),
(621,414,l),
(828,414,l),
(828,621,l)
);
},
{
closed = 1;
nodes = (
(828,621,l),
(828,414,l),
(1035,414,l),
(1035,621,l)
);
},
{
closed = 1;
nodes = (
(1035,621,l),
(1035,414,l),
(1242,414,l),
(1242,621,l)
);
},
{
closed = 1;
nodes = (
(1242,621,l),
(1242,414,l),
(1449,414,l),
(1449,621,l)
);
},
{
closed = 1;
nodes = (
(1449,621,l),
(1449,414,l),
(1656,414,l),
(1656,621,l)
);
},
{
closed = 1;
nodes = (
(1656,621,l),
(1656,414,l),
(1863,414,l),
(1863,621,l)
);
},
{
closed = 1;
nodes = (
(1863,621,l),
(1863,414,l),
(2070,414,l),
(2070,621,l)
);
},
{
closed = 1;
nodes = (
(2070,621,l),
(2070,414,l),
(2277,414,l),
(2277,621,l)
);
},
{
closed = 1;
nodes = (
(2277,414,l),
(2484,414,l),
(2484,530,o),
(2393,621,o),
(2277,621,c)
);
},
{
closed = 1;
nodes = (
(414,828,l),
(207,828,l),
(207,712,o),
(298,621,o),
(414,621,c)
);
},
{
closed = 1;
nodes = (
(414,621,l),
(530,621,o),
(621,712,o),
(621,828,c),
(414,828,l)
);
},
{
closed = 1;
nodes = (
(2070,828,l),
(1863,828,l),
(1863,712,o),
(1954,621,o),
(2070,621,c)
);
},
{
closed = 1;
nodes = (
(2070,621,l),
(2186,621,o),
(2277,712,o),
(2277,828,c),
(2070,828,l)
);
},
{
closed = 1;
nodes = (
(414,1035,l),
(298,1035,o),
(207,944,o),
(207,828,c),
(414,828,l)
);
},
{
closed = 1;
nodes = (
(414,1035,l),
(414,828,l),
(621,828,l),
(621,1035,l)
);
},
{
closed = 1;
nodes = (
(621,1035,l),
(621,828,l),
(828,828,l),
(828,1035,l)
);
},
{
closed = 1;
nodes = (
(828,1035,l),
(828,828,l),
(1035,828,l),
(1035,1035,l)
);
},
{
closed = 1;
nodes = (
(1035,1035,l),
(1035,828,l),
(1242,828,l),
(1242,1035,l)
);
},
{
closed = 1;
nodes = (
(1242,1035,l),
(1242,828,l),
(1449,828,l),
(1449,1035,l)
);
},
{
closed = 1;
nodes = (
(1449,1035,l),
(1449,828,l),
(1656,828,l),
(1656,1035,l)
);
},
{
closed = 1;
nodes = (
(1656,1035,l),
(1656,828,l),
(1863,828,l),
(1863,1035,l)
);
},
{
closed = 1;
nodes = (
(1863,1035,l),
(1863,828,l),
(2070,828,l),
(2070,1035,l)
);
},
{
closed = 1;
nodes = (
(2070,828,l),
(2277,828,l),
(2277,944,o),
(2186,1035,o),
(2070,1035,c)
);
},
{
closed = 1;
nodes = (
(621,1242,l),
(414,1242,l),
(414,1126,o),
(505,1035,o),
(621,1035,c)
);
},
{
closed = 1;
nodes = (
(621,1035,l),
(737,1035,o),
(828,1126,o),
(828,1242,c),
(621,1242,l)
);
},
{
closed = 1;
nodes = (
(1863,1242,l),
(1656,1242,l),
(1656,1126,o),
(1747,1035,o),
(1863,1035,c)
);
},
{
closed = 1;
nodes = (
(1863,1035,l),
(1979,1035,o),
(2070,1126,o),
(2070,1242,c),
(1863,1242,l)
);
},
{
closed = 1;
nodes = (
(621,1449,l),
(505,1449,o),
(414,1358,o),
(414,1242,c),
(621,1242,l)
);
},
{
closed = 1;
nodes = (
(621,1449,l),
(621,1242,l),
(828,1242,l),
(828,1449,l)
);
},
{
closed = 1;
nodes = (
(828,1449,l),
(828,1242,l),
(1035,1242,l),
(1035,1449,l)
);
},
{
closed = 1;
nodes = (
(1035,1449,l),
(1035,1242,l),
(1242,1242,l),
(1242,1449,l)
);
},
{
closed = 1;
nodes = (
(1242,1449,l),
(1242,1242,l),
(1449,1242,l),
(1449,1449,l)
);
},
{
closed = 1;
nodes = (
(1449,1449,l),
(1449,1242,l),
(1656,1242,l),
(1656,1449,l)
);
},
{
closed = 1;
nodes = (
(1656,1449,l),
(1656,1242,l),
(1863,1242,l),
(1863,1449,l)
);
},
{
closed = 1;
nodes = (
(1863,1242,l),
(2070,1242,l),
(2070,1358,o),
(1979,1449,o),
(1863,1449,c)
);
},
{
closed = 1;
nodes = (
(1035,1656,l),
(828,1656,l),
(828,1540,o),
(919,1449,o),
(1035,1449,c)
);
},
{
closed = 1;
nodes = (
(1035,1449,l),
(1242,1449,l),
(1242,1565,o),
(1151,1656,o),
(1035,1656,c)
);
},
{
closed = 1;
nodes = (
(1449,1656,l),
(1333,1656,o),
(1242,1565,o),
(1242,1449,c),
(1449,1449,l)
);
},
{
closed = 1;
nodes = (
(1449,1449,l),
(1565,1449,o),
(1656,1540,o),
(1656,1656,c),
(1449,1656,l)
);
},
{
closed = 1;
nodes = (
(0,1656,l),
(116,1656,o),
(207,1747,o),
(207,1863,c),
(0,1863,l)
);
},
{
closed = 1;
nodes = (
(828,1863,l),
(621,1863,l),
(621,1747,o),
(712,1656,o),
(828,1656,c)
);
},
{
closed = 1;
nodes = (
(828,1656,l),
(1035,1656,l),
(1035,1772,o),
(944,1863,o),
(828,1863,c)
);
},
{
closed = 1;
nodes = (
(1656,1863,l),
(1540,1863,o),
(1449,1772,o),
(1449,1656,c),
(1656,1656,l)
);
},
{
closed = 1;
nodes = (
(1656,1656,l),
(1772,1656,o),
(1863,1747,o),
(1863,1863,c),
(1656,1863,l)
);
},
{
closed = 1;
nodes = (
(2484,1863,l),
(2277,1863,l),
(2277,1747,o),
(2368,1656,o),
(2484,1656,c)
);
},
{
closed = 1;
nodes = (
(207,2070,l),
(91,2070,o),
(0,1979,o),
(0,1863,c),
(207,1863,l)
);
},
{
closed = 1;
nodes = (
(207,1863,l),
(323,1863,o),
(414,1954,o),
(414,2070,c),
(207,2070,l)
);
},
{
closed = 1;
nodes = (
(621,2070,l),
(414,2070,l),
(414,1954,o),
(505,1863,o),
(621,1863,c)
);
},
{
closed = 1;
nodes = (
(621,1863,l),
(828,1863,l),
(828,1979,o),
(737,2070,o),
(621,2070,c)
);
},
{
closed = 1;
nodes = (
(1242,2070,l),
(1035,2070,l),
(1035,1954,o),
(1126,1863,o),
(1242,1863,c)
);
},
{
closed = 1;
nodes = (
(1242,1863,l),
(1358,1863,o),
(1449,1954,o),
(1449,2070,c),
(1242,2070,l)
);
},
{
closed = 1;
nodes = (
(1863,2070,l),
(1747,2070,o),
(1656,1979,o),
(1656,1863,c),
(1863,1863,l)
);
},
{
closed = 1;
nodes = (
(1863,1863,l),
(1979,1863,o),
(2070,1954,o),
(2070,2070,c),
(1863,2070,l)
);
},
{
closed = 1;
nodes = (
(2277,2070,l),
(2070,2070,l),
(2070,1954,o),
(2161,1863,o),
(2277,1863,c)
);
},
{
closed = 1;
nodes = (
(2277,1863,l),
(2484,1863,l),
(2484,1979,o),
(2393,2070,o),
(2277,2070,c)
);
},
{
closed = 1;
nodes = (
(1035,2277,l),
(828,2277,l),
(828,2161,o),
(919,2070,o),
(1035,2070,c)
);
},
{
closed = 1;
nodes = (
(1035,2070,l),
(1242,2070,l),
(1242,2186,o),
(1151,2277,o),
(1035,2277,c)
);
},
{
closed = 1;
nodes = (
(1449,2277,l),
(1333,2277,o),
(1242,2186,o),
(1242,2070,c),
(1449,2070,l)
);
},
{
closed = 1;
nodes = (
(1449,2070,l),
(1565,2070,o),
(1656,2161,o),
(1656,2277,c),
(1449,2277,l)
);
},
{
closed = 1;
nodes = (
(0,2277,l),
(116,2277,o),
(207,2368,o),
(207,2484,c),
(0,2484,l)
);
},
{
closed = 1;
nodes = (
(828,2484,l),
(621,2484,l),
(621,2368,o),
(712,2277,o),
(828,2277,c)
);
},
{
closed = 1;
nodes = (
(828,2277,l),
(1035,2277,l),
(1035,2393,o),
(944,2484,o),
(828,2484,c)
);
},
{
closed = 1;
nodes = (
(1656,2484,l),
(1540,2484,o),
(1449,2393,o),
(1449,2277,c),
(1656,2277,l)
);
},
{
closed = 1;
nodes = (
(1656,2277,l),
(1772,2277,o),
(1863,2368,o),
(1863,2484,c),
(1656,2484,l)
);
},
{
closed = 1;
nodes = (
(2484,2484,l),
(2277,2484,l),
(2277,2368,o),
(2368,2277,o),
(2484,2277,c)
);
},
{
closed = 1;
nodes = (
(207,2691,l),
(91,2691,o),
(0,2600,o),
(0,2484,c),
(207,2484,l)
);
},
{
closed = 1;
nodes = (
(207,2484,l),
(323,2484,o),
(414,2575,o),
(414,2691,c),
(207,2691,l)
);
},
{
closed = 1;
nodes = (
(621,2691,l),
(414,2691,l),
(414,2575,o),
(505,2484,o),
(621,2484,c)
);
},
{
closed = 1;
nodes = (
(621,2484,l),
(828,2484,l),
(828,2600,o),
(737,2691,o),
(621,2691,c)
);
},
{
closed = 1;
nodes = (
(1242,2691,l),
(1035,2691,l),
(1035,2575,o),
(1126,2484,o),
(1242,2484,c)
);
},
{
closed = 1;
nodes = (
(1242,2484,l),
(1358,2484,o),
(1449,2575,o),
(1449,2691,c),
(1242,2691,l)
);
},
{
closed = 1;
nodes = (
(1863,2691,l),
(1747,2691,o),
(1656,2600,o),
(1656,2484,c),
(1863,2484,l)
);
},
{
closed = 1;
nodes = (
(1863,2484,l),
(1979,2484,o),
(2070,2575,o),
(2070,2691,c),
(1863,2691,l)
);
},
{
closed = 1;
nodes = (
(2277,2691,l),
(2070,2691,l),
(2070,2575,o),
(2161,2484,o),
(2277,2484,c)
);
},
{
closed = 1;
nodes = (
(2277,2484,l),
(2484,2484,l),
(2484,2600,o),
(2393,2691,o),
(2277,2691,c)
);
},
{
closed = 1;
nodes = (
(1242,2898,l),
(1126,2898,o),
(1035,2807,o),
(1035,2691,c),
(1242,2691,l)
);
},
{
closed = 1;
nodes = (
(1242,2691,l),
(1449,2691,l),
(1449,2807,o),
(1358,2898,o),
(1242,2898,c)
);
}
);
width = 2484;
}
);
unicode = 64;
}
{
glyphname = B;
layers = (
{
layerId = m01;
shapes = (
{
closed = 1;
nodes = (
(207,207,l),
(0,207,l),
(0,91,o),
(91,0,o),
(207,0,c)
);
},
{
closed = 1;
nodes = (
(207,0,l),
(323,0,o),
(414,91,o),
(414,207,c),
(207,207,l)
);
},
{
closed = 1;
nodes = (
(207,414,l),
(91,414,o),
(0,323,o),
(0,207,c),
(207,207,l)
);
},
{
closed = 1;
nodes = (
(207,414,l),
(207,207,l),
(414,207,l),
(414,414,l)
);
},
{
closed = 1;
nodes = (
(207,621,l),
(207,414,l),
(414,414,l),
(414,621,l)
);
},
{
closed = 1;
nodes = (
(207,828,l),
(207,621,l),
(414,621,l),
(414,828,l)
);
},
{
closed = 1;
nodes = (
(207,1035,l),
(207,828,l),
(414,828,l),
(414,1035,l)
);
},
{
closed = 1;
nodes = (
(414,1035,l),
(414,828,l),
(621,828,l),
(621,1035,l)
);
},
{
closed = 1;
nodes = (
(621,1035,l),
(621,828,l),
(828,828,l),
(828,1035,l)
);
},
{
closed = 1;
nodes = (
(828,1035,l),
(828,828,l),
(1035,828,l),
(1035,1035,l)
);
},
{
closed = 1;
nodes = (
(1035,1035,l),
(1035,828,l),
(1242,828,l),
(1242,1035,l)
);
},
{
closed = 1;
nodes = (
(1242,828,l),
(1358,828,o),
(1449,919,o),
(1449,1035,c),
(1242,1035,l)
);
},
{
closed = 1;
nodes = (
(207,1242,l),
(207,1035,l),
(414,1035,l),
(414,1242,l)
);
},
{
closed = 1;
nodes = (
(1242,1242,l),
(1242,1035,l),
(1449,1035,l),
(1449,1242,l)
);
},
{
closed = 1;
nodes = (
(207,1449,l),
(207,1242,l),
(414,1242,l),
(414,1449,l)
);
},
{
closed = 1;
nodes = (
(1242,1449,l),
(1242,1242,l),
(1449,1242,l),
(1449,1449,l)
);
},
{
closed = 1;
nodes = (
(1449,1449,l),
(1449,1242,l),
(1449,1358,o),
(1540,1449,o),
(1656,1449,c)
);
},
{
closed = 1;
nodes = (
(207,1656,l),
(0,1656,l),
(0,1540,o),
(91,1449,o),
(207,1449,c)
);
},
{
closed = 1;
nodes = (
(207,1656,l),
(207,1449,l),
(414,1449,l),
(414,1656,l)
);
},
{
closed = 1;
nodes = (
(1242,1656,l),
(1242,1449,l),
(1449,1449,l),
(1449,1656,l)
);
},
{
closed = 1;
nodes = (
(1449,1656,l),
(1449,1449,l),
(1656,1449,l),
(1656,1656,l)
);
},
{
closed = 1;
nodes = (
(1656,1656,l),
(1656,1449,l),
(1863,1449,l),
(1863,1656,l)
);
},
{
closed = 1;
nodes = (
(1863,1656,l),
(1863,1449,l),
(2070,1449,l),
(2070,1656,l)
);
},
{
closed = 1;
nodes = (
(2070,1656,l),
(2070,1449,l),
(2277,1449,l),
(2277,1656,l)
);
},
{
closed = 1;
nodes = (
(2277,1656,l),
(2277,1449,l),
(2484,1449,l),
(2484,1656,l)
);
},
{
closed = 1;
nodes = (
(2484,1656,l),
(2484,1449,l),
(2691,1449,l),
(2691,1656,l)
);
},
{
closed = 1;
nodes = (
(2691,1449,l),
(2807,1449,o),
(2898,1540,o),
(2898,1656,c),
(2691,1656,l)
);
},
{
closed = 1;
nodes = (
(207,1863,l),
(91,1863,o),
(0,1772,o),
(0,1656,c),
(207,1656,l)
);
},
{
closed = 1;
nodes = (
(207,1656,l),
(414,1656,l),
(414,1772,o),
(323,1863,o),
(207,1863,c)
);
},
{
closed = 1;
nodes = (
(1242,1863,l),
(1242,1656,l),
(1449,1656,l),
(1449,1863,l)
);
},
{
closed = 1;
nodes = (
(2691,1863,l),
(2484,1863,l),
(2484,1747,o),
(2575,1656,o),
(2691,1656,c)
);
},
{
closed = 1;
nodes = (
(2691,1656,l),
(2898,1656,l),
(2898,1772,o),
(2807,1863,o),
(2691,1863,c)
);
},
{
closed = 1;
nodes = (
(207,2070,l),
(0,2070,l),
(0,1954,o),
(91,1863,o),
(207,1863,c)
);
},
{
closed = 1;
nodes = (
(207,1863,l),
(323,1863,o),
(414,1954,o),
(414,2070,c),
(207,2070,l)
);
},
{
closed = 1;
nodes = (
(1242,2070,l),
(1242,1863,l),
(1449,1863,l),
(1449,2070,l)
);
},
{
closed = 1;
nodes = (
(2484,2070,l),
(2277,2070,l),
(2277,1954,o),
(2368,1863,o),
(2484,1863,c)
);
},
{
closed = 1;
nodes = (
(2484,1863,l),
(2691,1863,l),
(2691,1979,o),
(2600,2070,o),
(2484,2070,c)
);
},
{
closed = 1;
nodes = (
(207,2277,l),
(91,2277,o),
(0,2186,o),
(0,2070,c),
(207,2070,l)
);
},
{
closed = 1;
nodes = (
(207,2277,l),
(207,2070,l),
(414,2070,l),
(414,2277,l)
);
},
{
closed = 1;
nodes = (
(414,2277,l),
(414,2070,l),
(621,2070,l),
(621,2277,l)
);
},
{
closed = 1;
nodes = (
(621,2277,l),
(621,2070,l),
(828,2070,l),
(828,2277,l)
);
},
{
closed = 1;
nodes = (
(828,2277,l),
(828,2070,l),
(1035,2070,l),
(1035,2277,l)
);
},
{
closed = 1;
nodes = (
(1035,2277,l),
(1035,2070,l),
(1242,2070,l),
(1242,2277,l)
);
},
{
closed = 1;
nodes = (
(1242,2277,l),
(1242,2070,l),
(1449,2070,l),
(1449,2277,l)
);
},
{
closed = 1;
nodes = (
(2277,2277,l),
(2277,2070,l),
(2484,2070,l),
(2484,2277,l)
);
},
{
closed = 1;
nodes = (
(1242,2277,l),
(1242,2484,l),
(1242,2368,o),
(1151,2277,o),
(1035,2277,c)
);
},
{
closed = 1;
nodes = (
(1242,2484,l),
(1242,2277,l),
(1449,2277,l),
(1449,2484,l)
);
},
{
closed = 1;
nodes = (
(2484,2484,l),
(2368,2484,o),
(2277,2393,o),
(2277,2277,c),
(2484,2277,l)
);
},
{
closed = 1;
nodes = (
(2484,2277,l),
(2600,2277,o),
(2691,2368,o),
(2691,2484,c),
(2484,2484,l)
);
},
{
closed = 1;
nodes = (
(1242,2691,l),
(1242,2484,l),
(1449,2484,l),
(1449,2691,l)
);
},
{
closed = 1;
nodes = (
(2691,2691,l),
(2575,2691,o),
(2484,2600,o),
(2484,2484,c),
(2691,2484,l)
);
},
{
closed = 1;
nodes = (
(2691,2484,l),
(2807,2484,o),
(2898,2575,o),
(2898,2691,c),
(2691,2691,l)
);
},
{
closed = 1;
nodes = (
(1449,2898,l),
(1333,2898,o),
(1242,2807,o),
(1242,2691,c),
(1449,2691,l)
);
},
{
closed = 1;
nodes = (
(1449,2898,l),
(1449,2691,l),
(1656,2691,l),
(1656,2898,l)
);
},
{
closed = 1;
nodes = (
(1656,2898,l),
(1656,2691,l),
(1863,2691,l),
(1863,2898,l)
);
},
{
closed = 1;
nodes = (
(1863,2898,l),
(1863,2691,l),
(2070,2691,l),
(2070,2898,l)
);
},
{
closed = 1;
nodes = (
(2070,2898,l),
(2070,2691,l),
(2277,2691,l),
(2277,2898,l)
);
},
{
closed = 1;
nodes = (
(2277,2898,l),
(2277,2691,l),
(2484,2691,l),
(2484,2898,l)
);
},
{
closed = 1;
nodes = (
(2484,2898,l),
(2484,2691,l),
(2691,2691,l),
(2691,2898,l)
);
},
{
closed = 1;
nodes = (
(2691,2691,l),
(2898,2691,l),
(2898,2807,o),
(2807,2898,o),
(2691,2898,c)
);
}
);
width = 2898;
}
);
note = Flag1;
unicode = 66;
}
{
glyphname = D;
layers = (
{
layerId = m01;
shapes = (
{
closed = 1;
nodes = (
(2484,0,l),
(2484,207,l),
(2484,91,o),
(2393,0,o),
(2277,0,c)
);
},
{
closed = 1;
nodes = (
(2484,0,l),
(2600,0,o),
(2691,91,o),
(2691,207,c),
(2484,207,l)
);
},
{
closed = 1;
nodes = (
(2277,414,l),
(2070,414,l),
(2070,298,o),
(2161,207,o),
(2277,207,c)
);
},
{
closed = 1;
nodes = (
(2277,414,l),
(2277,207,l),
(2484,207,l),
(2484,414,l)
);
},
{
closed = 1;
nodes = (
(2484,414,l),
(2484,207,l),
(2691,207,l),
(2691,414,l)
);
},
{
closed = 1;
nodes = (
(2070,621,l),
(2070,414,l),
(2277,414,l),
(2277,621,l)
);
},
{
closed = 1;
nodes = (
(2484,414,l),
(2484,621,l),
(2484,505,o),
(2393,414,o),
(2277,414,c)
);
},
{
closed = 1;
nodes = (
(2484,621,l),
(2484,414,l),
(2691,414,l),
(2691,621,l)
);
},
{
closed = 1;
nodes = (
(1863,828,l),
(1656,828,l),
(1656,712,o),
(1747,621,o),
(1863,621,c)
);
},
{
closed = 1;
nodes = (
(1863,621,l),
(1979,621,o),
(2070,712,o),
(2070,828,c),
(1863,828,l)
);
},
{
closed = 1;
nodes = (
(2070,828,l),
(2070,621,l),
(2277,621,l),
(2277,828,l)
);
},
{
closed = 1;
nodes = (
(2484,828,l),
(2484,621,l),
(2691,621,l),
(2691,828,l)
);
},
{
closed = 1;
nodes = (
(1449,1035,l),
(1242,1035,l),
(1242,919,o),
(1333,828,o),
(1449,828,c)
);
},
{
closed = 1;
nodes = (
(1449,828,l),
(1565,828,o),
(1656,919,o),
(1656,1035,c),
(1449,1035,l)
);
},
{
closed = 1;
nodes = (
(1656,1035,l),
(1656,828,l),
(1863,828,l),
(1863,1035,l)
);
},
{
closed = 1;
nodes = (
(2070,828,l),
(1954,828,o),
(1863,919,o),
(1863,1035,c),
(1863,828,l)
);
},
{
closed = 1;
nodes = (
(2070,828,l),
(2277,828,l),
(2277,944,o),
(2186,1035,o),
(2070,1035,c)
);
},
{
closed = 1;
nodes = (
(2484,1035,l),
(2484,828,l),
(2691,828,l),
(2691,1035,l)
);
},
{
closed = 1;
nodes = (
(1242,1242,l),
(1242,1035,l),
(1449,1035,l),
(1449,1242,l)
);
},
{
closed = 1;
nodes = (
(1656,1035,l),
(1540,1035,o),
(1449,1126,o),
(1449,1242,c),
(1449,1035,l)
);
},
{
closed = 1;
nodes = (
(1656,1035,l),
(1863,1035,l),
(1863,1151,o),
(1772,1242,o),
(1656,1242,c)
);
},
{
closed = 1;
nodes = (
(2484,1242,l),
(2484,1035,l),
(2691,1035,l),
(2691,1242,l)
);
},
{
closed = 1;
nodes = (
(1035,1449,l),
(828,1449,l),
(828,1333,o),
(919,1242,o),
(1035,1242,c)
);
},
{
closed = 1;
nodes = (
(1035,1242,l),
(1151,1242,o),
(1242,1333,o),
(1242,1449,c),
(1035,1449,l)
);
},
{
closed = 1;
nodes = (
(1242,1449,l),
(1242,1242,l),
(1449,1242,l),
(1449,1449,l)
);
},
{
closed = 1;
nodes = (
(2484,1449,l),
(2484,1242,l),
(2691,1242,l),
(2691,1449,l)
);
},
{
closed = 1;
nodes = (
(828,1656,l),
(828,1449,l),
(1035,1449,l),
(1035,1656,l)
);
},
{
closed = 1;
nodes = (
(1242,1449,l),
(1126,1449,o),
(1035,1540,o),
(1035,1656,c),
(1035,1449,l)
);
},
{
closed = 1;
nodes = (
(1242,1449,l),
(1449,1449,l),
(1449,1565,o),
(1358,1656,o),
(1242,1656,c)
);
},
{
closed = 1;
nodes = (
(2484,1656,l),
(2484,1449,l),
(2691,1449,l),
(2691,1656,l)
);
},
{
closed = 1;
nodes = (
(621,1863,l),
(414,1863,l),
(414,1747,o),
(505,1656,o),
(621,1656,c)
);
},
{
closed = 1;
nodes = (
(621,1656,l),
(737,1656,o),
(828,1747,o),
(828,1863,c),
(621,1863,l)
);
},
{
closed = 1;
nodes = (
(828,1863,l),
(828,1656,l),
(1035,1656,l),
(1035,1863,l)
);
},
{
closed = 1;
nodes = (
(2484,1863,l),
(2277,1863,l),
(2277,1747,o),
(2368,1656,o),
(2484,1656,c)
);
},
{
closed = 1;
nodes = (
(2484,1656,l),
(2691,1656,l),
(2691,1772,o),
(2600,1863,o),
(2484,1863,c)
);
},
{
closed = 1;
nodes = (
(414,1863,l),
(621,1863,l),
(621,1979,o),
(530,2070,o),
(414,2070,c)
);
},
{
closed = 1;
nodes = (
(828,1863,l),
(828,2070,l),
(828,1954,o),
(737,1863,o),
(621,1863,c)
);
},
{
closed = 1;
nodes = (
(828,1863,l),
(1035,1863,l),
(1035,1979,o),
(944,2070,o),
(828,2070,c)
);
},
{
closed = 1;
nodes = (
(2070,2070,l),
(1863,2070,l),
(1863,1954,o),
(1954,1863,o),
(2070,1863,c)
);
},
{
closed = 1;
nodes = (
(2070,2070,l),
(2070,1863,l),
(2277,1863,l),
(2277,2070,l)
);
},
{
closed = 1;
nodes = (
(2277,1863,l),
(2484,1863,l),
(2484,1979,o),
(2393,2070,o),
(2277,2070,c)
);
},
{
closed = 1;
nodes = (
(414,2277,l),
(207,2277,l),
(207,2161,o),
(298,2070,o),
(414,2070,c)
);
},
{
closed = 1;
nodes = (
(414,2070,l),
(530,2070,o),
(621,2161,o),
(621,2277,c),
(414,2277,l)
);
},
{
closed = 1;
nodes = (
(1656,2277,l),
(1449,2277,l),
(1449,2161,o),
(1540,2070,o),
(1656,2070,c)
);
},
{
closed = 1;
nodes = (
(1656,2277,l),
(1656,2070,l),
(1863,2070,l),
(1863,2277,l)
);
},
{
closed = 1;
nodes = (
(1863,2070,l),
(2070,2070,l),
(2070,2186,o),
(1979,2277,o),
(1863,2277,c)
);
},
{
closed = 1;
nodes = (
(207,2484,l),
(207,2277,l),
(414,2277,l),
(414,2484,l)
);
},
{
closed = 1;
nodes = (
(621,2277,l),
(505,2277,o),
(414,2368,o),
(414,2484,c),
(414,2277,l)
);
},
{
closed = 1;
nodes = (
(1035,2484,l),
(828,2484,l),
(828,2368,o),
(919,2277,o),
(1035,2277,c)
);
},
{
closed = 1;
nodes = (
(1035,2484,l),
(1035,2277,l),
(1242,2277,l),
(1242,2484,l)
);
},
{
closed = 1;
nodes = (
(1242,2484,l),
(1242,2277,l),
(1449,2277,l),
(1449,2484,l)
);
},
{
closed = 1;
nodes = (
(1449,2277,l),
(1656,2277,l),
(1656,2393,o),
(1565,2484,o),
(1449,2484,c)
);
},
{
closed = 1;
nodes = (
(207,2691,l),
(0,2691,l),
(0,2575,o),
(91,2484,o),
(207,2484,c)
);
},
{
closed = 1;
nodes = (
(207,2691,l),
(207,2484,l),
(414,2484,l),
(414,2691,l)
);
},
{
closed = 1;
nodes = (
(414,2691,l),
(414,2484,l),
(621,2484,l),
(621,2691,l)
);
},
{
closed = 1;
nodes = (
(621,2691,l),
(621,2484,l),
(828,2484,l),
(828,2691,l)
);
},
{
closed = 1;
nodes = (
(828,2484,l),
(1035,2484,l),
(1035,2600,o),
(944,2691,o),
(828,2691,c)
);
},
{
closed = 1;
nodes = (
(207,2691,l),
(91,2691,o),
(0,2782,o),
(0,2898,c),
(0,2691,l)
);
}
);
width = 2691;
}
);
note = 0.ala.left;
unicode = 68;
}
{
glyphname = F;
layers = (
{
layerId = m01;
shapes = (
{
closed = 1;
nodes = (
(1449,207,l),
(1242,207,l),
(1242,91,o),
(1333,0,o),
(1449,0,c)
);
},
{
closed = 1;
nodes = (
(1449,207,l),
(1449,0,l),
(1656,0,l),
(1656,207,l)
);
},
{
closed = 1;
nodes = (
(1656,207,l),
(1656,0,l),
(1863,0,l),
(1863,207,l)
);
},
{
closed = 1;
nodes = (
(1863,207,l),
(1863,0,l),
(2070,0,l),
(2070,207,l)
);
},
{
closed = 1;
nodes = (
(2070,0,l),
(2186,0,o),
(2277,91,o),
(2277,207,c),
(2070,207,l)
);
},
{
closed = 1;
nodes = (
(4968,207,l),
(4761,207,l),
(4761,91,o),
(4852,0,o),
(4968,0,c)
);
},
{
closed = 1;
nodes = (
(0,414,l),
(0,207,l),
(207,207,l),
(207,414,l)
);
},
{
closed = 1;
nodes = (
(207,414,l),
(207,207,l),
(414,207,l),
(414,414,l)
);
},
{
closed = 1;
nodes = (
(414,414,l),
(414,207,l),
(621,207,l),
(621,414,l)
);
},
{
closed = 1;
nodes = (
(621,414,l),
(621,207,l),
(828,207,l),
(828,414,l)
);
},
{
closed = 1;
nodes = (
(828,414,l),
(828,207,l),
(1035,207,l),
(1035,414,l)
);
},
{
closed = 1;
nodes = (
(1035,414,l),
(1035,207,l),
(1242,207,l),
(1242,414,l)
);
},
{
closed = 1;
nodes = (
(1242,414,l),
(1242,207,l),
(1449,207,l),
(1449,414,l)
);
},
{
closed = 1;
nodes = (
(1449,414,l),
(1449,207,l),
(1656,207,l),
(1656,414,l)
);
},
{
closed = 1;
nodes = (
(1656,414,l),
(1656,207,l),
(1863,207,l),
(1863,414,l)
);
},
{
closed = 1;
nodes = (
(1863,414,l),
(1863,207,l),
(2070,207,l),
(2070,414,l)
);
},
{
closed = 1;
nodes = (
(2070,414,l),
(2070,207,l),
(2277,207,l),
(2277,414,l)
);
},
{
closed = 1;
nodes = (
(2277,414,l),
(2277,207,l),
(2277,323,o),
(2368,414,o),
(2484,414,c)
);
},
{
closed = 1;
nodes = (
(4554,414,l),
(4347,414,l),
(4347,298,o),
(4438,207,o),
(4554,207,c)
);
},
{
closed = 1;
nodes = (
(4554,414,l),
(4554,207,l),
(4761,207,l),
(4761,414,l)
);
},
{
closed = 1;
nodes = (
(4761,414,l),
(4761,207,l),
(4968,207,l),
(4968,414,l)
);
},
{
closed = 1;
nodes = (
(0,621,l),
(0,414,l),
(207,414,l),
(207,621,l)
);
},
{
closed = 1;
nodes = (
(207,621,l),
(207,414,l),
(414,414,l),
(414,621,l)
);
},
{
closed = 1;
nodes = (
(414,621,l),
(414,414,l),
(621,414,l),
(621,621,l)
);
},
{
closed = 1;
nodes = (
(621,621,l),
(621,414,l),
(828,414,l),
(828,621,l)
);
},
{
closed = 1;
nodes = (
(828,621,l),
(828,414,l),
(1035,414,l),
(1035,621,l)
);
},
{
closed = 1;
nodes = (
(1035,621,l),
(1035,414,l),
(1242,414,l),
(1242,621,l)
);
},
{
closed = 1;
nodes = (
(1242,621,l),
(1242,414,l),
(1449,414,l),
(1449,621,l)
);
},
{
closed = 1;
nodes = (
(1449,621,l),
(1449,414,l),
(1656,414,l),
(1656,621,l)
);
},
{
closed = 1;
nodes = (
(1656,414,l),
(1863,414,l),
(1863,530,o),
(1772,621,o),
(1656,621,c)
);
},
{
closed = 1;
nodes = (
(2070,414,l),
(2070,621,l),
(2070,505,o),
(1979,414,o),
(1863,414,c)
);
},
{
closed = 1;
nodes = (
(2070,621,l),
(2070,414,l),
(2277,414,l),
(2277,621,l)
);
},
{
closed = 1;
nodes = (
(2277,621,l),
(2277,414,l),
(2484,414,l),
(2484,621,l)
);
},
{
closed = 1;
nodes = (
(2484,621,l),
(2484,414,l),
(2691,414,l),
(2691,621,l)
);
},
{
closed = 1;
nodes = (
(2691,414,l),
(2807,414,o),
(2898,505,o),
(2898,621,c),
(2691,621,l)
);
},
{
closed = 1;
nodes = (
(4140,621,l),
(3933,621,l),
(3933,505,o),
(4024,414,o),
(4140,414,c)
);
},
{
closed = 1;
nodes = (
(4140,621,l),
(4140,414,l),
(4347,414,l),
(4347,621,l)
);
},
{
closed = 1;
nodes = (
(4347,621,l),
(4347,414,l),
(4554,414,l),
(4554,621,l)
);
},
{
closed = 1;
nodes = (
(4554,621,l),
(4554,414,l),
(4761,414,l),
(4761,621,l)
);
},
{
closed = 1;
nodes = (
(4761,621,l),
(4761,414,l),
(4968,414,l),
(4968,621,l)
);
},
{
closed = 1;
nodes = (
(207,828,l),
(91,828,o),
(0,737,o),
(0,621,c),
(207,621,l)
);
},
{
closed = 1;
nodes = (
(207,621,l),
(323,621,o),
(414,712,o),
(414,828,c),
(207,828,l)
);
},
{
closed = 1;
nodes = (
(1035,621,l),
(1035,828,l),
(1035,712,o),
(944,621,o),
(828,621,c)
);
},
{
closed = 1;
nodes = (
(1242,621,l),
(1126,621,o),
(1035,712,o),
(1035,828,c),
(1035,621,l)
);
},
{
closed = 1;
nodes = (
(1449,621,l),
(1449,828,l),
(1449,712,o),
(1358,621,o),
(1242,621,c)
);
},
{
closed = 1;
nodes = (
(1656,621,l),
(1540,621,o),
(1449,712,o),
(1449,828,c),
(1449,621,l)
);
},
{
closed = 1;
nodes = (
(2070,828,l),
(1863,828,l),
(1863,712,o),
(1954,621,o),
(2070,621,c)
);
},
{
closed = 1;
nodes = (
(2070,828,l),
(2070,621,l),
(2277,621,l),
(2277,828,l)
);
},
{
closed = 1;
nodes = (
(2277,828,l),
(2277,621,l),
(2484,621,l),
(2484,828,l)
);
},
{
closed = 1;
nodes = (
(2484,828,l),
(2484,621,l),
(2691,621,l),
(2691,828,l)
);
},
{
closed = 1;
nodes = (
(2691,828,l),
(2691,621,l),
(2898,621,l),
(2898,828,l)
);
},
{
closed = 1;
nodes = (
(2898,828,l),
(2898,621,l),
(3105,621,l),
(3105,828,l)
);
},
{
closed = 1;
nodes = (
(3105,828,l),
(3105,621,l),
(3312,621,l),
(3312,828,l)
);
},
{
closed = 1;
nodes = (
(3312,828,l),
(3312,621,l),
(3519,621,l),
(3519,828,l)
);
},
{
closed = 1;
nodes = (
(3519,828,l),
(3519,621,l),
(3726,621,l),
(3726,828,l)
);
},
{
closed = 1;
nodes = (
(3726,828,l),
(3726,621,l),
(3933,621,l),
(3933,828,l)
);
},
{
closed = 1;
nodes = (
(3933,828,l),
(3933,621,l),
(4140,621,l),
(4140,828,l)
);
},
{
closed = 1;
nodes = (
(4140,828,l),
(4140,621,l),
(4347,621,l),
(4347,828,l)
);
},
{
closed = 1;
nodes = (
(4347,828,l),
(4347,621,l),
(4554,621,l),
(4554,828,l)
);
},
{
closed = 1;
nodes = (
(4554,828,l),
(4554,621,l),
(4761,621,l),
(4761,828,l)
);
},
{
closed = 1;
nodes = (
(4761,621,l),
(4968,621,l),
(4968,737,o),
(4877,828,o),
(4761,828,c)
);
},
{
closed = 1;
nodes = (
(414,1035,l),
(298,1035,o),
(207,944,o),
(207,828,c),
(414,828,l)
);
},
{
closed = 1;
nodes = (
(414,828,l),
(530,828,o),
(621,919,o),
(621,1035,c),
(414,1035,l)
);
},
{
closed = 1;
nodes = (
(1863,1035,l),
(1863,828,l),
(2070,828,l),
(2070,1035,l)
);
},
{
closed = 1;
nodes = (
(2277,1035,l),
(2277,828,l),
(2484,828,l),
(2484,1035,l)
);
},
{
closed = 1;
nodes = (
(2484,1035,l),
(2484,828,l),
(2691,828,l),
(2691,1035,l)
);
},
{
closed = 1;
nodes = (
(2691,1035,l),
(2691,828,l),
(2898,828,l),
(2898,1035,l)
);
},
{
closed = 1;
nodes = (
(2898,1035,l),
(2898,828,l),
(3105,828,l),
(3105,1035,l)
);
},
{
closed = 1;
nodes = (
(3105,1035,l),
(3105,828,l),
(3312,828,l),
(3312,1035,l)
);
},
{
closed = 1;
nodes = (
(3312,1035,l),
(3312,828,l),
(3519,828,l),
(3519,1035,l)
);
},
{
closed = 1;
nodes = (
(3519,1035,l),
(3519,828,l),
(3726,828,l),
(3726,1035,l)
);
},
{
closed = 1;
nodes = (
(3726,1035,l),
(3726,828,l),
(3933,828,l),
(3933,1035,l)
);
},
{
closed = 1;
nodes = (
(3933,1035,l),
(3933,828,l),
(4140,828,l),
(4140,1035,l)
);
},
{
closed = 1;
nodes = (
(4347,828,l),
(4231,828,o),
(4140,919,o),
(4140,1035,c),
(4140,828,l)
);
},
{
closed = 1;
nodes = (
(4554,828,l),
(4554,1035,l),
(4554,919,o),
(4463,828,o),
(4347,828,c)
);
},
{
closed = 1;
nodes = (
(4554,1035,l),
(4554,828,l),
(4761,828,l),
(4761,1035,l)
);
},
{
closed = 1;
nodes = (
(621,1242,l),
(505,1242,o),
(414,1151,o),
(414,1035,c),
(621,1035,l)
);
},
{
closed = 1;
nodes = (
(621,1035,l),
(737,1035,o),
(828,1126,o),
(828,1242,c),
(621,1242,l)
);
},
{
closed = 1;
nodes = (
(1863,1242,l),
(1656,1242,l),
(1656,1126,o),
(1747,1035,o),
(1863,1035,c)
);
},
{
closed = 1;
nodes = (
(1863,1035,l),
(2070,1035,l),
(2070,1151,o),
(1979,1242,o),
(1863,1242,c)
);
},
{
closed = 1;
nodes = (
(2484,1242,l),
(2368,1242,o),
(2277,1151,o),
(2277,1035,c),
(2484,1035,l)
);
},
{
closed = 1;
nodes = (
(2484,1035,l),
(2600,1035,o),
(2691,1126,o),
(2691,1242,c),
(2484,1242,l)
);
},
{
closed = 1;
nodes = (
(2898,1035,l),
(2898,1242,l),
(2898,1126,o),
(2807,1035,o),
(2691,1035,c)
);
},
{
closed = 1;
nodes = (
(2898,1242,l),
(2898,1035,l),
(3105,1035,l),
(3105,1242,l)
);
},
{
closed = 1;
nodes = (
(3105,1242,l),
(3105,1035,l),
(3312,1035,l),
(3312,1242,l)
);
},
{
closed = 1;
nodes = (
(3312,1242,l),
(3312,1035,l),
(3519,1035,l),
(3519,1242,l)
);
},
{
closed = 1;
nodes = (
(3519,1242,l),
(3519,1035,l),
(3726,1035,l),
(3726,1242,l)
);
},
{
closed = 1;
nodes = (
(3933,1035,l),
(3817,1035,o),
(3726,1126,o),
(3726,1242,c),
(3726,1035,l)
);
},
{
closed = 1;
nodes = (
(4554,1242,l),
(4347,1242,l),
(4347,1126,o),
(4438,1035,o),
(4554,1035,c)
);
},
{
closed = 1;
nodes = (
(4554,1035,l),
(4761,1035,l),
(4761,1151,o),
(4670,1242,o),
(4554,1242,c)
);
},
{
closed = 1;
nodes = (
(828,1449,l),
(712,1449,o),
(621,1358,o),
(621,1242,c),
(828,1242,l)
);
},
{
closed = 1;
nodes = (
(828,1242,l),
(944,1242,o),
(1035,1333,o),
(1035,1449,c),
(828,1449,l)
);
},
{
closed = 1;
nodes = (
(1656,1449,l),
(1656,1242,l),
(1863,1242,l),
(1863,1449,l)
);
},
{
closed = 1;
nodes = (
(2484,1449,l),
(2484,1242,l),
(2691,1242,l),
(2691,1449,l)
);
},
{
closed = 1;
nodes = (
(3105,1242,l),
(3105,1449,l),
(3105,1333,o),
(3014,1242,o),
(2898,1242,c)
);
},
{
closed = 1;
nodes = (
(3312,1242,l),
(3196,1242,o),
(3105,1333,o),
(3105,1449,c),
(3105,1242,l)
);
},
{
closed = 1;
nodes = (
(3519,1242,l),
(3519,1449,l),
(3519,1333,o),
(3428,1242,o),
(3312,1242,c)
);
},
{
closed = 1;
nodes = (
(3726,1242,l),
(3610,1242,o),
(3519,1333,o),
(3519,1449,c),
(3519,1242,l)
);
},
{
closed = 1;
nodes = (
(4140,1449,l),
(3933,1449,l),
(3933,1333,o),
(4024,1242,o),
(4140,1242,c)
);
},
{
closed = 1;
nodes = (
(4140,1449,l),
(4140,1242,l),
(4347,1242,l),
(4347,1449,l)
);
},
{
closed = 1;
nodes = (
(4347,1242,l),
(4554,1242,l),
(4554,1358,o),
(4463,1449,o),
(4347,1449,c)
);
},
{
closed = 1;
nodes = (
(1035,1656,l),
(919,1656,o),
(828,1565,o),
(828,1449,c),
(1035,1449,l)
);
},
{
closed = 1;
nodes = (
(1035,1656,l),
(1035,1449,l),
(1242,1449,l),
(1242,1656,l)
);
},
{
closed = 1;
nodes = (
(1242,1656,l),
(1242,1449,l),
(1449,1449,l),
(1449,1656,l)
);
},
{
closed = 1;
nodes = (
(1449,1656,l),
(1449,1449,l),
(1656,1449,l),
(1656,1656,l)
);
},
{
closed = 1;
nodes = (
(1656,1449,l),
(1863,1449,l),
(1863,1565,o),
(1772,1656,o),
(1656,1656,c)
);
},
{
closed = 1;
nodes = (
(2691,1656,l),
(2575,1656,o),
(2484,1565,o),
(2484,1449,c),
(2691,1449,l)
);
},
{
closed = 1;
nodes = (
(2691,1449,l),
(2807,1449,o),
(2898,1540,o),
(2898,1656,c),
(2691,1656,l)
);
},
{
closed = 1;
nodes = (
(3933,1656,l),
(3933,1449,l),
(4140,1449,l),
(4140,1656,l)
);
},
{
closed = 1;
nodes = (
(2898,1863,l),
(2782,1863,o),
(2691,1772,o),
(2691,1656,c),
(2898,1656,l)
);
},
{
closed = 1;
nodes = (
(2898,1656,l),
(3014,1656,o),
(3105,1747,o),
(3105,1863,c),
(2898,1863,l)
);
},
{
closed = 1;
nodes = (
(3933,1863,l),
(3726,1863,l),
(3726,1747,o),
(3817,1656,o),
(3933,1656,c)
);
},
{
closed = 1;
nodes = (
(3933,1656,l),
(4140,1656,l),
(4140,1772,o),
(4049,1863,o),
(3933,1863,c)
);
},
{
closed = 1;
nodes = (
(2898,2070,l),
(2898,1863,l),
(3105,1863,l),
(3105,2070,l)
);
},
{
closed = 1;
nodes = (
(3726,2070,l),
(3726,1863,l),
(3933,1863,l),
(3933,2070,l)
);
},
{
closed = 1;
nodes = (
(3105,2277,l),
(2989,2277,o),
(2898,2186,o),
(2898,2070,c),
(3105,2070,l)
);
},
{
closed = 1;
nodes = (
(3105,2277,l),
(3105,2070,l),
(3312,2070,l),
(3312,2277,l)
);
},
{
closed = 1;
nodes = (
(3312,2277,l),
(3312,2070,l),
(3519,2070,l),
(3519,2277,l)
);
},
{
closed = 1;
nodes = (
(3519,2277,l),
(3519,2070,l),
(3726,2070,l),
(3726,2277,l)
);
},
{
closed = 1;
nodes = (
(3726,2070,l),
(3933,2070,l),
(3933,2186,o),
(3842,2277,o),
(3726,2277,c)
);
},
{
closed = 1;
nodes = (
(3312,2484,l),
(3312,2277,l),
(3519,2277,l),
(3519,2484,l)
);
},
{
closed = 1;
nodes = (
(3312,2691,l),
(3312,2484,l),
(3519,2484,l),
(3519,2691,l)
);
},
{
closed = 1;
nodes = (
(3519,2691,l),
(3519,2484,l),
(3726,2484,l),
(3726,2691,l)
);
},
{
closed = 1;
nodes = (
(3726,2484,l),
(3933,2484,l),
(3933,2600,o),
(3842,2691,o),
(3726,2691,c)
);
},
{
closed = 1;
nodes = (
(3519,2898,l),
(3403,2898,o),
(3312,2807,o),
(3312,2691,c),
(3519,2691,l)
);
},
{
closed = 1;
nodes = (
(3519,2898,l),
(3519,2691,l),
(3726,2691,l),
(3726,2898,l)
);
},
{
closed = 1;
nodes = (
(3726,2691,l),
(3842,2691,o),
(3933,2782,o),
(3933,2898,c),
(3726,2898,l)
);
}
);
width = 4968;
}
);
note = 0.montagna3;
unicode = 70;
}
{
glyphname = G;
layers = (
{
layerId = m01;
shapes = (
{
closed = 1;
nodes = (
(207,207,l),
(323,207,o),
(414,116,o),
(414,0,c),
(414,207,l)
);
},
{
closed = 1;
nodes = (
(414,207,l),
(414,0,l),
(621,0,l),
(621,207,l)
);
},
{
closed = 1;
nodes = (
(1449,207,l),
(1565,207,o),
(1656,116,o),
(1656,0,c),
(1656,207,l)
);
},
{
closed = 1;
nodes = (
(1656,207,l),
(1656,0,l),
(1863,0,l),
(1863,207,l)
);
},
{
closed = 1;
nodes = (
(0,414,l),
(0,207,l),
(207,207,l),
(207,414,l)
);
},
{
closed = 1;
nodes = (
(207,414,l),
(207,207,l),
(414,207,l),
(414,414,l)
);
},
{
closed = 1;
nodes = (
(414,207,l),
(621,207,l),
(621,323,o),
(530,414,o),
(414,414,c)
);
},
{
closed = 1;
nodes = (
(1242,414,l),
(1035,414,l),
(1035,298,o),
(1126,207,o),
(1242,207,c)
);
},
{
closed = 1;
nodes = (
(1242,414,l),
(1242,207,l),
(1449,207,l),
(1449,414,l)
);
},
{
closed = 1;
nodes = (
(1449,414,l),
(1449,207,l),
(1656,207,l),
(1656,414,l)
);
},
{
closed = 1;
nodes = (
(1656,207,l),
(1863,207,l),
(1863,323,o),
(1772,414,o),
(1656,414,c)
);
},
{
closed = 1;
nodes = (
(2484,414,l),
(2277,414,l),
(2277,298,o),
(2368,207,o),
(2484,207,c)
);
},
{
closed = 1;
nodes = (
(207,414,l),
(91,414,o),
(0,505,o),
(0,621,c),
(0,414,l)
);
},
{
closed = 1;
nodes = (
(1035,621,l),
(1035,414,l),
(1242,414,l),
(1242,621,l)
);
},
{
closed = 1;
nodes = (
(1449,414,l),
(1333,414,o),
(1242,505,o),
(1242,621,c),
(1242,414,l)
);
},
{
closed = 1;
nodes = (
(2277,621,l),
(2277,414,l),
(2484,414,l),
(2484,621,l)
);
},
{
closed = 1;
nodes = (
(828,828,l),
(944,828,o),
(1035,737,o),
(1035,621,c),
(1035,828,l)
);
},
{
closed = 1;
nodes = (
(1035,828,l),
(1035,621,l),
(1242,621,l),
(1242,828,l)
);
},
{
closed = 1;
nodes = (
(2070,828,l),
(2186,828,o),
(2277,737,o),
(2277,621,c),
(2277,828,l)
);
},
{
closed = 1;
nodes = (
(2277,828,l),
(2277,621,l),
(2484,621,l),
(2484,828,l)
);
},
{
closed = 1;
nodes = (
(621,1035,l),
(414,1035,l),
(414,919,o),
(505,828,o),
(621,828,c)
);
},
{
closed = 1;
nodes = (
(621,1035,l),
(621,828,l),
(828,828,l),
(828,1035,l)
);
},
{
closed = 1;
nodes = (
(828,1035,l),
(828,828,l),
(1035,828,l),
(1035,1035,l)
);
},
{
closed = 1;
nodes = (
(1035,828,l),
(1242,828,l),
(1242,944,o),
(1151,1035,o),
(1035,1035,c)
);
},
{
closed = 1;
nodes = (
(1863,1035,l),
(1656,1035,l),
(1656,919,o),
(1747,828,o),
(1863,828,c)
);
},
{
closed = 1;
nodes = (
(1863,1035,l),
(1863,828,l),
(2070,828,l),
(2070,1035,l)
);
},
{
closed = 1;
nodes = (
(2070,1035,l),
(2070,828,l),
(2277,828,l),
(2277,1035,l)
);
},
{
closed = 1;
nodes = (
(2277,828,l),
(2484,828,l),
(2484,944,o),
(2393,1035,o),
(2277,1035,c)
);
},
{
closed = 1;
nodes = (
(414,1242,l),
(414,1035,l),
(621,1035,l),
(621,1242,l)
);
},
{
closed = 1;
nodes = (
(828,1035,l),
(712,1035,o),
(621,1126,o),
(621,1242,c),
(621,1035,l)
);
},
{
closed = 1;
nodes = (
(1656,1242,l),
(1656,1035,l),
(1863,1035,l),
(1863,1242,l)
);
},
{
closed = 1;
nodes = (
(2070,1035,l),
(1954,1035,o),
(1863,1126,o),
(1863,1242,c),
(1863,1035,l)
);
},
{
closed = 1;
nodes = (
(207,1449,l),
(323,1449,o),
(414,1358,o),
(414,1242,c),
(414,1449,l)
);
},
{
closed = 1;
nodes = (
(414,1449,l),
(414,1242,l),
(621,1242,l),
(621,1449,l)
);
},
{
closed = 1;
nodes = (
(1449,1449,l),
(1565,1449,o),
(1656,1358,o),
(1656,1242,c),
(1656,1449,l)
);
},
{
closed = 1;
nodes = (
(1656,1449,l),
(1656,1242,l),
(1863,1242,l),
(1863,1449,l)
);
},
{
closed = 1;
nodes = (
(0,1656,l),
(0,1449,l),
(207,1449,l),
(207,1656,l)
);
},
{
closed = 1;
nodes = (
(207,1656,l),
(207,1449,l),
(414,1449,l),
(414,1656,l)
);
},
{
closed = 1;
nodes = (
(414,1449,l),
(621,1449,l),
(621,1565,o),
(530,1656,o),
(414,1656,c)
);
},
{
closed = 1;
nodes = (
(1242,1656,l),
(1035,1656,l),
(1035,1540,o),
(1126,1449,o),
(1242,1449,c)
);
},
{
closed = 1;
nodes = (
(1242,1656,l),
(1242,1449,l),
(1449,1449,l),
(1449,1656,l)
);
},
{
closed = 1;
nodes = (
(1449,1656,l),
(1449,1449,l),
(1656,1449,l),
(1656,1656,l)
);
},
{
closed = 1;
nodes = (
(1656,1449,l),
(1863,1449,l),
(1863,1565,o),
(1772,1656,o),
(1656,1656,c)
);
},
{
closed = 1;
nodes = (
(2484,1656,l),
(2277,1656,l),
(2277,1540,o),
(2368,1449,o),
(2484,1449,c)
);
},
{
closed = 1;
nodes = (
(1035,1863,l),
(1035,1656,l),
(1242,1656,l),
(1242,1863,l)
);
},
{
closed = 1;
nodes = (
(1449,1656,l),
(1333,1656,o),
(1242,1747,o),
(1242,1863,c),
(1242,1656,l)
);
},
{
closed = 1;
nodes = (
(2277,1863,l),
(2277,1656,l),
(2484,1656,l),
(2484,1863,l)
);
},
{
closed = 1;
nodes = (
(828,2070,l),
(944,2070,o),
(1035,1979,o),
(1035,1863,c),
(1035,2070,l)
);
},
{
closed = 1;
nodes = (
(1035,2070,l),
(1035,1863,l),
(1242,1863,l),
(1242,2070,l)
);
},
{
closed = 1;
nodes = (
(2070,2070,l),
(2186,2070,o),
(2277,1979,o),
(2277,1863,c),
(2277,2070,l)
);
},
{
closed = 1;
nodes = (
(2277,2070,l),
(2277,1863,l),
(2484,1863,l),
(2484,2070,l)
);
},
{
closed = 1;
nodes = (
(621,2277,l),
(414,2277,l),
(414,2161,o),
(505,2070,o),
(621,2070,c)
);
},
{
closed = 1;
nodes = (
(621,2277,l),
(621,2070,l),
(828,2070,l),
(828,2277,l)
);
},
{
closed = 1;
nodes = (
(828,2277,l),
(828,2070,l),
(1035,2070,l),
(1035,2277,l)
);
},
{
closed = 1;
nodes = (
(1035,2070,l),
(1242,2070,l),
(1242,2186,o),
(1151,2277,o),
(1035,2277,c)
);
},
{
closed = 1;
nodes = (
(1863,2277,l),
(1656,2277,l),
(1656,2161,o),
(1747,2070,o),
(1863,2070,c)
);
},
{
closed = 1;
nodes = (
(1863,2277,l),
(1863,2070,l),
(2070,2070,l),
(2070,2277,l)
);
},
{
closed = 1;
nodes = (
(2070,2277,l),
(2070,2070,l),
(2277,2070,l),
(2277,2277,l)
);
},
{
closed = 1;
nodes = (
(2277,2070,l),
(2484,2070,l),
(2484,2186,o),
(2393,2277,o),
(2277,2277,c)
);
},
{
closed = 1;
nodes = (
(414,2484,l),
(414,2277,l),
(621,2277,l),
(621,2484,l)
);
},
{
closed = 1;
nodes = (
(828,2277,l),
(712,2277,o),
(621,2368,o),
(621,2484,c),
(621,2277,l)
);
},
{
closed = 1;
nodes = (
(1656,2484,l),
(1656,2277,l),
(1863,2277,l),
(1863,2484,l)
);
},
{
closed = 1;
nodes = (
(2070,2277,l),
(1954,2277,o),
(1863,2368,o),
(1863,2484,c),
(1863,2277,l)
);
},
{
closed = 1;
nodes = (
(207,2691,l),
(323,2691,o),
(414,2600,o),
(414,2484,c),
(414,2691,l)
);
},
{
closed = 1;
nodes = (
(414,2691,l),
(414,2484,l),
(621,2484,l),
(621,2691,l)
);
},
{
closed = 1;
nodes = (
(1449,2691,l),
(1565,2691,o),
(1656,2600,o),
(1656,2484,c),
(1656,2691,l)
);
},
{
closed = 1;
nodes = (
(1656,2691,l),
(1656,2484,l),
(1863,2484,l),
(1863,2691,l)
);
},
{
closed = 1;
nodes = (
(0,2898,l),
(0,2691,l),
(207,2691,l),
(207,2898,l)
);
},
{
closed = 1;
nodes = (
(207,2898,l),
(207,2691,l),
(414,2691,l),
(414,2898,l)
);
},
{
closed = 1;
nodes = (
(414,2691,l),
(621,2691,l),
(621,2807,o),
(530,2898,o),
(414,2898,c)
);
},
{
closed = 1;
nodes = (
(1242,2898,l),
(1035,2898,l),
(1035,2782,o),
(1126,2691,o),
(1242,2691,c)
);
},
{
closed = 1;
nodes = (
(1242,2898,l),
(1242,2691,l),
(1449,2691,l),
(1449,2898,l)
);
},
{
closed = 1;
nodes = (
(1449,2898,l),
(1449,2691,l),
(1656,2691,l),
(1656,2898,l)
);
},
{
closed = 1;
nodes = (
(1656,2691,l),
(1863,2691,l),
(1863,2807,o),
(1772,2898,o),
(1656,2898,c)
);
}
);
width = 2484;
}
);
note = "0.fiume-3";
unicode = 71;
}
{
glyphname = I;
layers = (
{
layerId = m01;
shapes = (
{
closed = 1;
nodes = (
(621,207,l),
(414,207,l),
(414,91,o),
(505,0,o),
(621,0,c)
);
},
{
closed = 1;
nodes = (
(621,207,l),
(621,0,l),
(828,0,l),
(828,207,l)
);
},
{
closed = 1;
nodes = (
(828,207,l),
(828,0,l),
(1035,0,l),
(1035,207,l)
);
},
{
closed = 1;
nodes = (
(1035,0,l),
(1151,0,o),
(1242,91,o),
(1242,207,c),
(1035,207,l)
);
},
{
closed = 1;
nodes = (
(2691,207,l),
(2484,207,l),
(2484,91,o),
(2575,0,o),
(2691,0,c)
);
},
{
closed = 1;
nodes = (
(2691,207,l),
(2691,0,l),
(2898,0,l),
(2898,207,l)
);
},
{
closed = 1;
nodes = (
(2898,207,l),
(2898,0,l),
(3105,0,l),
(3105,207,l)
);
},
{
closed = 1;
nodes = (
(3105,0,l),
(3221,0,o),
(3312,91,o),
(3312,207,c),
(3105,207,l)
);
},
{
closed = 1;
nodes = (
(414,414,l),
(207,414,l),
(207,298,o),
(298,207,o),
(414,207,c)
);
},
{
closed = 1;
nodes = (
(621,207,l),
(505,207,o),
(414,298,o),
(414,414,c),
(414,207,l)
);
},
{
closed = 1;
nodes = (
(1242,207,l),
(1242,414,l),
(1242,298,o),
(1151,207,o),
(1035,207,c)
);
},
{
closed = 1;
nodes = (
(1242,207,l),
(1358,207,o),
(1449,298,o),
(1449,414,c),
(1242,414,l)
);
},
{
closed = 1;
nodes = (
(2484,414,l),
(2277,414,l),
(2277,298,o),
(2368,207,o),
(2484,207,c)
);
},
{
closed = 1;
nodes = (
(2691,207,l),
(2575,207,o),
(2484,298,o),
(2484,414,c),
(2484,207,l)
);
},
{
closed = 1;
nodes = (
(3312,207,l),
(3312,414,l),
(3312,298,o),
(3221,207,o),
(3105,207,c)
);
},
{
closed = 1;
nodes = (
(3312,207,l),
(3428,207,o),
(3519,298,o),
(3519,414,c),
(3312,414,l)
);
},
{
closed = 1;
nodes = (
(207,621,l),
(0,621,l),
(0,505,o),
(91,414,o),
(207,414,c)
);
},
{
closed = 1;
nodes = (
(207,621,l),
(207,414,l),
(414,414,l),
(414,621,l)
);
},
{
closed = 1;
nodes = (
(1242,621,l),
(1242,414,l),
(1449,414,l),
(1449,621,l)
);
},
{
closed = 1;
nodes = (
(2277,621,l),
(2277,414,l),
(2484,414,l),
(2484,621,l)
);
},
{
closed = 1;
nodes = (
(3312,621,l),
(3312,414,l),
(3519,414,l),
(3519,621,l)
);
},
{
closed = 1;
nodes = (
(3519,414,l),
(3635,414,o),
(3726,505,o),
(3726,621,c),
(3519,621,l)
);
},
{
closed = 1;
nodes = (
(207,828,l),
(91,828,o),
(0,737,o),
(0,621,c),
(207,621,l)
);
},
{
closed = 1;
nodes = (
(207,828,l),
(207,621,l),
(414,621,l),
(414,828,l)
);
},
{
closed = 1;
nodes = (
(1242,828,l),
(1242,621,l),
(1449,621,l),
(1449,828,l)
);
},
{
closed = 1;
nodes = (
(1449,621,l),
(1565,621,o),
(1656,712,o),
(1656,828,c),
(1449,828,l)
);
},
{
closed = 1;
nodes = (
(2277,828,l),
(2070,828,l),
(2070,712,o),
(2161,621,o),
(2277,621,c)
);
},
{
closed = 1;
nodes = (
(2277,828,l),
(2277,621,l),
(2484,621,l),
(2484,828,l)
);
},
{
closed = 1;
nodes = (
(3312,828,l),
(3312,621,l),
(3519,621,l),
(3519,828,l)
);
},
{
closed = 1;
nodes = (
(3519,828,l),
(3519,621,l),
(3726,621,l),
(3726,828,l)
);
},
{
closed = 1;
nodes = (
(207,1035,l),
(207,828,l),
(414,828,l),
(414,1035,l)
);
},
{
closed = 1;
nodes = (
(414,1035,l),
(414,828,l),
(414,944,o),
(505,1035,o),
(621,1035,c)
);
},
{
closed = 1;
nodes = (
(1035,1035,l),
(1151,1035,o),
(1242,944,o),
(1242,828,c),
(1242,1035,l)
);
},
{
closed = 1;
nodes = (
(1242,828,l),
(1449,828,l),
(1449,944,o),
(1358,1035,o),
(1242,1035,c)
);
},
{
closed = 1;
nodes = (
(1656,1035,l),
(1540,1035,o),
(1449,944,o),
(1449,828,c),
(1656,828,l)
);
},
{
closed = 1;
nodes = (
(1656,1035,l),
(1656,828,l),
(1863,828,l),
(1863,1035,l)
);
},
{
closed = 1;
nodes = (
(1863,1035,l),
(1863,828,l),
(2070,828,l),
(2070,1035,l)
);
},
{
closed = 1;
nodes = (
(2070,828,l),
(2277,828,l),
(2277,944,o),
(2186,1035,o),
(2070,1035,c)
);
},
{
closed = 1;
nodes = (
(2484,1035,l),
(2368,1035,o),
(2277,944,o),
(2277,828,c),
(2484,828,l)
);
},
{
closed = 1;
nodes = (
(2484,1035,l),
(2484,828,l),
(2484,944,o),
(2575,1035,o),
(2691,1035,c)
);
},
{
closed = 1;
nodes = (
(3105,1035,l),
(3221,1035,o),
(3312,944,o),
(3312,828,c),
(3312,1035,l)
);
},
{
closed = 1;
nodes = (
(3312,828,l),
(3519,828,l),
(3519,944,o),
(3428,1035,o),
(3312,1035,c)
);
},
{
closed = 1;
nodes = (
(3519,1035,l),
(3519,828,l),
(3726,828,l),
(3726,1035,l)
);
},
{
closed = 1;
nodes = (
(207,1242,l),
(207,1035,l),
(414,1035,l),
(414,1242,l)
);
},
{
closed = 1;
nodes = (
(621,1242,l),
(505,1242,o),
(414,1151,o),
(414,1035,c),
(621,1035,l)
);
},
{
closed = 1;
nodes = (
(621,1242,l),
(621,1035,l),
(828,1035,l),
(828,1242,l)
);
},
{
closed = 1;
nodes = (
(828,1242,l),
(828,1035,l),
(1035,1035,l),
(1035,1242,l)
);
},
{
closed = 1;
nodes = (
(1035,1035,l),
(1242,1035,l),
(1242,1151,o),
(1151,1242,o),
(1035,1242,c)
);
},
{
closed = 1;
nodes = (
(2691,1242,l),
(2575,1242,o),
(2484,1151,o),
(2484,1035,c),
(2691,1035,l)
);
},
{
closed = 1;
nodes = (
(2691,1242,l),
(2691,1035,l),
(2898,1035,l),
(2898,1242,l)
);
},
{
closed = 1;
nodes = (
(2898,1242,l),
(2898,1035,l),
(3105,1035,l),
(3105,1242,l)
);
},
{
closed = 1;
nodes = (
(3105,1035,l),
(3312,1035,l),
(3312,1151,o),
(3221,1242,o),
(3105,1242,c)
);
},
{
closed = 1;
nodes = (
(3519,1242,l),
(3519,1035,l),
(3726,1035,l),
(3726,1242,l)
);
},
{
closed = 1;
nodes = (
(207,1449,l),
(207,1242,l),
(414,1242,l),
(414,1449,l)
);
},
{
closed = 1;
nodes = (
(3519,1449,l),
(3519,1242,l),
(3726,1242,l),
(3726,1449,l)
);
},
{
closed = 1;
nodes = (
(207,1656,l),
(207,1449,l),
(414,1449,l),
(414,1656,l)
);
},
{
closed = 1;
nodes = (
(3519,1656,l),
(3519,1449,l),
(3726,1449,l),
(3726,1656,l)
);
},
{
closed = 1;
nodes = (
(207,1863,l),
(207,1656,l),
(414,1656,l),
(414,1863,l)
);
},
{
closed = 1;
nodes = (
(3519,1863,l),
(3519,1656,l),
(3726,1656,l),
(3726,1863,l)
);
},
{
closed = 1;
nodes = (
(207,2070,l),
(207,1863,l),
(414,1863,l),
(414,2070,l)
);
},
{
closed = 1;
nodes = (
(3519,2070,l),
(3519,1863,l),
(3726,1863,l),
(3726,2070,l)
);
},
{
closed = 1;
nodes = (
(207,2277,l),
(207,2070,l),
(414,2070,l),
(414,2277,l)
);
},
{
closed = 1;
nodes = (
(3519,2277,l),
(3519,2070,l),
(3726,2070,l),
(3726,2277,l)
);
},
{
closed = 1;
nodes = (
(207,2484,l),
(207,2277,l),
(414,2277,l),
(414,2484,l)
);
},
{
closed = 1;
nodes = (
(1242,2484,l),
(1035,2484,l),
(1035,2368,o),
(1126,2277,o),
(1242,2277,c)
);
},
{
closed = 1;
nodes = (
(3519,2484,l),
(3519,2277,l),
(3726,2277,l),
(3726,2484,l)
);
},
{
closed = 1;
nodes = (
(4554,2484,l),
(4347,2484,l),
(4347,2368,o),
(4438,2277,o),
(4554,2277,c)
);
},
{
closed = 1;
nodes = (
(207,2691,l),
(207,2484,l),
(414,2484,l),
(414,2691,l)
);
},
{
closed = 1;
nodes = (
(414,2691,l),
(414,2484,l),
(414,2600,o),
(505,2691,o),
(621,2691,c)
);
},
{
closed = 1;
nodes = (
(828,2691,l),
(944,2691,o),
(1035,2600,o),
(1035,2484,c),
(1035,2691,l)
);
},
{
closed = 1;
nodes = (
(1035,2691,l),
(1035,2484,l),
(1242,2484,l),
(1242,2691,l)
);
},
{
closed = 1;
nodes = (
(3519,2691,l),
(3519,2484,l),
(3726,2484,l),
(3726,2691,l)
);
},
{
closed = 1;
nodes = (
(3726,2691,l),
(3726,2484,l),
(3726,2600,o),
(3817,2691,o),
(3933,2691,c)
);
},
{
closed = 1;
nodes = (
(4140,2691,l),
(4256,2691,o),
(4347,2600,o),
(4347,2484,c),
(4347,2691,l)
);
},
{
closed = 1;
nodes = (
(4347,2691,l),
(4347,2484,l),
(4554,2484,l),
(4554,2691,l)
);
},
{
closed = 1;
nodes = (
(414,2898,l),
(298,2898,o),
(207,2807,o),
(207,2691,c),
(414,2691,l)
);
},
{
closed = 1;
nodes = (
(414,2898,l),
(414,2691,l),
(621,2691,l),
(621,2898,l)
);
},
{
closed = 1;
nodes = (
(621,2898,l),
(621,2691,l),
(828,2691,l),
(828,2898,l)
);
},
{
closed = 1;
nodes = (
(828,2898,l),
(828,2691,l),
(1035,2691,l),
(1035,2898,l)
);
},
{
closed = 1;
nodes = (
(1035,2691,l),
(1242,2691,l),
(1242,2807,o),
(1151,2898,o),
(1035,2898,c)
);
},
{
closed = 1;
nodes = (
(3726,2898,l),
(3610,2898,o),
(3519,2807,o),
(3519,2691,c),
(3726,2691,l)
);
},
{
closed = 1;
nodes = (
(3726,2898,l),
(3726,2691,l),
(3933,2691,l),
(3933,2898,l)
);
},
{
closed = 1;
nodes = (
(3933,2898,l),
(3933,2691,l),
(4140,2691,l),
(4140,2898,l)
);
},
{
closed = 1;
nodes = (
(4140,2898,l),
(4140,2691,l),
(4347,2691,l),
(4347,2898,l)
);
},
{
closed = 1;
nodes = (
(4347,2691,l),
(4554,2691,l),
(4554,2807,o),
(4463,2898,o),
(4347,2898,c)
);
}
);
width = 4554;
}
);
note = 0.occhiali;
unicode = 73;
}
{
glyphname = L;
layers = (
{
layerId = m01;
shapes = (
{
closed = 1;
nodes = (
(828,207,l),
(621,207,l),
(621,91,o),
(712,0,o),
(828,0,c)
);
},
{
closed = 1;
nodes = (
(828,207,l),
(828,0,l),
(1035,0,l),
(1035,207,l)
);
},
{
closed = 1;
nodes = (
(1035,207,l),
(1035,0,l),
(1242,0,l),
(1242,207,l)
);
},
{
closed = 1;
nodes = (
(1242,0,l),
(1358,0,o),
(1449,91,o),
(1449,207,c),
(1242,207,l)
);
},
{
closed = 1;
nodes = (
(621,414,l),
(621,207,l),
(828,207,l),
(828,414,l)
);
},
{
closed = 1;
nodes = (
(1035,207,l),
(919,207,o),
(828,298,o),
(828,414,c),
(828,207,l)
);
},
{
closed = 1;
nodes = (
(1242,207,l),
(1242,414,l),
(1242,298,o),
(1151,207,o),
(1035,207,c)
);
},
{
closed = 1;
nodes = (
(1242,414,l),
(1242,207,l),
(1449,207,l),
(1449,414,l)
);
},
{
closed = 1;
nodes = (
(621,621,l),
(621,414,l),
(828,414,l),
(828,621,l)
);
},
{
closed = 1;
nodes = (
(1242,621,l),
(1242,414,l),
(1449,414,l),
(1449,621,l)
);
},
{
closed = 1;
nodes = (
(621,828,l),
(621,621,l),
(828,621,l),
(828,828,l)
);
},
{
closed = 1;
nodes = (
(1242,828,l),
(1242,621,l),
(1449,621,l),
(1449,828,l)
);
},
{
closed = 1;
nodes = (
(621,1035,l),
(621,828,l),
(828,828,l),
(828,1035,l)
);
},
{
closed = 1;
nodes = (
(1242,1035,l),
(1242,828,l),
(1449,828,l),
(1449,1035,l)
);
},
{
closed = 1;
nodes = (
(621,1242,l),
(621,1035,l),
(828,1035,l),
(828,1242,l)
);
},
{
closed = 1;
nodes = (
(1242,1242,l),
(1242,1035,l),
(1449,1035,l),
(1449,1242,l)
);
},
{
closed = 1;
nodes = (
(621,1449,l),
(414,1449,l),
(414,1333,o),
(505,1242,o),
(621,1242,c)
);
},
{
closed = 1;
nodes = (
(621,1449,l),
(621,1242,l),
(828,1242,l),
(828,1449,l)
);
},
{
closed = 1;
nodes = (
(1035,1449,l),
(828,1449,l),
(828,1333,o),
(919,1242,o),
(1035,1242,c)
);
},
{
closed = 1;
nodes = (
(1035,1242,l),
(1151,1242,o),
(1242,1333,o),
(1242,1449,c),
(1035,1449,l)
);
},
{
closed = 1;
nodes = (
(1242,1449,l),
(1242,1242,l),
(1449,1242,l),
(1449,1449,l)
);
},
{
closed = 1;
nodes = (
(1449,1242,l),
(1565,1242,o),
(1656,1333,o),
(1656,1449,c),
(1449,1449,l)
);
},
{
closed = 1;
nodes = (
(414,1449,l),
(621,1449,l),
(621,1565,o),
(530,1656,o),
(414,1656,c)
);
},
{
closed = 1;
nodes = (
(828,1656,l),
(712,1656,o),
(621,1565,o),
(621,1449,c),
(828,1449,l)
);
},
{
closed = 1;
nodes = (
(828,1449,l),
(1035,1449,l),
(1035,1565,o),
(944,1656,o),
(828,1656,c)
);
},
{
closed = 1;
nodes = (
(1242,1656,l),
(1126,1656,o),
(1035,1565,o),
(1035,1449,c),
(1242,1449,l)
);
},
{
closed = 1;
nodes = (
(1242,1449,l),
(1449,1449,l),
(1449,1565,o),
(1358,1656,o),
(1242,1656,c)
);
},
{
closed = 1;
nodes = (
(1656,1656,l),
(1540,1656,o),
(1449,1565,o),
(1449,1449,c),
(1656,1449,l)
);
},
{
closed = 1;
nodes = (
(207,1863,l),
(0,1863,l),
(0,1747,o),
(91,1656,o),
(207,1656,c)
);
},
{
closed = 1;
nodes = (
(207,1656,l),
(323,1656,o),
(414,1747,o),
(414,1863,c),
(207,1863,l)
);
},
{
closed = 1;
nodes = (
(621,1863,l),
(414,1863,l),
(414,1747,o),
(505,1656,o),
(621,1656,c)
);
},
{
closed = 1;
nodes = (
(621,1656,l),
(737,1656,o),
(828,1747,o),
(828,1863,c),
(621,1863,l)
);
},
{
closed = 1;
nodes = (
(1035,1863,l),
(828,1863,l),
(828,1747,o),
(919,1656,o),
(1035,1656,c)
);
},
{
closed = 1;
nodes = (
(1035,1656,l),
(1151,1656,o),
(1242,1747,o),
(1242,1863,c),
(1035,1863,l)
);
},
{
closed = 1;
nodes = (
(1449,1863,l),
(1242,1863,l),
(1242,1747,o),
(1333,1656,o),
(1449,1656,c)
);
},
{
closed = 1;
nodes = (
(1449,1656,l),
(1565,1656,o),
(1656,1747,o),
(1656,1863,c),
(1449,1863,l)
);
},
{
closed = 1;
nodes = (
(1863,1863,l),
(1656,1863,l),
(1656,1747,o),
(1747,1656,o),
(1863,1656,c)
);
},
{
closed = 1;
nodes = (
(1863,1656,l),
(1979,1656,o),
(2070,1747,o),
(2070,1863,c),
(1863,1863,l)
);
},
{
closed = 1;
nodes = (
(0,1863,l),
(207,1863,l),
(207,1979,o),
(116,2070,o),
(0,2070,c)
);
},
{
closed = 1;
nodes = (
(414,2070,l),
(298,2070,o),
(207,1979,o),
(207,1863,c),
(414,1863,l)
);
},
{
closed = 1;
nodes = (
(414,1863,l),
(621,1863,l),
(621,1979,o),
(530,2070,o),
(414,2070,c)
);
},
{
closed = 1;
nodes = (
(828,2070,l),
(712,2070,o),
(621,1979,o),
(621,1863,c),
(828,1863,l)
);
},
{
closed = 1;
nodes = (
(828,1863,l),
(1035,1863,l),
(1035,1979,o),
(944,2070,o),
(828,2070,c)
);
},
{
closed = 1;
nodes = (
(1242,2070,l),
(1126,2070,o),
(1035,1979,o),
(1035,1863,c),
(1242,1863,l)
);
},
{
closed = 1;
nodes = (
(1242,1863,l),
(1449,1863,l),
(1449,1979,o),
(1358,2070,o),
(1242,2070,c)
);
},
{
closed = 1;
nodes = (
(1656,2070,l),
(1540,2070,o),
(1449,1979,o),
(1449,1863,c),
(1656,1863,l)
);
},
{
closed = 1;
nodes = (
(1656,1863,l),
(1863,1863,l),
(1863,1979,o),
(1772,2070,o),
(1656,2070,c)
);
},
{
closed = 1;
nodes = (
(2070,2070,l),
(1954,2070,o),
(1863,1979,o),
(1863,1863,c),
(2070,1863,l)
);
},
{
closed = 1;
nodes = (
(621,2277,l),
(414,2277,l),
(414,2161,o),
(505,2070,o),
(621,2070,c)
);
},
{
closed = 1;
nodes = (
(621,2070,l),
(737,2070,o),
(828,2161,o),
(828,2277,c),
(621,2277,l)
);
},
{
closed = 1;
nodes = (
(1035,2277,l),
(828,2277,l),
(828,2161,o),
(919,2070,o),
(1035,2070,c)
);
},
{
closed = 1;
nodes = (
(1035,2070,l),
(1151,2070,o),
(1242,2161,o),
(1242,2277,c),
(1035,2277,l)
);
},
{
closed = 1;
nodes = (
(1449,2277,l),
(1242,2277,l),
(1242,2161,o),
(1333,2070,o),
(1449,2070,c)
);
},
{
closed = 1;
nodes = (
(1449,2070,l),
(1565,2070,o),
(1656,2161,o),
(1656,2277,c),
(1449,2277,l)
);
},
{
closed = 1;
nodes = (
(414,2277,l),
(621,2277,l),
(621,2393,o),
(530,2484,o),
(414,2484,c)
);
},
{
closed = 1;
nodes = (
(828,2484,l),
(712,2484,o),
(621,2393,o),
(621,2277,c),
(828,2277,l)
);
},
{
closed = 1;
nodes = (
(828,2277,l),
(1035,2277,l),
(1035,2393,o),
(944,2484,o),
(828,2484,c)
);
},
{
closed = 1;
nodes = (
(1242,2484,l),
(1126,2484,o),
(1035,2393,o),
(1035,2277,c),
(1242,2277,l)
);
},
{
closed = 1;
nodes = (
(1242,2277,l),
(1449,2277,l),
(1449,2393,o),
(1358,2484,o),
(1242,2484,c)
);
},
{
closed = 1;
nodes = (
(1656,2484,l),
(1540,2484,o),
(1449,2393,o),
(1449,2277,c),
(1656,2277,l)
);
},
{
closed = 1;
nodes = (
(1035,2691,l),
(828,2691,l),
(828,2575,o),
(919,2484,o),
(1035,2484,c)
);
},
{
closed = 1;
nodes = (
(1035,2484,l),
(1151,2484,o),
(1242,2575,o),
(1242,2691,c),
(1035,2691,l)
);
},
{
closed = 1;
nodes = (
(828,2691,l),
(1035,2691,l),
(1035,2807,o),
(944,2898,o),
(828,2898,c)
);
},
{
closed = 1;
nodes = (
(1242,2898,l),
(1126,2898,o),
(1035,2807,o),
(1035,2691,c),
(1242,2691,l)
);
}
);
width = 2070;
}
);
note = 0.albero;
unicode = 76;
}
{
glyphname = Q;
layers = (
{
layerId = m01;
shapes = (
{
closed = 1;
nodes = (
(828,207,l),
(621,207,l),
(621,91,o),
(712,0,o),
(828,0,c)
);
},
{
closed = 1;
nodes = (
(828,0,l),
(944,0,o),
(1035,91,o),
(1035,207,c),
(828,207,l)
);
},
{
closed = 1;
nodes = (
(621,414,l),
(621,207,l),
(828,207,l),
(828,414,l)
);
},
{
closed = 1;
nodes = (
(828,207,l),
(1035,207,l),
(1035,323,o),
(944,414,o),
(828,414,c)
);
},
{
closed = 1;
nodes = (
(621,621,l),
(621,414,l),
(828,414,l),
(828,621,l)
);
},
{
closed = 1;
nodes = (
(828,414,l),
(944,414,o),
(1035,505,o),
(1035,621,c),
(828,621,l)
);
},
{
closed = 1;
nodes = (
(621,828,l),
(621,621,l),
(828,621,l),
(828,828,l)
);
},
{
closed = 1;
nodes = (
(828,828,l),
(828,621,l),
(1035,621,l),
(1035,828,l)
);
},
{
closed = 1;
nodes = (
(621,1035,l),
(621,828,l),
(828,828,l),
(828,1035,l)
);
},
{
closed = 1;
nodes = (
(828,1035,l),
(828,828,l),
(1035,828,l),
(1035,1035,l)
);
},
{
closed = 1;
nodes = (
(621,1242,l),
(621,1035,l),
(828,1035,l),
(828,1242,l)
);
},
{
closed = 1;
nodes = (
(828,1242,l),
(828,1035,l),
(1035,1035,l),
(1035,1242,l)
);
},
{
closed = 1;
nodes = (
(621,1449,l),
(621,1242,l),
(828,1242,l),
(828,1449,l)
);
},
{
closed = 1;
nodes = (
(828,1449,l),
(828,1242,l),
(1035,1242,l),
(1035,1449,l)
);
},
{
closed = 1;
nodes = (
(621,1656,l),
(621,1449,l),
(828,1449,l),
(828,1656,l)
);
},
{
closed = 1;
nodes = (
(828,1656,l),
(828,1449,l),
(1035,1449,l),
(1035,1656,l)
);
},
{
closed = 1;
nodes = (
(621,1863,l),
(621,1656,l),
(828,1656,l),
(828,1863,l)
);
},
{
closed = 1;
nodes = (
(828,1863,l),
(828,1656,l),
(1035,1656,l),
(1035,1863,l)
);
},
{
closed = 1;
nodes = (
(621,2070,l),
(621,1863,l),
(828,1863,l),
(828,2070,l)
);
},
{
closed = 1;
nodes = (
(828,2070,l),
(828,1863,l),
(1035,1863,l),
(1035,2070,l)
);
},
{
closed = 1;
nodes = (
(621,2277,l),
(621,2070,l),
(828,2070,l),
(828,2277,l)
);
},
{
closed = 1;
nodes = (
(828,2277,l),
(828,2070,l),
(1035,2070,l),
(1035,2277,l)
);
},
{
closed = 1;
nodes = (
(621,2484,l),
(621,2277,l),
(828,2277,l),
(828,2484,l)
);
},
{
closed = 1;
nodes = (
(828,2484,l),
(828,2277,l),
(1035,2277,l),
(1035,2484,l)
);
},
{
closed = 1;
nodes = (
(0,2484,l),
(116,2484,o),
(207,2575,o),
(207,2691,c),
(0,2691,l)
);
},
{
closed = 1;
nodes = (
(414,2691,l),
(207,2691,l),
(207,2575,o),
(298,2484,o),
(414,2484,c)
);
},
{
closed = 1;
nodes = (
(414,2691,l),
(414,2484,l),
(621,2484,l),
(621,2691,l)
);
},
{
closed = 1;
nodes = (
(621,2691,l),
(621,2484,l),
(828,2484,l),
(828,2691,l)
);
},
{
closed = 1;
nodes = (
(828,2691,l),
(828,2484,l),
(1035,2484,l),
(1035,2691,l)
);
},
{
closed = 1;
nodes = (
(1035,2691,l),
(1035,2484,l),
(1242,2484,l),
(1242,2691,l)
);
},
{
closed = 1;
nodes = (
(1242,2691,l),
(1242,2484,l),
(1449,2484,l),
(1449,2691,l)
);
},
{
closed = 1;
nodes = (
(1449,2691,l),
(1449,2484,l),
(1656,2484,l),
(1656,2691,l)
);
},
{
closed = 1;
nodes = (
(1656,2484,l),
(1863,2484,l),
(1863,2600,o),
(1772,2691,o),
(1656,2691,c)
);
},
{
closed = 1;
nodes = (
(0,2898,l),
(0,2691,l),
(207,2691,l),
(207,2898,l)
);
},
{
closed = 1;
nodes = (
(207,2898,l),
(207,2691,l),
(414,2691,l),
(414,2898,l)
);
},
{
closed = 1;
nodes = (
(414,2898,l),
(414,2691,l),
(621,2691,l),
(621,2898,l)
);
},
{
closed = 1;
nodes = (
(621,2898,l),
(621,2691,l),
(828,2691,l),
(828,2898,l)
);
},
{
closed = 1;
nodes = (
(828,2898,l),
(828,2691,l),
(1035,2691,l),
(1035,2898,l)
);
},
{
closed = 1;
nodes = (
(1035,2898,l),
(1035,2691,l),
(1242,2691,l),
(1242,2898,l)
);
},
{
closed = 1;
nodes = (
(1242,2898,l),
(1242,2691,l),
(1449,2691,l),
(1449,2898,l)
);
},
{
closed = 1;
nodes = (
(1449,2691,l),
(1656,2691,l),
(1656,2807,o),
(1565,2898,o),
(1449,2898,c)
);
}
);
width = 1863;
}
);
note = 0.martello;
unicode = 81;
}
{
glyphname = S;
layers = (
{
layerId = m01;
shapes = (
{
closed = 1;
nodes = (
(621,207,l),
(414,207,l),
(414,91,o),
(505,0,o),
(621,0,c)
);
},
{
closed = 1;
nodes = (
(621,0,l),
(737,0,o),
(828,91,o),
(828,207,c),
(621,207,l)
);
},
{
closed = 1;
nodes = (
(414,207,l),
(621,207,l),
(621,323,o),
(530,414,o),
(414,414,c)
);
},
{
closed = 1;
nodes = (
(828,414,l),
(712,414,o),
(621,323,o),
(621,207,c),
(828,207,l)
);
},
{
closed = 1;
nodes = (
(414,621,l),
(207,621,l),
(207,505,o),
(298,414,o),
(414,414,c)
);
},
{
closed = 1;
nodes = (
(414,414,l),
(530,414,o),
(621,505,o),
(621,621,c),
(414,621,l)
);
},
{
closed = 1;
nodes = (
(828,621,l),
(621,621,l),
(621,505,o),
(712,414,o),
(828,414,c)
);
},
{
closed = 1;
nodes = (
(828,414,l),
(944,414,o),
(1035,505,o),
(1035,621,c),
(828,621,l)
);
},
{
closed = 1;
nodes = (
(207,621,l),
(414,621,l),
(414,737,o),
(323,828,o),
(207,828,c)
);
},
{
closed = 1;
nodes = (
(621,828,l),
(505,828,o),
(414,737,o),
(414,621,c),
(621,621,l)
);
},
{
closed = 1;
nodes = (
(621,621,l),
(828,621,l),
(828,737,o),
(737,828,o),
(621,828,c)
);
},
{
closed = 1;
nodes = (
(1035,828,l),
(919,828,o),
(828,737,o),
(828,621,c),
(1035,621,l)
);
},
{
closed = 1;
nodes = (
(207,1035,l),
(0,1035,l),
(0,919,o),
(91,828,o),
(207,828,c)
);
},
{
closed = 1;
nodes = (
(207,828,l),
(323,828,o),
(414,919,o),
(414,1035,c),
(207,1035,l)
);
},
{
closed = 1;
nodes = (
(621,1035,l),
(414,1035,l),
(414,919,o),
(505,828,o),
(621,828,c)
);
},
{
closed = 1;
nodes = (
(621,828,l),
(737,828,o),
(828,919,o),
(828,1035,c),
(621,1035,l)
);
},
{
closed = 1;
nodes = (
(1035,1035,l),
(828,1035,l),
(828,919,o),
(919,828,o),
(1035,828,c)
);
},
{
closed = 1;
nodes = (
(1035,828,l),
(1151,828,o),
(1242,919,o),
(1242,1035,c),
(1035,1035,l)
);
},
{
closed = 1;
nodes = (
(207,1242,l),
(91,1242,o),
(0,1151,o),
(0,1035,c),
(207,1035,l)
);
},
{
closed = 1;
nodes = (
(207,1242,l),
(207,1035,l),
(414,1035,l),
(414,1242,l)
);
},
{
closed = 1;
nodes = (
(414,1242,l),
(414,1035,l),
(621,1035,l),
(621,1242,l)
);
},
{
closed = 1;
nodes = (
(621,1242,l),
(621,1035,l),
(828,1035,l),
(828,1242,l)
);
},
{
closed = 1;
nodes = (
(828,1242,l),
(828,1035,l),
(1035,1035,l),
(1035,1242,l)
);
},
{
closed = 1;
nodes = (
(1035,1035,l),
(1242,1035,l),
(1242,1151,o),
(1151,1242,o),
(1035,1242,c)
);
},
{
closed = 1;
nodes = (
(207,1449,l),
(0,1449,l),
(0,1333,o),
(91,1242,o),
(207,1242,c)
);
},
{
closed = 1;
nodes = (
(414,1242,l),
(298,1242,o),
(207,1333,o),
(207,1449,c),
(207,1242,l)
);
},
{
closed = 1;
nodes = (
(414,1449,l),
(414,1242,l),
(621,1242,l),
(621,1449,l)
);
},
{
closed = 1;
nodes = (
(621,1449,l),
(621,1242,l),
(828,1242,l),
(828,1449,l)
);
},
{
closed = 1;
nodes = (
(1035,1242,l),
(1035,1449,l),
(1035,1333,o),
(944,1242,o),
(828,1242,c)
);
},
{
closed = 1;
nodes = (
(1035,1242,l),
(1151,1242,o),
(1242,1333,o),
(1242,1449,c),
(1035,1449,l)
);
},
{
closed = 1;
nodes = (
(0,1449,l),
(207,1449,l),
(207,1565,o),
(116,1656,o),
(0,1656,c)
);
},
{
closed = 1;
nodes = (
(621,1656,l),
(505,1656,o),
(414,1565,o),
(414,1449,c),
(621,1449,l)
);
},
{
closed = 1;
nodes = (
(621,1449,l),
(828,1449,l),
(828,1565,o),
(737,1656,o),
(621,1656,c)
);
},
{
closed = 1;
nodes = (
(1242,1656,l),
(1126,1656,o),
(1035,1565,o),
(1035,1449,c),
(1242,1449,l)
);
},
{
closed = 1;
nodes = (
(414,1863,l),
(207,1863,l),
(207,1747,o),
(298,1656,o),
(414,1656,c)
);
},
{
closed = 1;
nodes = (
(414,1863,l),
(414,1656,l),
(621,1656,l),
(621,1863,l)
);
},
{
closed = 1;
nodes = (
(621,1863,l),
(621,1656,l),
(828,1656,l),
(828,1863,l)
);
},
{
closed = 1;
nodes = (
(828,1656,l),
(944,1656,o),
(1035,1747,o),
(1035,1863,c),
(828,1863,l)
);
},
{
closed = 1;
nodes = (
(207,1863,l),
(414,1863,l),
(414,1979,o),
(323,2070,o),
(207,2070,c)
);
},
{
closed = 1;
nodes = (
(621,2070,l),
(505,2070,o),
(414,1979,o),
(414,1863,c),
(621,1863,l)
);
},
{
closed = 1;
nodes = (
(621,1863,l),
(828,1863,l),
(828,1979,o),
(737,2070,o),
(621,2070,c)
);
},
{
closed = 1;
nodes = (
(1035,2070,l),
(919,2070,o),
(828,1979,o),
(828,1863,c),
(1035,1863,l)
);
},
{
closed = 1;
nodes = (
(414,2277,l),
(207,2277,l),
(207,2161,o),
(298,2070,o),
(414,2070,c)
);
},
{
closed = 1;
nodes = (
(414,2277,l),
(414,2070,l),
(621,2070,l),
(621,2277,l)
);
},
{
closed = 1;
nodes = (
(621,2277,l),
(621,2070,l),
(828,2070,l),
(828,2277,l)
);
},
{
closed = 1;
nodes = (
(828,2070,l),
(944,2070,o),
(1035,2161,o),
(1035,2277,c),
(828,2277,l)
);
},
{
closed = 1;
nodes = (
(207,2277,l),
(414,2277,l),
(414,2393,o),
(323,2484,o),
(207,2484,c)
);
},
{
closed = 1;
nodes = (
(621,2484,l),
(505,2484,o),
(414,2393,o),
(414,2277,c),
(621,2277,l)
);
},
{
closed = 1;
nodes = (
(621,2277,l),
(828,2277,l),
(828,2393,o),
(737,2484,o),
(621,2484,c)
);
},
{
closed = 1;
nodes = (
(1035,2484,l),
(919,2484,o),
(828,2393,o),
(828,2277,c),
(1035,2277,l)
);
},
{
closed = 1;
nodes = (
(621,2691,l),
(414,2691,l),
(414,2575,o),
(505,2484,o),
(621,2484,c)
);
},
{
closed = 1;
nodes = (
(621,2484,l),
(737,2484,o),
(828,2575,o),
(828,2691,c),
(621,2691,l)
);
},
{
closed = 1;
nodes = (
(414,2691,l),
(621,2691,l),
(621,2807,o),
(530,2898,o),
(414,2898,c)
);
},
{
closed = 1;
nodes = (
(828,2898,l),
(712,2898,o),
(621,2807,o),
(621,2691,c),
(828,2691,l)
);
}
);
width = 1242;
}
);
note = 0.spiga;
unicode = 83;
}
{
glyphname = V;
layers = (
{
layerId = m01;
shapes = (
{
closed = 1;
nodes = (
(207,207,l),
(0,207,l),
(0,91,o),
(91,0,o),
(207,0,c)
);
},
{
closed = 1;
nodes = (
(207,207,l),
(207,0,l),
(414,0,l),
(414,207,l)
);
},
{
closed = 1;
nodes = (
(414,207,l),
(414,0,l),
(621,0,l),
(621,207,l)
);
},
{
closed = 1;
nodes = (
(621,0,l),
(737,0,o),
(828,91,o),
(828,207,c),
(621,207,l)
);
},
{
closed = 1;
nodes = (
(1035,207,l),
(828,207,l),
(828,91,o),
(919,0,o),
(1035,0,c)
);
},
{
closed = 1;
nodes = (
(1035,207,l),
(1035,0,l),
(1242,0,l),
(1242,207,l)
);
},
{
closed = 1;
nodes = (
(1242,207,l),
(1242,0,l),
(1449,0,l),
(1449,207,l)
);
},
{
closed = 1;
nodes = (
(1449,207,l),
(1449,0,l),
(1656,0,l),
(1656,207,l)
);
},
{
closed = 1;
nodes = (
(1656,207,l),
(1656,0,l),
(1863,0,l),
(1863,207,l)
);
},
{
closed = 1;
nodes = (
(1863,207,l),
(1863,0,l),
(2070,0,l),
(2070,207,l)
);
},
{
closed = 1;
nodes = (
(2070,207,l),
(2070,0,l),
(2277,0,l),
(2277,207,l)
);
},
{
closed = 1;
nodes = (
(2277,207,l),
(2277,0,l),
(2484,0,l),
(2484,207,l)
);
},
{
closed = 1;
nodes = (
(2484,207,l),
(2484,0,l),
(2691,0,l),
(2691,207,l)
);
},
{
closed = 1;
nodes = (
(2691,207,l),
(2691,0,l),
(2898,0,l),
(2898,207,l)
);
},
{
closed = 1;
nodes = (
(2898,207,l),
(2898,0,l),
(3105,0,l),
(3105,207,l)
);
},
{
closed = 1;
nodes = (
(3105,207,l),
(3105,0,l),
(3312,0,l),
(3312,207,l)
);
},
{
closed = 1;
nodes = (
(3312,207,l),
(3312,0,l),
(3519,0,l),
(3519,207,l)
);
},
{
closed = 1;
nodes = (
(3519,0,l),
(3635,0,o),
(3726,91,o),
(3726,207,c),
(3519,207,l)
);
},
{
closed = 1;
nodes = (
(0,414,l),
(0,207,l),
(207,207,l),
(207,414,l)
);
},
{
closed = 1;
nodes = (
(828,414,l),
(712,414,o),
(621,323,o),
(621,207,c),
(828,207,l)
);
},
{
closed = 1;
nodes = (
(828,207,l),
(1035,207,l),
(1035,323,o),
(944,414,o),
(828,414,c)
);
},
{
closed = 1;
nodes = (
(3726,414,l),
(3610,414,o),
(3519,323,o),
(3519,207,c),
(3726,207,l)
);
},
{
closed = 1;
nodes = (
(3726,207,l),
(3842,207,o),
(3933,298,o),
(3933,414,c),
(3726,414,l)
);
},
{
closed = 1;
nodes = (
(0,621,l),
(0,414,l),
(207,414,l),
(207,621,l)
);
},
{
closed = 1;
nodes = (
(828,621,l),
(621,621,l),
(621,505,o),
(712,414,o),
(828,414,c)
);
},
{
closed = 1;
nodes = (
(828,414,l),
(944,414,o),
(1035,505,o),
(1035,621,c),
(828,621,l)
);
},
{
closed = 1;
nodes = (
(3726,621,l),
(3519,621,l),
(3519,505,o),
(3610,414,o),
(3726,414,c)
);
},
{
closed = 1;
nodes = (
(3726,414,l),
(3933,414,l),
(3933,530,o),
(3842,621,o),
(3726,621,c)
);
},
{
closed = 1;
nodes = (
(0,828,l),
(0,621,l),
(207,621,l),
(207,828,l)
);
},
{
closed = 1;
nodes = (
(828,828,l),
(712,828,o),
(621,737,o),
(621,621,c),
(828,621,l)
);
},
{
closed = 1;
nodes = (
(828,621,l),
(1035,621,l),
(1035,737,o),
(944,828,o),
(828,828,c)
);
},
{
closed = 1;
nodes = (
(3726,828,l),
(3610,828,o),
(3519,737,o),
(3519,621,c),
(3726,621,l)
);
},
{
closed = 1;
nodes = (
(3726,621,l),
(3842,621,o),
(3933,712,o),
(3933,828,c),
(3726,828,l)
);
},
{
closed = 1;
nodes = (
(0,1035,l),
(0,828,l),
(207,828,l),
(207,1035,l)
);
},
{
closed = 1;
nodes = (
(828,1035,l),
(621,1035,l),
(621,919,o),
(712,828,o),
(828,828,c)
);
},
{
closed = 1;
nodes = (
(828,828,l),
(944,828,o),
(1035,919,o),
(1035,1035,c),
(828,1035,l)
);
},
{
closed = 1;
nodes = (
(3726,1035,l),
(3519,1035,l),
(3519,919,o),
(3610,828,o),
(3726,828,c)
);
},
{
closed = 1;
nodes = (
(3726,828,l),
(3933,828,l),
(3933,944,o),
(3842,1035,o),
(3726,1035,c)
);
},
{
closed = 1;
nodes = (
(0,1242,l),
(0,1035,l),
(207,1035,l),
(207,1242,l)
);
},
{
closed = 1;
nodes = (
(828,1242,l),
(712,1242,o),
(621,1151,o),
(621,1035,c),
(828,1035,l)
);
},
{
closed = 1;
nodes = (
(828,1035,l),
(1035,1035,l),
(1035,1151,o),
(944,1242,o),
(828,1242,c)
);
},
{
closed = 1;
nodes = (
(3726,1242,l),
(3610,1242,o),
(3519,1151,o),
(3519,1035,c),
(3726,1035,l)
);
},
{
closed = 1;
nodes = (
(3726,1035,l),
(3842,1035,o),
(3933,1126,o),
(3933,1242,c),
(3726,1242,l)
);
},
{
closed = 1;
nodes = (
(0,1449,l),
(0,1242,l),
(207,1242,l),
(207,1449,l)
);
},
{
closed = 1;
nodes = (
(828,1449,l),
(621,1449,l),
(621,1333,o),
(712,1242,o),
(828,1242,c)
);
},
{
closed = 1;
nodes = (
(828,1242,l),
(944,1242,o),
(1035,1333,o),
(1035,1449,c),
(828,1449,l)
);
},
{
closed = 1;
nodes = (
(3726,1449,l),
(3519,1449,l),
(3519,1333,o),
(3610,1242,o),
(3726,1242,c)
);
},
{
closed = 1;
nodes = (
(3726,1242,l),
(3933,1242,l),
(3933,1358,o),
(3842,1449,o),
(3726,1449,c)
);
},
{
closed = 1;
nodes = (
(0,1656,l),
(0,1449,l),
(207,1449,l),
(207,1656,l)
);
},
{
closed = 1;
nodes = (
(828,1656,l),
(712,1656,o),
(621,1565,o),
(621,1449,c),
(828,1449,l)
);
},
{
closed = 1;
nodes = (
(828,1449,l),
(1035,1449,l),
(1035,1565,o),
(944,1656,o),
(828,1656,c)
);
},
{
closed = 1;
nodes = (
(1449,1656,l),
(1333,1656,o),
(1242,1565,o),
(1242,1449,c),
(1449,1449,l)
);
},
{
closed = 1;
nodes = (
(1449,1656,l),
(1449,1449,l),
(1656,1449,l),
(1656,1656,l)
);
},
{
closed = 1;
nodes = (
(1656,1656,l),
(1656,1449,l),
(1863,1449,l),
(1863,1656,l)
);
},
{
closed = 1;
nodes = (
(1863,1656,l),
(1863,1449,l),
(2070,1449,l),
(2070,1656,l)
);
},
{
closed = 1;
nodes = (
(2070,1656,l),
(2070,1449,l),
(2277,1449,l),
(2277,1656,l)
);
},
{
closed = 1;
nodes = (
(2277,1656,l),
(2277,1449,l),
(2484,1449,l),
(2484,1656,l)
);
},
{
closed = 1;
nodes = (
(2484,1656,l),
(2484,1449,l),
(2691,1449,l),
(2691,1656,l)
);
},
{
closed = 1;
nodes = (
(2691,1656,l),
(2691,1449,l),
(2898,1449,l),
(2898,1656,l)
);
},
{
closed = 1;
nodes = (
(2898,1656,l),
(2898,1449,l),
(3105,1449,l),
(3105,1656,l)
);
},
{
closed = 1;
nodes = (
(3105,1449,l),
(3221,1449,o),
(3312,1540,o),
(3312,1656,c),
(3105,1656,l)
);
},
{
closed = 1;
nodes = (
(3726,1656,l),
(3610,1656,o),
(3519,1565,o),
(3519,1449,c),
(3726,1449,l)
);
},
{
closed = 1;
nodes = (
(3726,1449,l),
(3842,1449,o),
(3933,1540,o),
(3933,1656,c),
(3726,1656,l)
);
},
{
closed = 1;
nodes = (
(0,1863,l),
(0,1656,l),
(207,1656,l),
(207,1863,l)
);
},
{
closed = 1;
nodes = (
(828,1863,l),
(621,1863,l),
(621,1747,o),
(712,1656,o),
(828,1656,c)
);
},
{
closed = 1;
nodes = (
(828,1656,l),
(944,1656,o),
(1035,1747,o),
(1035,1863,c),
(828,1863,l)
);
},
{
closed = 1;
nodes = (
(3726,1863,l),
(3519,1863,l),
(3519,1747,o),
(3610,1656,o),
(3726,1656,c)
);
},
{
closed = 1;
nodes = (
(3726,1656,l),
(3933,1656,l),
(3933,1772,o),
(3842,1863,o),
(3726,1863,c)
);
},
{
closed = 1;
nodes = (
(0,2070,l),
(0,1863,l),
(207,1863,l),
(207,2070,l)
);
},
{
closed = 1;
nodes = (
(828,2070,l),
(712,2070,o),
(621,1979,o),
(621,1863,c),
(828,1863,l)
);
},
{
closed = 1;
nodes = (
(828,1863,l),
(1035,1863,l),
(1035,1979,o),
(944,2070,o),
(828,2070,c)
);
},
{
closed = 1;
nodes = (
(1449,2070,l),
(1333,2070,o),
(1242,1979,o),
(1242,1863,c),
(1449,1863,l)
);
},
{
closed = 1;
nodes = (
(1449,2070,l),
(1449,1863,l),
(1656,1863,l),
(1656,2070,l)
);
},
{
closed = 1;
nodes = (
(1656,2070,l),
(1656,1863,l),
(1863,1863,l),
(1863,2070,l)
);
},
{
closed = 1;
nodes = (
(1863,2070,l),
(1863,1863,l),
(2070,1863,l),
(2070,2070,l)
);
},
{
closed = 1;
nodes = (
(2070,2070,l),
(2070,1863,l),
(2277,1863,l),
(2277,2070,l)
);
},
{
closed = 1;
nodes = (
(2277,2070,l),
(2277,1863,l),
(2484,1863,l),
(2484,2070,l)
);
},
{
closed = 1;
nodes = (
(2484,2070,l),
(2484,1863,l),
(2691,1863,l),
(2691,2070,l)
);
},
{
closed = 1;
nodes = (
(2691,2070,l),
(2691,1863,l),
(2898,1863,l),
(2898,2070,l)
);
},
{
closed = 1;
nodes = (
(2898,2070,l),
(2898,1863,l),
(3105,1863,l),
(3105,2070,l)
);
},
{
closed = 1;
nodes = (
(3105,1863,l),
(3221,1863,o),
(3312,1954,o),
(3312,2070,c),
(3105,2070,l)
);
},
{
closed = 1;
nodes = (
(3726,2070,l),
(3610,2070,o),
(3519,1979,o),
(3519,1863,c),
(3726,1863,l)
);
},
{
closed = 1;
nodes = (
(3726,1863,l),
(3842,1863,o),
(3933,1954,o),
(3933,2070,c),
(3726,2070,l)
);
},
{
closed = 1;
nodes = (
(0,2277,l),
(0,2070,l),
(207,2070,l),
(207,2277,l)
);
},
{
closed = 1;
nodes = (
(828,2277,l),
(621,2277,l),
(621,2161,o),
(712,2070,o),
(828,2070,c)
);
},
{
closed = 1;
nodes = (
(828,2070,l),
(944,2070,o),
(1035,2161,o),
(1035,2277,c),
(828,2277,l)
);
},
{
closed = 1;
nodes = (
(3726,2277,l),
(3519,2277,l),
(3519,2161,o),
(3610,2070,o),
(3726,2070,c)
);
},
{
closed = 1;
nodes = (
(3726,2070,l),
(3933,2070,l),
(3933,2186,o),
(3842,2277,o),
(3726,2277,c)
);
},
{
closed = 1;
nodes = (
(0,2484,l),
(0,2277,l),
(207,2277,l),
(207,2484,l)
);
},
{
closed = 1;
nodes = (
(828,2484,l),
(712,2484,o),
(621,2393,o),
(621,2277,c),
(828,2277,l)
);
},
{
closed = 1;
nodes = (
(828,2277,l),
(1035,2277,l),
(1035,2393,o),
(944,2484,o),
(828,2484,c)
);
},
{
closed = 1;
nodes = (
(1449,2484,l),
(1333,2484,o),
(1242,2393,o),
(1242,2277,c),
(1449,2277,l)
);
},
{
closed = 1;
nodes = (
(1449,2484,l),
(1449,2277,l),
(1656,2277,l),
(1656,2484,l)
);
},
{
closed = 1;
nodes = (
(1656,2484,l),
(1656,2277,l),
(1863,2277,l),
(1863,2484,l)
);
},
{
closed = 1;
nodes = (
(1863,2484,l),
(1863,2277,l),
(2070,2277,l),
(2070,2484,l)
);
},
{
closed = 1;
nodes = (
(2070,2484,l),
(2070,2277,l),
(2277,2277,l),
(2277,2484,l)
);
},
{
closed = 1;
nodes = (
(2277,2484,l),
(2277,2277,l),
(2484,2277,l),
(2484,2484,l)
);
},
{
closed = 1;
nodes = (
(2484,2484,l),
(2484,2277,l),
(2691,2277,l),
(2691,2484,l)
);
},
{
closed = 1;
nodes = (
(2691,2484,l),
(2691,2277,l),
(2898,2277,l),
(2898,2484,l)
);
},
{
closed = 1;
nodes = (
(2898,2484,l),
(2898,2277,l),
(3105,2277,l),
(3105,2484,l)
);
},
{
closed = 1;
nodes = (
(3105,2277,l),
(3221,2277,o),
(3312,2368,o),
(3312,2484,c),
(3105,2484,l)
);
},
{
closed = 1;
nodes = (
(3726,2484,l),
(3610,2484,o),
(3519,2393,o),
(3519,2277,c),
(3726,2277,l)
);
},
{
closed = 1;
nodes = (
(3726,2277,l),
(3842,2277,o),
(3933,2368,o),
(3933,2484,c),
(3726,2484,l)
);
},
{
closed = 1;
nodes = (
(0,2691,l),
(0,2484,l),
(207,2484,l),
(207,2691,l)
);
},
{
closed = 1;
nodes = (
(828,2691,l),
(621,2691,l),
(621,2575,o),
(712,2484,o),
(828,2484,c)
);
},
{
closed = 1;
nodes = (
(828,2484,l),
(944,2484,o),
(1035,2575,o),
(1035,2691,c),
(828,2691,l)
);
},
{
closed = 1;
nodes = (
(3726,2691,l),
(3519,2691,l),
(3519,2575,o),
(3610,2484,o),
(3726,2484,c)
);
},
{
closed = 1;
nodes = (
(3726,2484,l),
(3933,2484,l),
(3933,2600,o),
(3842,2691,o),
(3726,2691,c)
);
},
{
closed = 1;
nodes = (
(207,2898,l),
(91,2898,o),
(0,2807,o),
(0,2691,c),
(207,2691,l)
);
},
{
closed = 1;
nodes = (
(207,2898,l),
(207,2691,l),
(414,2691,l),
(414,2898,l)
);
},
{
closed = 1;
nodes = (
(414,2898,l),
(414,2691,l),
(621,2691,l),
(621,2898,l)
);
},
{
closed = 1;
nodes = (
(621,2691,l),
(828,2691,l),
(828,2807,o),
(737,2898,o),
(621,2898,c)
);
},
{
closed = 1;
nodes = (
(1035,2898,l),
(919,2898,o),
(828,2807,o),
(828,2691,c),
(1035,2691,l)
);
},
{
closed = 1;
nodes = (
(1035,2898,l),
(1035,2691,l),
(1242,2691,l),
(1242,2898,l)
);
},
{
closed = 1;
nodes = (
(1242,2898,l),
(1242,2691,l),
(1449,2691,l),
(1449,2898,l)
);
},
{
closed = 1;
nodes = (
(1449,2898,l),
(1449,2691,l),
(1656,2691,l),
(1656,2898,l)
);
},
{
closed = 1;
nodes = (
(1656,2898,l),
(1656,2691,l),
(1863,2691,l),
(1863,2898,l)
);
},
{
closed = 1;
nodes = (
(1863,2898,l),
(1863,2691,l),
(2070,2691,l),
(2070,2898,l)
);
},
{
closed = 1;
nodes = (
(2070,2898,l),
(2070,2691,l),
(2277,2691,l),
(2277,2898,l)
);
},
{
closed = 1;
nodes = (
(2277,2898,l),
(2277,2691,l),
(2484,2691,l),
(2484,2898,l)
);
},
{
closed = 1;
nodes = (
(2484,2898,l),
(2484,2691,l),
(2691,2691,l),
(2691,2898,l)
);
},
{
closed = 1;
nodes = (
(2691,2898,l),
(2691,2691,l),
(2898,2691,l),
(2898,2898,l)
);
},
{
closed = 1;
nodes = (
(2898,2898,l),
(2898,2691,l),
(3105,2691,l),
(3105,2898,l)
);
},
{
closed = 1;
nodes = (
(3105,2898,l),
(3105,2691,l),
(3312,2691,l),
(3312,2898,l)
);
},
{
closed = 1;
nodes = (
(3312,2898,l),
(3312,2691,l),
(3519,2691,l),
(3519,2898,l)
);
},
{
closed = 1;
nodes = (
(3519,2691,l),
(3726,2691,l),
(3726,2807,o),
(3635,2898,o),
(3519,2898,c)
);
}
);
width = 3933;
}
);
note = Ticket_2;
unicode = 86;
}
{
glyphname = X;
layers = (
{
layerId = m01;
shapes = (
{
closed = 1;
nodes = (
(207,207,l),
(0,207,l),
(0,91,o),
(91,0,o),
(207,0,c)
);
},
{
closed = 1;
nodes = (
(207,0,l),
(323,0,o),
(414,91,o),
(414,207,c),
(207,207,l)
);
},
{
closed = 1;
nodes = (
(621,207,l),
(414,207,l),
(414,91,o),
(505,0,o),
(621,0,c)
);
},
{
closed = 1;
nodes = (
(621,0,l),
(737,0,o),
(828,91,o),
(828,207,c),
(621,207,l)
);
},
{
closed = 1;
nodes = (
(2277,207,l),
(2070,207,l),
(2070,91,o),
(2161,0,o),
(2277,0,c)
);
},
{
closed = 1;
nodes = (
(2277,0,l),
(2393,0,o),
(2484,91,o),
(2484,207,c),
(2277,207,l)
);
},
{
closed = 1;
nodes = (
(2691,207,l),
(2484,207,l),
(2484,91,o),
(2575,0,o),
(2691,0,c)
);
},
{
closed = 1;
nodes = (
(2691,0,l),
(2807,0,o),
(2898,91,o),
(2898,207,c),
(2691,207,l)
);
},
{
closed = 1;
nodes = (
(0,414,l),
(0,207,l),
(207,207,l),
(207,414,l)
);
},
{
closed = 1;
nodes = (
(207,207,l),
(414,207,l),
(414,323,o),
(323,414,o),
(207,414,c)
);
},
{
closed = 1;
nodes = (
(621,414,l),
(505,414,o),
(414,323,o),
(414,207,c),
(621,207,l)
);
},
{
closed = 1;
nodes = (
(621,414,l),
(621,207,l),
(828,207,l),
(828,414,l)
);
},
{
closed = 1;
nodes = (
(828,414,l),
(828,207,l),
(1035,207,l),
(1035,414,l)
);
},
{
closed = 1;
nodes = (
(1035,414,l),
(1035,207,l),
(1242,207,l),
(1242,414,l)
);
},
{
closed = 1;
nodes = (
(1242,414,l),
(1242,207,l),
(1449,207,l),
(1449,414,l)
);
},
{
closed = 1;
nodes = (
(1449,414,l),
(1449,207,l),
(1656,207,l),
(1656,414,l)
);
},
{
closed = 1;
nodes = (
(1656,414,l),
(1656,207,l),
(1863,207,l),
(1863,414,l)
);
},
{
closed = 1;
nodes = (
(1863,414,l),
(1863,207,l),
(2070,207,l),
(2070,414,l)
);
},
{
closed = 1;
nodes = (
(2070,414,l),
(2070,207,l),
(2277,207,l),
(2277,414,l)
);
},
{
closed = 1;
nodes = (
(2277,207,l),
(2484,207,l),
(2484,323,o),
(2393,414,o),
(2277,414,c)
);
},
{
closed = 1;
nodes = (
(2691,414,l),
(2575,414,o),
(2484,323,o),
(2484,207,c),
(2691,207,l)
);
},
{
closed = 1;
nodes = (
(2691,414,l),
(2691,207,l),
(2898,207,l),
(2898,414,l)
);
},
{
closed = 1;
nodes = (
(0,621,l),
(0,414,l),
(207,414,l),
(207,621,l)
);
},
{
closed = 1;
nodes = (
(207,414,l),
(323,414,o),
(414,505,o),
(414,621,c),
(207,621,l)
);
},
{
closed = 1;
nodes = (
(2691,621,l),
(2484,621,l),
(2484,505,o),
(2575,414,o),
(2691,414,c)
);
},
{
closed = 1;
nodes = (
(2691,621,l),
(2691,414,l),
(2898,414,l),
(2898,621,l)
);
},
{
closed = 1;
nodes = (
(207,828,l),
(91,828,o),
(0,737,o),
(0,621,c),
(207,621,l)
);
},
{
closed = 1;
nodes = (
(207,828,l),
(207,621,l),
(414,621,l),
(414,828,l)
);
},
{
closed = 1;
nodes = (
(1035,828,l),
(828,828,l),
(828,712,o),
(919,621,o),
(1035,621,c)
);
},
{
closed = 1;
nodes = (
(1035,621,l),
(1151,621,o),
(1242,712,o),
(1242,828,c),
(1035,828,l)
);
},
{
closed = 1;
nodes = (
(1863,828,l),
(1656,828,l),
(1656,712,o),
(1747,621,o),
(1863,621,c)
);
},
{
closed = 1;
nodes = (
(1863,621,l),
(1979,621,o),
(2070,712,o),
(2070,828,c),
(1863,828,l)
);
},
{
closed = 1;
nodes = (
(2484,828,l),
(2484,621,l),
(2691,621,l),
(2691,828,l)
);
},
{
closed = 1;
nodes = (
(2691,621,l),
(2898,621,l),
(2898,737,o),
(2807,828,o),
(2691,828,c)
);
},
{
closed = 1;
nodes = (
(207,1035,l),
(207,828,l),
(414,828,l),
(414,1035,l)
);
},
{
closed = 1;
nodes = (
(828,1035,l),
(621,1035,l),
(621,919,o),
(712,828,o),
(828,828,c)
);
},
{
closed = 1;
nodes = (
(828,828,l),
(1035,828,l),
(1035,944,o),
(944,1035,o),
(828,1035,c)
);
},
{
closed = 1;
nodes = (
(1242,1035,l),
(1126,1035,o),
(1035,944,o),
(1035,828,c),
(1242,828,l)
);
},
{
closed = 1;
nodes = (
(1242,828,l),
(1358,828,o),
(1449,919,o),
(1449,1035,c),
(1242,1035,l)
);
},
{
closed = 1;
nodes = (
(1656,1035,l),
(1449,1035,l),
(1449,919,o),
(1540,828,o),
(1656,828,c)
);
},
{
closed = 1;
nodes = (
(1656,828,l),
(1863,828,l),
(1863,944,o),
(1772,1035,o),
(1656,1035,c)
);
},
{
closed = 1;
nodes = (
(2070,1035,l),
(1954,1035,o),
(1863,944,o),
(1863,828,c),
(2070,828,l)
);
},
{
closed = 1;
nodes = (
(2070,828,l),
(2186,828,o),
(2277,919,o),
(2277,1035,c),
(2070,1035,l)
);
},
{
closed = 1;
nodes = (
(2484,1035,l),
(2484,828,l),
(2691,828,l),
(2691,1035,l)
);
},
{
closed = 1;
nodes = (
(207,1242,l),
(207,1035,l),
(414,1035,l),
(414,1242,l)
);
},
{
closed = 1;
nodes = (
(828,1242,l),
(712,1242,o),
(621,1151,o),
(621,1035,c),
(828,1035,l)
);
},
{
closed = 1;
nodes = (
(828,1035,l),
(944,1035,o),
(1035,1126,o),
(1035,1242,c),
(828,1242,l)
);
},
{
closed = 1;
nodes = (
(2070,1242,l),
(1863,1242,l),
(1863,1126,o),
(1954,1035,o),
(2070,1035,c)
);
},
{
closed = 1;
nodes = (
(2070,1035,l),
(2277,1035,l),
(2277,1151,o),
(2186,1242,o),
(2070,1242,c)
);
},
{
closed = 1;
nodes = (
(2484,1242,l),
(2484,1035,l),
(2691,1035,l),
(2691,1242,l)
);
},
{
closed = 1;
nodes = (
(207,1449,l),
(207,1242,l),
(414,1242,l),
(414,1449,l)
);
},
{
closed = 1;
nodes = (
(828,1449,l),
(621,1449,l),
(621,1333,o),
(712,1242,o),
(828,1242,c)
);
},
{
closed = 1;
nodes = (
(828,1242,l),
(1035,1242,l),
(1035,1358,o),
(944,1449,o),
(828,1449,c)
);
},
{
closed = 1;
nodes = (
(1449,1449,l),
(1242,1449,l),
(1242,1333,o),
(1333,1242,o),
(1449,1242,c)
);
},
{
closed = 1;
nodes = (
(1449,1242,l),
(1565,1242,o),
(1656,1333,o),
(1656,1449,c),
(1449,1449,l)
);
},
{
closed = 1;
nodes = (
(2070,1449,l),
(1954,1449,o),
(1863,1358,o),
(1863,1242,c),
(2070,1242,l)
);
},
{
closed = 1;
nodes = (
(2070,1242,l),
(2186,1242,o),
(2277,1333,o),
(2277,1449,c),
(2070,1449,l)
);
},
{
closed = 1;
nodes = (
(2484,1449,l),
(2484,1242,l),
(2691,1242,l),
(2691,1449,l)
);
},
{
closed = 1;
nodes = (
(207,1656,l),
(207,1449,l),
(414,1449,l),
(414,1656,l)
);
},
{
closed = 1;
nodes = (
(828,1656,l),
(712,1656,o),
(621,1565,o),
(621,1449,c),
(828,1449,l)
);
},
{
closed = 1;
nodes = (
(828,1449,l),
(944,1449,o),
(1035,1540,o),
(1035,1656,c),
(828,1656,l)
);
},
{
closed = 1;
nodes = (
(1449,1656,l),
(1333,1656,o),
(1242,1565,o),
(1242,1449,c),
(1449,1449,l)
);
},
{
closed = 1;
nodes = (
(1449,1449,l),
(1656,1449,l),
(1656,1565,o),
(1565,1656,o),
(1449,1656,c)
);
},
{
closed = 1;
nodes = (
(2070,1656,l),
(1863,1656,l),
(1863,1540,o),
(1954,1449,o),
(2070,1449,c)
);
},
{
closed = 1;
nodes = (
(2070,1449,l),
(2277,1449,l),
(2277,1565,o),
(2186,1656,o),
(2070,1656,c)
);
},
{
closed = 1;
nodes = (
(2484,1656,l),
(2484,1449,l),
(2691,1449,l),
(2691,1656,l)
);
},
{
closed = 1;
nodes = (
(207,1863,l),
(207,1656,l),
(414,1656,l),
(414,1863,l)
);
},
{
closed = 1;
nodes = (
(828,1863,l),
(621,1863,l),
(621,1747,o),
(712,1656,o),
(828,1656,c)
);
},
{
closed = 1;
nodes = (
(828,1656,l),
(1035,1656,l),
(1035,1772,o),
(944,1863,o),
(828,1863,c)
);
},
{
closed = 1;
nodes = (
(2070,1863,l),
(1954,1863,o),
(1863,1772,o),
(1863,1656,c),
(2070,1656,l)
);
},
{
closed = 1;
nodes = (
(2070,1656,l),
(2186,1656,o),
(2277,1747,o),
(2277,1863,c),
(2070,1863,l)
);
},
{
closed = 1;
nodes = (
(2484,1863,l),
(2484,1656,l),
(2691,1656,l),
(2691,1863,l)
);
},
{
closed = 1;
nodes = (
(207,2070,l),
(207,1863,l),
(414,1863,l),
(414,2070,l)
);
},
{
closed = 1;
nodes = (
(828,2070,l),
(712,2070,o),
(621,1979,o),
(621,1863,c),
(828,1863,l)
);
},
{
closed = 1;
nodes = (
(828,1863,l),
(944,1863,o),
(1035,1954,o),
(1035,2070,c),
(828,2070,l)
);
},
{
closed = 1;
nodes = (
(1242,2070,l),
(1035,2070,l),
(1035,1954,o),
(1126,1863,o),
(1242,1863,c)
);
},
{
closed = 1;
nodes = (
(1242,1863,l),
(1449,1863,l),
(1449,1979,o),
(1358,2070,o),
(1242,2070,c)
);
},
{
closed = 1;
nodes = (
(1656,2070,l),
(1540,2070,o),
(1449,1979,o),
(1449,1863,c),
(1656,1863,l)
);
},
{
closed = 1;
nodes = (
(1656,1863,l),
(1772,1863,o),
(1863,1954,o),
(1863,2070,c),
(1656,2070,l)
);
},
{
closed = 1;
nodes = (
(2070,2070,l),
(1863,2070,l),
(1863,1954,o),
(1954,1863,o),
(2070,1863,c)
);
},
{
closed = 1;
nodes = (
(2070,1863,l),
(2277,1863,l),
(2277,1979,o),
(2186,2070,o),
(2070,2070,c)
);
},
{
closed = 1;
nodes = (
(2484,2070,l),
(2484,1863,l),
(2691,1863,l),
(2691,2070,l)
);
},
{
closed = 1;
nodes = (
(207,2277,l),
(0,2277,l),
(0,2161,o),
(91,2070,o),
(207,2070,c)
);
},
{
closed = 1;
nodes = (
(207,2277,l),
(207,2070,l),
(414,2070,l),
(414,2277,l)
);
},
{
closed = 1;
nodes = (
(1035,2277,l),
(919,2277,o),
(828,2186,o),
(828,2070,c),
(1035,2070,l)
);
},
{
closed = 1;
nodes = (
(1035,2070,l),
(1242,2070,l),
(1242,2186,o),
(1151,2277,o),
(1035,2277,c)
);
},
{
closed = 1;
nodes = (
(1863,2277,l),
(1747,2277,o),
(1656,2186,o),
(1656,2070,c),
(1863,2070,l)
);
},
{
closed = 1;
nodes = (
(1863,2070,l),
(2070,2070,l),
(2070,2186,o),
(1979,2277,o),
(1863,2277,c)
);
},
{
closed = 1;
nodes = (
(2484,2277,l),
(2484,2070,l),
(2691,2070,l),
(2691,2277,l)
);
},
{
closed = 1;
nodes = (
(2691,2070,l),
(2807,2070,o),
(2898,2161,o),
(2898,2277,c),
(2691,2277,l)
);
},
{
closed = 1;
nodes = (
(0,2484,l),
(0,2277,l),
(207,2277,l),
(207,2484,l)
);
},
{
closed = 1;
nodes = (
(207,2277,l),
(414,2277,l),
(414,2393,o),
(323,2484,o),
(207,2484,c)
);
},
{
closed = 1;
nodes = (
(2691,2484,l),
(2575,2484,o),
(2484,2393,o),
(2484,2277,c),
(2691,2277,l)
);
},
{
closed = 1;
nodes = (
(2691,2484,l),
(2691,2277,l),
(2898,2277,l),
(2898,2484,l)
);
},
{
closed = 1;
nodes = (
(0,2691,l),
(0,2484,l),
(207,2484,l),
(207,2691,l)
);
},
{
closed = 1;
nodes = (
(207,2484,l),
(323,2484,o),
(414,2575,o),
(414,2691,c),
(207,2691,l)
);
},
{
closed = 1;
nodes = (
(621,2691,l),
(414,2691,l),
(414,2575,o),
(505,2484,o),
(621,2484,c)
);
},
{
closed = 1;
nodes = (
(621,2691,l),
(621,2484,l),
(828,2484,l),
(828,2691,l)
);
},
{
closed = 1;
nodes = (
(828,2691,l),
(828,2484,l),
(1035,2484,l),
(1035,2691,l)
);
},
{
closed = 1;
nodes = (
(1035,2691,l),
(1035,2484,l),
(1242,2484,l),
(1242,2691,l)
);
},
{
closed = 1;
nodes = (
(1242,2691,l),
(1242,2484,l),
(1449,2484,l),
(1449,2691,l)
);
},
{
closed = 1;
nodes = (
(1449,2691,l),
(1449,2484,l),
(1656,2484,l),
(1656,2691,l)
);
},
{
closed = 1;
nodes = (
(1656,2691,l),
(1656,2484,l),
(1863,2484,l),
(1863,2691,l)
);
},
{
closed = 1;
nodes = (
(1863,2691,l),
(1863,2484,l),
(2070,2484,l),
(2070,2691,l)
);
},
{
closed = 1;
nodes = (
(2070,2691,l),
(2070,2484,l),
(2277,2484,l),
(2277,2691,l)
);
},
{
closed = 1;
nodes = (
(2277,2484,l),
(2393,2484,o),
(2484,2575,o),
(2484,2691,c),
(2277,2691,l)
);
},
{
closed = 1;
nodes = (
(2691,2691,l),
(2484,2691,l),
(2484,2575,o),
(2575,2484,o),
(2691,2484,c)
);
},
{
closed = 1;
nodes = (
(2691,2691,l),
(2691,2484,l),
(2898,2484,l),
(2898,2691,l)
);
},
{
closed = 1;
nodes = (
(207,2898,l),
(91,2898,o),
(0,2807,o),
(0,2691,c),
(207,2691,l)
);
},
{
closed = 1;
nodes = (
(207,2691,l),
(414,2691,l),
(414,2807,o),
(323,2898,o),
(207,2898,c)
);
},
{
closed = 1;
nodes = (
(621,2898,l),
(505,2898,o),
(414,2807,o),
(414,2691,c),
(621,2691,l)
);
},
{
closed = 1;
nodes = (
(621,2691,l),
(828,2691,l),
(828,2807,o),
(737,2898,o),
(621,2898,c)
);
},
{
closed = 1;
nodes = (
(2277,2898,l),
(2161,2898,o),
(2070,2807,o),
(2070,2691,c),
(2277,2691,l)
);
},
{
closed = 1;
nodes = (
(2277,2691,l),
(2484,2691,l),
(2484,2807,o),
(2393,2898,o),
(2277,2898,c)
);
},
{
closed = 1;
nodes = (
(2691,2898,l),
(2575,2898,o),
(2484,2807,o),
(2484,2691,c),
(2691,2691,l)
);
},
{
closed = 1;
nodes = (
(2691,2691,l),
(2898,2691,l),
(2898,2807,o),
(2807,2898,o),
(2691,2898,c)
);
}
);
width = 2898;
}
);
note = "0.spazio-artistico";
unicode = 88;
}
{
glyphname = Z;
layers = (
{
layerId = m01;
shapes = (
{
closed = 1;
nodes = (
(621,207,l),
(737,207,o),
(828,116,o),
(828,0,c),
(828,207,l)
);
},
{
closed = 1;
nodes = (
(828,0,l),
(944,0,o),
(1035,91,o),
(1035,207,c),
(828,207,l)
);
},
{
closed = 1;
nodes = (
(1449,207,l),
(1242,207,l),
(1242,91,o),
(1333,0,o),
(1449,0,c)
);
},
{
closed = 1;
nodes = (
(1449,207,l),
(1449,0,l),
(1656,0,l),
(1656,207,l)
);
},
{
closed = 1;
nodes = (
(1656,207,l),
(1656,0,l),
(1656,116,o),
(1747,207,o),
(1863,207,c)
);
},
{
closed = 1;
nodes = (
(207,414,l),
(0,414,l),
(0,298,o),
(91,207,o),
(207,207,c)
);
},
{
closed = 1;
nodes = (
(414,207,l),
(298,207,o),
(207,298,o),
(207,414,c),
(207,207,l)
);
},
{
closed = 1;
nodes = (
(414,414,l),
(530,414,o),
(621,323,o),
(621,207,c),
(621,414,l)
);
},
{
closed = 1;
nodes = (
(621,414,l),
(621,207,l),
(828,207,l),
(828,414,l)
);
},
{
closed = 1;
nodes = (
(828,414,l),
(828,207,l),
(1035,207,l),
(1035,414,l)
);
},
{
closed = 1;
nodes = (
(1035,414,l),
(1151,414,o),
(1242,323,o),
(1242,207,c),
(1242,414,l)
);
},
{
closed = 1;
nodes = (
(1449,207,l),
(1333,207,o),
(1242,298,o),
(1242,414,c),
(1242,207,l)
);
},
{
closed = 1;
nodes = (
(1449,414,l),
(1449,207,l),
(1656,207,l),
(1656,414,l)
);
},
{
closed = 1;
nodes = (
(1656,414,l),
(1656,207,l),
(1863,207,l),
(1863,414,l)
);
},
{
closed = 1;
nodes = (
(1863,414,l),
(1863,207,l),
(1863,323,o),
(1954,414,o),
(2070,414,c)
);
},
{
closed = 1;
nodes = (
(2277,207,l),
(2277,414,l),
(2277,298,o),
(2186,207,o),
(2070,207,c)
);
},
{
closed = 1;
nodes = (
(2277,207,l),
(2393,207,o),
(2484,298,o),
(2484,414,c),
(2277,414,l)
);
},
{
closed = 1;
nodes = (
(0,621,l),
(0,414,l),
(207,414,l),
(207,621,l)
);
},
{
closed = 1;
nodes = (
(414,621,l),
(207,621,l),
(207,505,o),
(298,414,o),
(414,414,c)
);
},
{
closed = 1;
nodes = (
(414,621,l),
(414,414,l),
(621,414,l),
(621,621,l)
);
},
{
closed = 1;
nodes = (
(621,621,l),
(621,414,l),
(828,414,l),
(828,621,l)
);
},
{
closed = 1;
nodes = (
(828,621,l),
(828,414,l),
(1035,414,l),
(1035,621,l)
);
},
{
closed = 1;
nodes = (
(1035,621,l),
(1035,414,l),
(1242,414,l),
(1242,621,l)
);
},
{
closed = 1;
nodes = (
(1242,621,l),
(1358,621,o),
(1449,530,o),
(1449,414,c),
(1449,621,l)
);
},
{
closed = 1;
nodes = (
(1449,621,l),
(1449,414,l),
(1656,414,l),
(1656,621,l)
);
},
{
closed = 1;
nodes = (
(1863,414,l),
(1863,621,l),
(1863,505,o),
(1772,414,o),
(1656,414,c)
);
},
{
closed = 1;
nodes = (
(1863,621,l),
(1863,414,l),
(2070,414,l),
(2070,621,l)
);
},
{
closed = 1;
nodes = (
(2070,414,l),
(2186,414,o),
(2277,505,o),
(2277,621,c),
(2070,621,l)
);
},
{
closed = 1;
nodes = (
(2277,621,l),
(2277,414,l),
(2484,414,l),
(2484,621,l)
);
},
{
closed = 1;
nodes = (
(0,828,l),
(0,621,l),
(207,621,l),
(207,828,l)
);
},
{
closed = 1;
nodes = (
(207,828,l),
(207,621,l),
(414,621,l),
(414,828,l)
);
},
{
closed = 1;
nodes = (
(621,621,l),
(505,621,o),
(414,712,o),
(414,828,c),
(414,621,l)
);
},
{
closed = 1;
nodes = (
(621,828,l),
(621,621,l),
(828,621,l),
(828,828,l)
);
},
{
closed = 1;
nodes = (
(828,828,l),
(828,621,l),
(1035,621,l),
(1035,828,l)
);
},
{
closed = 1;
nodes = (
(1035,828,l),
(1035,621,l),
(1242,621,l),
(1242,828,l)
);
},
{
closed = 1;
nodes = (
(1242,828,l),
(1242,621,l),
(1449,621,l),
(1449,828,l)
);
},
{
closed = 1;
nodes = (
(1449,828,l),
(1449,621,l),
(1656,621,l),
(1656,828,l)
);
},
{
closed = 1;
nodes = (
(1656,828,l),
(1656,621,l),
(1656,737,o),
(1747,828,o),
(1863,828,c)
);
},
{
closed = 1;
nodes = (
(1863,828,l),
(1863,621,l),
(2070,621,l),
(2070,828,l)
);
},
{
closed = 1;
nodes = (
(2070,828,l),
(2070,621,l),
(2277,621,l),
(2277,828,l)
);
},
{
closed = 1;
nodes = (
(2277,828,l),
(2277,621,l),
(2484,621,l),
(2484,828,l)
);
},
{
closed = 1;
nodes = (
(0,1035,l),
(0,828,l),
(207,828,l),
(207,1035,l)
);
},
{
closed = 1;
nodes = (
(207,1035,l),
(207,828,l),
(414,828,l),
(414,1035,l)
);
},
{
closed = 1;
nodes = (
(414,1035,l),
(530,1035,o),
(621,944,o),
(621,828,c),
(621,1035,l)
);
},
{
closed = 1;
nodes = (
(621,1035,l),
(621,828,l),
(828,828,l),
(828,1035,l)
);
},
{
closed = 1;
nodes = (
(828,1035,l),
(828,828,l),
(1035,828,l),
(1035,1035,l)
);
},
{
closed = 1;
nodes = (
(1242,828,l),
(1242,1035,l),
(1242,919,o),
(1151,828,o),
(1035,828,c)
);
},
{
closed = 1;
nodes = (
(1242,1035,l),
(1242,828,l),
(1449,828,l),
(1449,1035,l)
);
},
{
closed = 1;
nodes = (
(1449,1035,l),
(1449,828,l),
(1656,828,l),
(1656,1035,l)
);
},
{
closed = 1;
nodes = (
(1656,1035,l),
(1656,828,l),
(1863,828,l),
(1863,1035,l)
);
},
{
closed = 1;
nodes = (
(1863,1035,l),
(1863,828,l),
(2070,828,l),
(2070,1035,l)
);
},
{
closed = 1;
nodes = (
(2070,1035,l),
(2070,828,l),
(2277,828,l),
(2277,1035,l)
);
},
{
closed = 1;
nodes = (
(2277,828,l),
(2484,828,l),
(2484,944,o),
(2393,1035,o),
(2277,1035,c)
);
},
{
closed = 1;
nodes = (
(207,1242,l),
(91,1242,o),
(0,1151,o),
(0,1035,c),
(207,1035,l)
);
},
{
closed = 1;
nodes = (
(207,1242,l),
(207,1035,l),
(414,1035,l),
(414,1242,l)
);
},
{
closed = 1;
nodes = (
(414,1242,l),
(414,1035,l),
(621,1035,l),
(621,1242,l)
);
},
{
closed = 1;
nodes = (
(621,1242,l),
(621,1035,l),
(828,1035,l),
(828,1242,l)
);
},
{
closed = 1;
nodes = (
(828,1242,l),
(828,1035,l),
(1035,1035,l),
(1035,1242,l)
);
},
{
closed = 1;
nodes = (
(1035,1242,l),
(1035,1035,l),
(1035,1151,o),
(1126,1242,o),
(1242,1242,c)
);
},
{
closed = 1;
nodes = (
(1242,1242,l),
(1242,1035,l),
(1449,1035,l),
(1449,1242,l)
);
},
{
closed = 1;
nodes = (
(1449,1242,l),
(1449,1035,l),
(1656,1035,l),
(1656,1242,l)
);
},
{
closed = 1;
nodes = (
(1656,1242,l),
(1656,1035,l),
(1863,1035,l),
(1863,1242,l)
);
},
{
closed = 1;
nodes = (
(2070,1035,l),
(2070,1242,l),
(2070,1126,o),
(1979,1035,o),
(1863,1035,c)
);
},
{
closed = 1;
nodes = (
(2070,1242,l),
(2070,1035,l),
(2277,1035,l),
(2277,1242,l)
);
},
{
closed = 1;
nodes = (
(207,1449,l),
(207,1242,l),
(414,1242,l),
(414,1449,l)
);
},
{
closed = 1;
nodes = (
(414,1449,l),
(414,1242,l),
(621,1242,l),
(621,1449,l)
);
},
{
closed = 1;
nodes = (
(621,1449,l),
(621,1242,l),
(828,1242,l),
(828,1449,l)
);
},
{
closed = 1;
nodes = (
(828,1449,l),
(828,1242,l),
(1035,1242,l),
(1035,1449,l)
);
},
{
closed = 1;
nodes = (
(1035,1449,l),
(1035,1242,l),
(1242,1242,l),
(1242,1449,l)
);
},
{
closed = 1;
nodes = (
(1242,1449,l),
(1242,1242,l),
(1449,1242,l),
(1449,1449,l)
);
},
{
closed = 1;
nodes = (
(1656,1242,l),
(1540,1242,o),
(1449,1333,o),
(1449,1449,c),
(1449,1242,l)
);
},
{
closed = 1;
nodes = (
(1656,1449,l),
(1656,1242,l),
(1863,1242,l),
(1863,1449,l)
);
},
{
closed = 1;
nodes = (
(1863,1449,l),
(1863,1242,l),
(1863,1358,o),
(1954,1449,o),
(2070,1449,c)
);
},
{
closed = 1;
nodes = (
(2070,1449,l),
(2070,1242,l),
(2277,1242,l),
(2277,1449,l)
);
},
{
closed = 1;
nodes = (
(207,1656,l),
(207,1449,l),
(414,1449,l),
(414,1656,l)
);
},
{
closed = 1;
nodes = (
(621,1449,l),
(505,1449,o),
(414,1540,o),
(414,1656,c),
(414,1449,l)
);
},
{
closed = 1;
nodes = (
(621,1656,l),
(621,1449,l),
(828,1449,l),
(828,1656,l)
);
},
{
closed = 1;
nodes = (
(1035,1449,l),
(919,1449,o),
(828,1540,o),
(828,1656,c),
(828,1449,l)
);
},
{
closed = 1;
nodes = (
(1035,1656,l),
(1035,1449,l),
(1242,1449,l),
(1242,1656,l)
);
},
{
closed = 1;
nodes = (
(1242,1656,l),
(1242,1449,l),
(1449,1449,l),
(1449,1656,l)
);
},
{
closed = 1;
nodes = (
(1449,1656,l),
(1565,1656,o),
(1656,1565,o),
(1656,1449,c),
(1656,1656,l)
);
},
{
closed = 1;
nodes = (
(1656,1656,l),
(1656,1449,l),
(1863,1449,l),
(1863,1656,l)
);
},
{
closed = 1;
nodes = (
(1863,1656,l),
(1863,1449,l),
(2070,1449,l),
(2070,1656,l)
);
},
{
closed = 1;
nodes = (
(2070,1656,l),
(2070,1449,l),
(2277,1449,l),
(2277,1656,l)
);
},
{
closed = 1;
nodes = (
(414,1863,l),
(298,1863,o),
(207,1772,o),
(207,1656,c),
(414,1656,l)
);
},
{
closed = 1;
nodes = (
(621,1863,l),
(621,1656,l),
(828,1656,l),
(828,1863,l)
);
},
{
closed = 1;
nodes = (
(828,1863,l),
(944,1863,o),
(1035,1772,o),
(1035,1656,c),
(1035,1863,l)
);
},
{
closed = 1;
nodes = (
(1035,1863,l),
(1035,1656,l),
(1242,1656,l),
(1242,1863,l)
);
},
{
closed = 1;
nodes = (
(1242,1863,l),
(1242,1656,l),
(1449,1656,l),
(1449,1863,l)
);
},
{
closed = 1;
nodes = (
(1449,1863,l),
(1449,1656,l),
(1656,1656,l),
(1656,1863,l)
);
},
{
closed = 1;
nodes = (
(1656,1863,l),
(1656,1656,l),
(1863,1656,l),
(1863,1863,l)
);
},
{
closed = 1;
nodes = (
(2070,1656,l),
(1954,1656,o),
(1863,1747,o),
(1863,1863,c),
(1863,1656,l)
);
},
{
closed = 1;
nodes = (
(2277,1863,l),
(2161,1863,o),
(2070,1772,o),
(2070,1656,c),
(2277,1656,l)
);
},
{
closed = 1;
nodes = (
(414,1863,l),
(530,1863,o),
(621,1954,o),
(621,2070,c),
(414,2070,l)
);
},
{
closed = 1;
nodes = (
(828,2070,l),
(712,2070,o),
(621,1979,o),
(621,1863,c),
(828,1863,l)
);
},
{
closed = 1;
nodes = (
(828,2070,l),
(828,1863,l),
(1035,1863,l),
(1035,2070,l)
);
},
{
closed = 1;
nodes = (
(1035,2070,l),
(1035,1863,l),
(1242,1863,l),
(1242,2070,l)
);
},
{
closed = 1;
nodes = (
(1242,2070,l),
(1242,1863,l),
(1449,1863,l),
(1449,2070,l)
);
},
{
closed = 1;
nodes = (
(1656,2070,l),
(1540,2070,o),
(1449,1979,o),
(1449,1863,c),
(1656,1863,l)
);
},
{
closed = 1;
nodes = (
(1656,2070,l),
(1656,1863,l),
(1863,1863,l),
(1863,2070,l)
);
},
{
closed = 1;
nodes = (
(2277,1863,l),
(2393,1863,o),
(2484,1954,o),
(2484,2070,c),
(2277,2070,l)
);
},
{
closed = 1;
nodes = (
(621,2277,l),
(505,2277,o),
(414,2186,o),
(414,2070,c),
(621,2070,l)
);
},
{
closed = 1;
nodes = (
(828,2277,l),
(828,2070,l),
(1035,2070,l),
(1035,2277,l)
);
},
{
closed = 1;
nodes = (
(1242,2070,l),
(1242,2277,l),
(1242,2161,o),
(1151,2070,o),
(1035,2070,c)
);
},
{
closed = 1;
nodes = (
(1242,2277,l),
(1242,2070,l),
(1449,2070,l),
(1449,2277,l)
);
},
{
closed = 1;
nodes = (
(1863,2277,l),
(1747,2277,o),
(1656,2186,o),
(1656,2070,c),
(1863,2070,l)
);
},
{
closed = 1;
nodes = (
(2484,2277,l),
(2368,2277,o),
(2277,2186,o),
(2277,2070,c),
(2484,2070,l)
);
},
{
closed = 1;
nodes = (
(414,2484,l),
(207,2484,l),
(207,2368,o),
(298,2277,o),
(414,2277,c)
);
},
{
closed = 1;
nodes = (
(828,2277,l),
(1035,2277,l),
(1035,2393,o),
(944,2484,o),
(828,2484,c)
);
},
{
closed = 1;
nodes = (
(1242,2277,l),
(1449,2277,l),
(1449,2393,o),
(1358,2484,o),
(1242,2484,c)
);
},
{
closed = 1;
nodes = (
(1656,2277,l),
(1772,2277,o),
(1863,2368,o),
(1863,2484,c),
(1656,2484,l)
);
},
{
closed = 1;
nodes = (
(207,2484,l),
(414,2484,l),
(414,2600,o),
(323,2691,o),
(207,2691,c)
);
},
{
closed = 1;
nodes = (
(828,2691,l),
(621,2691,l),
(621,2575,o),
(712,2484,o),
(828,2484,c)
);
},
{
closed = 1;
nodes = (
(1863,2691,l),
(1747,2691,o),
(1656,2600,o),
(1656,2484,c),
(1863,2484,l)
);
},
{
closed = 1;
nodes = (
(2277,2691,l),
(2070,2691,l),
(2070,2575,o),
(2161,2484,o),
(2277,2484,c)
);
},
{
closed = 1;
nodes = (
(828,2898,l),
(712,2898,o),
(621,2807,o),
(621,2691,c),
(828,2691,l)
);
},
{
closed = 1;
nodes = (
(2070,2691,l),
(2277,2691,l),
(2277,2807,o),
(2186,2898,o),
(2070,2898,c)
);
}
);
width = 2484;
}
);
note = 0.fiamma;
unicode = 90;
}
{
glyphname = asciicircum;
layers = (
{
layerId = m01;
shapes = (
{
closed = 1;
nodes = (
(621,207,l),
(414,207,l),
(414,91,o),
(505,0,o),
(621,0,c)
);
},
{
closed = 1;
nodes = (
(621,207,l),
(621,0,l),
(828,0,l),
(828,207,l)
);
},
{
closed = 1;
nodes = (
(828,207,l),
(828,0,l),
(1035,0,l),
(1035,207,l)
);
},
{
closed = 1;
nodes = (
(1035,207,l),
(1035,0,l),
(1242,0,l),
(1242,207,l)
);
},
{
closed = 1;
nodes = (
(1242,207,l),
(1242,0,l),
(1449,0,l),
(1449,207,l)
);
},
{
closed = 1;
nodes = (
(1449,0,l),
(1565,0,o),
(1656,91,o),
(1656,207,c),
(1449,207,l)
);
},
{
closed = 1;
nodes = (
(414,414,l),
(207,414,l),
(207,298,o),
(298,207,o),
(414,207,c)
);
},
{
closed = 1;
nodes = (
(414,207,l),
(621,207,l),
(621,323,o),
(530,414,o),
(414,414,c)
);
},
{
closed = 1;
nodes = (
(621,207,l),
(737,207,o),
(828,298,o),
(828,414,c),
(621,414,l)
);
},
{
closed = 1;
nodes = (
(1035,414,l),
(919,414,o),
(828,323,o),
(828,207,c),
(1035,207,l)
);
},
{
closed = 1;
nodes = (
(1035,207,l),
(1151,207,o),
(1242,298,o),
(1242,414,c),
(1035,414,l)
);
},
{
closed = 1;
nodes = (
(1449,414,l),
(1333,414,o),
(1242,323,o),
(1242,207,c),
(1449,207,l)
);
},
{
closed = 1;
nodes = (
(1449,414,l),
(1449,207,l),
(1656,207,l),
(1656,414,l)
);
},
{
closed = 1;
nodes = (
(1656,207,l),
(1772,207,o),
(1863,298,o),
(1863,414,c),
(1656,414,l)
);
},
{
closed = 1;
nodes = (
(207,621,l),
(0,621,l),
(0,505,o),
(91,414,o),
(207,414,c)
);
},
{
closed = 1;
nodes = (
(207,414,l),
(414,414,l),
(414,530,o),
(323,621,o),
(207,621,c)
);
},
{
closed = 1;
nodes = (
(414,414,l),
(530,414,o),
(621,505,o),
(621,621,c),
(414,621,l)
);
},
{
closed = 1;
nodes = (
(828,621,l),
(712,621,o),
(621,530,o),
(621,414,c),
(828,414,l)
);
},
{
closed = 1;
nodes = (
(828,414,l),
(944,414,o),
(1035,505,o),
(1035,621,c),
(828,621,l)
);
},
{
closed = 1;
nodes = (
(1242,621,l),
(1126,621,o),
(1035,530,o),
(1035,414,c),
(1242,414,l)
);
},
{
closed = 1;
nodes = (
(1242,414,l),
(1358,414,o),
(1449,505,o),
(1449,621,c),
(1242,621,l)
);
},
{
closed = 1;
nodes = (
(1656,621,l),
(1540,621,o),
(1449,530,o),
(1449,414,c),
(1656,414,l)
);
},
{
closed = 1;
nodes = (
(1656,621,l),
(1656,414,l),
(1863,414,l),
(1863,621,l)
);
},
{
closed = 1;
nodes = (
(1863,414,l),
(1979,414,o),
(2070,505,o),
(2070,621,c),
(1863,621,l)
);
},
{
closed = 1;
nodes = (
(0,828,l),
(0,621,l),
(207,621,l),
(207,828,l)
);
},
{
closed = 1;
nodes = (
(207,621,l),
(323,621,o),
(414,712,o),
(414,828,c),
(207,828,l)
);
},
{
closed = 1;
nodes = (
(621,828,l),
(505,828,o),
(414,737,o),
(414,621,c),
(621,621,l)
);
},
{
closed = 1;
nodes = (
(621,621,l),
(737,621,o),
(828,712,o),
(828,828,c),
(621,828,l)
);
},
{
closed = 1;
nodes = (
(1035,828,l),
(919,828,o),
(828,737,o),
(828,621,c),
(1035,621,l)
);
},
{
closed = 1;
nodes = (
(1035,621,l),
(1151,621,o),
(1242,712,o),
(1242,828,c),
(1035,828,l)
);
},
{
closed = 1;
nodes = (
(1449,828,l),
(1333,828,o),
(1242,737,o),
(1242,621,c),
(1449,621,l)
);
},
{
closed = 1;
nodes = (
(1449,621,l),
(1565,621,o),
(1656,712,o),
(1656,828,c),
(1449,828,l)
);
},
{
closed = 1;
nodes = (
(1863,828,l),
(1747,828,o),
(1656,737,o),
(1656,621,c),
(1863,621,l)
);
},
{
closed = 1;
nodes = (
(1863,828,l),
(1863,621,l),
(2070,621,l),
(2070,828,l)
);
},
{
closed = 1;
nodes = (
(0,1035,l),
(0,828,l),
(207,828,l),
(207,1035,l)
);
},
{
closed = 1;
nodes = (
(1863,1035,l),
(1863,828,l),
(2070,828,l),
(2070,1035,l)
);
},
{
closed = 1;
nodes = (
(0,1242,l),
(0,1035,l),
(207,1035,l),
(207,1242,l)
);
},
{
closed = 1;
nodes = (
(1863,1242,l),
(1863,1035,l),
(2070,1035,l),
(2070,1242,l)
);
},
{
closed = 1;
nodes = (
(207,1449,l),
(91,1449,o),
(0,1358,o),
(0,1242,c),
(207,1242,l)
);
},
{
closed = 1;
nodes = (
(207,1242,l),
(323,1242,o),
(414,1333,o),
(414,1449,c),
(207,1449,l)
);
},
{
closed = 1;
nodes = (
(1863,1449,l),
(1656,1449,l),
(1656,1333,o),
(1747,1242,o),
(1863,1242,c)
);
},
{
closed = 1;
nodes = (
(1863,1242,l),
(2070,1242,l),
(2070,1358,o),
(1979,1449,o),
(1863,1449,c)
);
},
{
closed = 1;
nodes = (
(414,1656,l),
(298,1656,o),
(207,1565,o),
(207,1449,c),
(414,1449,l)
);
},
{
closed = 1;
nodes = (
(414,1449,l),
(530,1449,o),
(621,1540,o),
(621,1656,c),
(414,1656,l)
);
},
{
closed = 1;
nodes = (
(1656,1656,l),
(1449,1656,l),
(1449,1540,o),
(1540,1449,o),
(1656,1449,c)
);
},
{
closed = 1;
nodes = (
(1656,1449,l),
(1863,1449,l),
(1863,1565,o),
(1772,1656,o),
(1656,1656,c)
);
},
{
closed = 1;
nodes = (
(621,1863,l),
(505,1863,o),
(414,1772,o),
(414,1656,c),
(621,1656,l)
);
},
{
closed = 1;
nodes = (
(621,1656,l),
(737,1656,o),
(828,1747,o),
(828,1863,c),
(621,1863,l)
);
},
{
closed = 1;
nodes = (
(1449,1863,l),
(1242,1863,l),
(1242,1747,o),
(1333,1656,o),
(1449,1656,c)
);
},
{
closed = 1;
nodes = (
(1449,1656,l),
(1656,1656,l),
(1656,1772,o),
(1565,1863,o),
(1449,1863,c)
);
},
{
closed = 1;
nodes = (
(621,2070,l),
(621,1863,l),
(828,1863,l),
(828,2070,l)
);
},
{
closed = 1;
nodes = (
(1242,2070,l),
(1242,1863,l),
(1449,1863,l),
(1449,2070,l)
);
},
{
closed = 1;
nodes = (
(621,2277,l),
(621,2070,l),
(828,2070,l),
(828,2277,l)
);
},
{
closed = 1;
nodes = (
(1242,2277,l),
(1242,2070,l),
(1449,2070,l),
(1449,2277,l)
);
},
{
closed = 1;
nodes = (
(621,2484,l),
(621,2277,l),
(828,2277,l),
(828,2484,l)
);
},
{
closed = 1;
nodes = (
(828,2484,l),
(828,2277,l),
(1035,2277,l),
(1035,2484,l)
);
},
{
closed = 1;
nodes = (
(1035,2484,l),
(1035,2277,l),
(1242,2277,l),
(1242,2484,l)
);
},
{
closed = 1;
nodes = (
(1242,2484,l),
(1242,2277,l),
(1449,2277,l),
(1449,2484,l)
);
},
{
closed = 1;
nodes = (
(621,2691,l),
(621,2484,l),
(828,2484,l),
(828,2691,l)
);
},
{
closed = 1;
nodes = (
(1242,2691,l),
(1242,2484,l),
(1449,2484,l),
(1449,2691,l)
);
},
{
closed = 1;
nodes = (
(828,2898,l),
(712,2898,o),
(621,2807,o),
(621,2691,c),
(828,2691,l)
);
},
{
closed = 1;
nodes = (
(828,2898,l),
(828,2691,l),
(1035,2691,l),
(1035,2898,l)
);
},
{
closed = 1;
nodes = (
(1035,2898,l),
(1035,2691,l),
(1242,2691,l),
(1242,2898,l)
);
},
{
closed = 1;
nodes = (
(1242,2691,l),
(1449,2691,l),
(1449,2807,o),
(1358,2898,o),
(1242,2898,c)
);
}
);
width = 2070;
}
);
note = 0.fiaschetto;
unicode = 94;
}
{
glyphname = b;
layers = (
{
layerId = m01;
shapes = (
{
closed = 1;
nodes = (
(0,0,l),
(207,0,l),
(207,116,o),
(116,207,o),
(0,207,c)
);
},
{
closed = 1;
nodes = (
(414,207,l),
(298,207,o),
(207,116,o),
(207,0,c),
(414,0,l)
);
},
{
closed = 1;
nodes = (
(0,207,l),
(116,207,o),
(207,298,o),
(207,414,c),
(0,414,l)
);
},
{
closed = 1;
nodes = (
(414,414,l),
(207,414,l),
(207,298,o),
(298,207,o),
(414,207,c)
);
},
{
closed = 1;
nodes = (
(414,207,l),
(530,207,o),
(621,298,o),
(621,414,c),
(414,414,l)
);
},
{
closed = 1;
nodes = (
(414,621,l),
(298,621,o),
(207,530,o),
(207,414,c),
(414,414,l)
);
},
{
closed = 1;
nodes = (
(414,621,l),
(414,414,l),
(621,414,l),
(621,621,l)
);
},
{
closed = 1;
nodes = (
(621,621,l),
(621,414,l),
(621,530,o),
(712,621,o),
(828,621,c)
);
},
{
closed = 1;
nodes = (
(621,621,l),
(621,828,l),
(621,712,o),
(530,621,o),
(414,621,c)
);
},
{
closed = 1;
nodes = (
(621,828,l),
(621,621,l),
(828,621,l),
(828,828,l)
);
},
{
closed = 1;
nodes = (
(828,621,l),
(944,621,o),
(1035,712,o),
(1035,828,c),
(828,828,l)
);
},
{
closed = 1;
nodes = (
(828,1035,l),
(712,1035,o),
(621,944,o),
(621,828,c),
(828,828,l)
);
},
{
closed = 1;
nodes = (
(828,1035,l),
(828,828,l),
(1035,828,l),
(1035,1035,l)
);
},
{
closed = 1;
nodes = (
(1035,1035,l),
(1035,828,l),
(1035,944,o),
(1126,1035,o),
(1242,1035,c)
);
},
{
closed = 1;
nodes = (
(1035,1035,l),
(1035,1242,l),
(1035,1126,o),
(944,1035,o),
(828,1035,c)
);
},
{
closed = 1;
nodes = (
(1035,1242,l),
(1035,1035,l),
(1242,1035,l),
(1242,1242,l)
);
},
{
closed = 1;
nodes = (
(1242,1035,l),
(1358,1035,o),
(1449,1126,o),
(1449,1242,c),
(1242,1242,l)
);
},
{
closed = 1;
nodes = (
(1242,1449,l),
(1126,1449,o),
(1035,1358,o),
(1035,1242,c),
(1242,1242,l)
);
},
{
closed = 1;
nodes = (
(1242,1449,l),
(1242,1242,l),
(1449,1242,l),
(1449,1449,l)
);
},
{
closed = 1;
nodes = (
(1449,1449,l),
(1449,1242,l),
(1449,1358,o),
(1540,1449,o),
(1656,1449,c)
);
},
{
closed = 1;
nodes = (
(1449,1449,l),
(1449,1656,l),
(1449,1540,o),
(1358,1449,o),
(1242,1449,c)
);
},
{
closed = 1;
nodes = (
(1449,1656,l),
(1449,1449,l),
(1656,1449,l),
(1656,1656,l)
);
},
{
closed = 1;
nodes = (
(1656,1656,l),
(1656,1449,l),
(1863,1449,l),
(1863,1656,l)
);
},
{
closed = 1;
nodes = (
(1863,1449,l),
(1979,1449,o),
(2070,1540,o),
(2070,1656,c),
(1863,1656,l)
);
},
{
closed = 1;
nodes = (
(1449,1863,l),
(1449,1656,l),
(1656,1656,l),
(1656,1863,l)
);
},
{
closed = 1;
nodes = (
(2070,1863,l),
(1954,1863,o),
(1863,1772,o),
(1863,1656,c),
(2070,1656,l)
);
},
{
closed = 1;
nodes = (
(2070,1656,l),
(2186,1656,o),
(2277,1747,o),
(2277,1863,c),
(2070,1863,l)
);
},
{
closed = 1;
nodes = (
(1656,2070,l),
(1540,2070,o),
(1449,1979,o),
(1449,1863,c),
(1656,1863,l)
);
},
{
closed = 1;
nodes = (
(1656,1863,l),
(1772,1863,o),
(1863,1954,o),
(1863,2070,c),
(1656,2070,l)
);
},
{
closed = 1;
nodes = (
(2277,2070,l),
(2161,2070,o),
(2070,1979,o),
(2070,1863,c),
(2277,1863,l)
);
},
{
closed = 1;
nodes = (
(2277,1863,l),
(2393,1863,o),
(2484,1954,o),
(2484,2070,c),
(2277,2070,l)
);
},
{
closed = 1;
nodes = (
(1863,2277,l),
(1747,2277,o),
(1656,2186,o),
(1656,2070,c),
(1863,2070,l)
);
},
{
closed = 1;
nodes = (
(1863,2070,l),
(1979,2070,o),
(2070,2161,o),
(2070,2277,c),
(1863,2277,l)
);
},
{
closed = 1;
nodes = (
(2484,2277,l),
(2368,2277,o),
(2277,2186,o),
(2277,2070,c),
(2484,2070,l)
);
},
{
closed = 1;
nodes = (
(2484,2070,l),
(2600,2070,o),
(2691,2161,o),
(2691,2277,c),
(2484,2277,l)
);
},
{
closed = 1;
nodes = (
(2070,2484,l),
(1954,2484,o),
(1863,2393,o),
(1863,2277,c),
(2070,2277,l)
);
},
{
closed = 1;
nodes = (
(2070,2277,l),
(2186,2277,o),
(2277,2368,o),
(2277,2484,c),
(2070,2484,l)
);
},
{
closed = 1;
nodes = (
(2691,2484,l),
(2575,2484,o),
(2484,2393,o),
(2484,2277,c),
(2691,2277,l)
);
},
{
closed = 1;
nodes = (
(2691,2277,l),
(2807,2277,o),
(2898,2368,o),
(2898,2484,c),
(2691,2484,l)
);
},
{
closed = 1;
nodes = (
(2277,2691,l),
(2161,2691,o),
(2070,2600,o),
(2070,2484,c),
(2277,2484,l)
);
},
{
closed = 1;
nodes = (
(2277,2484,l),
(2393,2484,o),
(2484,2575,o),
(2484,2691,c),
(2277,2691,l)
);
},
{
closed = 1;
nodes = (
(2691,2691,l),
(2691,2484,l),
(2898,2484,l),
(2898,2691,l)
);
},
{
closed = 1;
nodes = (
(2484,2898,l),
(2368,2898,o),
(2277,2807,o),
(2277,2691,c),
(2484,2691,l)
);
},
{
closed = 1;
nodes = (
(2484,2898,l),
(2484,2691,l),
(2691,2691,l),
(2691,2898,l)
);
},
{
closed = 1;
nodes = (
(2691,2691,l),
(2898,2691,l),
(2898,2807,o),
(2807,2898,o),
(2691,2898,c)
);
}
);
width = 2898;
}
);
note = 0.cacciavite;
unicode = 98;
}
{
glyphname = c;
layers = (
{
layerId = m01;
shapes = (
{
closed = 1;
nodes = (
(1035,207,l),
(828,207,l),
(828,91,o),
(919,0,o),
(1035,0,c)
);
},
{
closed = 1;
nodes = (
(1035,207,l),
(1035,0,l),
(1242,0,l),
(1242,207,l)
);
},
{
closed = 1;
nodes = (
(1242,207,l),
(1242,0,l),
(1449,0,l),
(1449,207,l)
);
},
{
closed = 1;
nodes = (
(1449,0,l),
(1565,0,o),
(1656,91,o),
(1656,207,c),
(1449,207,l)
);
},
{
closed = 1;
nodes = (
(828,414,l),
(828,207,l),
(1035,207,l),
(1035,414,l)
);
},
{
closed = 1;
nodes = (
(1449,414,l),
(1449,207,l),
(1656,207,l),
(1656,414,l)
);
},
{
closed = 1;
nodes = (
(828,621,l),
(828,414,l),
(1035,414,l),
(1035,621,l)
);
},
{
closed = 1;
nodes = (
(1449,621,l),
(1449,414,l),
(1656,414,l),
(1656,621,l)
);
},
{
closed = 1;
nodes = (
(828,828,l),
(828,621,l),
(1035,621,l),
(1035,828,l)
);
},
{
closed = 1;
nodes = (
(1449,828,l),
(1449,621,l),
(1656,621,l),
(1656,828,l)
);
},
{
closed = 1;
nodes = (
(828,1035,l),
(828,828,l),
(1035,828,l),
(1035,1035,l)
);
},
{
closed = 1;
nodes = (
(1449,1035,l),
(1449,828,l),
(1656,828,l),
(1656,1035,l)
);
},
{
closed = 1;
nodes = (
(828,1242,l),
(828,1035,l),
(1035,1035,l),
(1035,1242,l)
);
},
{
closed = 1;
nodes = (
(1449,1242,l),
(1449,1035,l),
(1656,1035,l),
(1656,1242,l)
);
},
{
closed = 1;
nodes = (
(828,1449,l),
(828,1242,l),
(1035,1242,l),
(1035,1449,l)
);
},
{
closed = 1;
nodes = (
(1449,1449,l),
(1449,1242,l),
(1656,1242,l),
(1656,1449,l)
);
},
{
closed = 1;
nodes = (
(207,1656,l),
(0,1656,l),
(0,1540,o),
(91,1449,o),
(207,1449,c)
);
},
{
closed = 1;
nodes = (
(207,1656,l),
(207,1449,l),
(414,1449,l),
(414,1656,l)
);
},
{
closed = 1;
nodes = (
(414,1656,l),
(414,1449,l),
(621,1449,l),
(621,1656,l)
);
},
{
closed = 1;
nodes = (
(621,1656,l),
(621,1449,l),
(828,1449,l),
(828,1656,l)
);
},
{
closed = 1;
nodes = (
(828,1656,l),
(828,1449,l),
(1035,1449,l),
(1035,1656,l)
);
},
{
closed = 1;
nodes = (
(1449,1656,l),
(1449,1449,l),
(1656,1449,l),
(1656,1656,l)
);
},
{
closed = 1;
nodes = (
(1656,1656,l),
(1656,1449,l),
(1863,1449,l),
(1863,1656,l)
);
},
{
closed = 1;
nodes = (
(1863,1656,l),
(1863,1449,l),
(2070,1449,l),
(2070,1656,l)
);
},
{
closed = 1;
nodes = (
(2070,1656,l),
(2070,1449,l),
(2277,1449,l),
(2277,1656,l)
);
},
{
closed = 1;
nodes = (
(2277,1449,l),
(2393,1449,o),
(2484,1540,o),
(2484,1656,c),
(2277,1656,l)
);
},
{
closed = 1;
nodes = (
(0,1863,l),
(0,1656,l),
(207,1656,l),
(207,1863,l)
);
},
{
closed = 1;
nodes = (
(2277,1863,l),
(2277,1656,l),
(2484,1656,l),
(2484,1863,l)
);
},
{
closed = 1;
nodes = (
(0,2070,l),
(0,1863,l),
(207,1863,l),
(207,2070,l)
);
},
{
closed = 1;
nodes = (
(2277,2070,l),
(2277,1863,l),
(2484,1863,l),
(2484,2070,l)
);
},
{
closed = 1;
nodes = (
(207,2277,l),
(91,2277,o),
(0,2186,o),
(0,2070,c),
(207,2070,l)
);
},
{
closed = 1;
nodes = (
(207,2277,l),
(207,2070,l),
(414,2070,l),
(414,2277,l)
);
},
{
closed = 1;
nodes = (
(414,2277,l),
(414,2070,l),
(621,2070,l),
(621,2277,l)
);
},
{
closed = 1;
nodes = (
(621,2277,l),
(621,2070,l),
(828,2070,l),
(828,2277,l)
);
},
{
closed = 1;
nodes = (
(828,2277,l),
(828,2070,l),
(1035,2070,l),
(1035,2277,l)
);
},
{
closed = 1;
nodes = (
(1449,2277,l),
(1449,2070,l),
(1656,2070,l),
(1656,2277,l)
);
},
{
closed = 1;
nodes = (
(1656,2277,l),
(1656,2070,l),
(1863,2070,l),
(1863,2277,l)
);
},
{
closed = 1;
nodes = (
(1863,2277,l),
(1863,2070,l),
(2070,2070,l),
(2070,2277,l)
);
},
{
closed = 1;
nodes = (
(2070,2277,l),
(2070,2070,l),
(2277,2070,l),
(2277,2277,l)
);
},
{
closed = 1;
nodes = (
(2277,2070,l),
(2484,2070,l),
(2484,2186,o),
(2393,2277,o),
(2277,2277,c)
);
},
{
closed = 1;
nodes = (
(828,2484,l),
(828,2277,l),
(1035,2277,l),
(1035,2484,l)
);
},
{
closed = 1;
nodes = (
(1449,2484,l),
(1449,2277,l),
(1656,2277,l),
(1656,2484,l)
);
},
{
closed = 1;
nodes = (
(828,2691,l),
(828,2484,l),
(1035,2484,l),
(1035,2691,l)
);
},
{
closed = 1;
nodes = (
(1449,2691,l),
(1449,2484,l),
(1656,2484,l),
(1656,2691,l)
);
},
{
closed = 1;
nodes = (
(1035,2898,l),
(919,2898,o),
(828,2807,o),
(828,2691,c),
(1035,2691,l)
);
},
{
closed = 1;
nodes = (
(1035,2898,l),
(1035,2691,l),
(1242,2691,l),
(1242,2898,l)
);
},
{
closed = 1;
nodes = (
(1242,2898,l),
(1242,2691,l),
(1449,2691,l),
(1449,2898,l)
);
},
{
closed = 1;
nodes = (
(1449,2691,l),
(1656,2691,l),
(1656,2807,o),
(1565,2898,o),
(1449,2898,c)
);
}
);
width = 2484;
}
);
note = croce;
unicode = 99;
}
{
glyphname = e;
layers = (
{
layerId = m01;
shapes = (
{
closed = 1;
nodes = (
(621,207,l),
(414,207,l),
(414,91,o),
(505,0,o),
(621,0,c)
);
},
{
closed = 1;
nodes = (
(621,0,l),
(737,0,o),
(828,91,o),
(828,207,c),
(621,207,l)
);
},
{
closed = 1;
nodes = (
(414,414,l),
(414,207,l),
(621,207,l),
(621,414,l)
);
},
{
closed = 1;
nodes = (
(621,414,l),
(621,207,l),
(828,207,l),
(828,414,l)
);
},
{
closed = 1;
nodes = (
(828,414,l),
(828,207,l),
(1035,207,l),
(1035,414,l)
);
},
{
closed = 1;
nodes = (
(1035,414,l),
(1035,207,l),
(1242,207,l),
(1242,414,l)
);
},
{
closed = 1;
nodes = (
(1242,207,l),
(1449,207,l),
(1449,323,o),
(1358,414,o),
(1242,414,c)
);
},
{
closed = 1;
nodes = (
(414,621,l),
(414,414,l),
(621,414,l),
(621,621,l)
);
},
{
closed = 1;
nodes = (
(621,621,l),
(621,414,l),
(828,414,l),
(828,621,l)
);
},
{
closed = 1;
nodes = (
(828,621,l),
(828,414,l),
(1035,414,l),
(1035,621,l)
);
},
{
closed = 1;
nodes = (
(1035,414,l),
(1151,414,o),
(1242,505,o),
(1242,621,c),
(1035,621,l)
);
},
{
closed = 1;
nodes = (
(414,828,l),
(414,621,l),
(621,621,l),
(621,828,l)
);
},
{
closed = 1;
nodes = (
(621,828,l),
(621,621,l),
(828,621,l),
(828,828,l)
);
},
{
closed = 1;
nodes = (
(828,828,l),
(828,621,l),
(1035,621,l),
(1035,828,l)
);
},
{
closed = 1;
nodes = (
(1035,828,l),
(1035,621,l),
(1242,621,l),
(1242,828,l)
);
},
{
closed = 1;
nodes = (
(1242,621,l),
(1449,621,l),
(1449,737,o),
(1358,828,o),
(1242,828,c)
);
},
{
closed = 1;
nodes = (
(414,1035,l),
(414,828,l),
(621,828,l),
(621,1035,l)
);
},
{
closed = 1;
nodes = (
(414,1242,l),
(414,1035,l),
(621,1035,l),
(621,1242,l)
);
},
{
closed = 1;
nodes = (
(414,1449,l),
(414,1242,l),
(621,1242,l),
(621,1449,l)
);
},
{
closed = 1;
nodes = (
(414,1656,l),
(414,1449,l),
(621,1449,l),
(621,1656,l)
);
},
{
closed = 1;
nodes = (
(414,1863,l),
(414,1656,l),
(621,1656,l),
(621,1863,l)
);
},
{
closed = 1;
nodes = (
(414,2070,l),
(414,1863,l),
(621,1863,l),
(621,2070,l)
);
},
{
closed = 1;
nodes = (
(621,1863,l),
(737,1863,o),
(828,1954,o),
(828,2070,c),
(621,2070,l)
);
},
{
closed = 1;
nodes = (
(621,2277,l),
(505,2277,o),
(414,2186,o),
(414,2070,c),
(621,2070,l)
);
},
{
closed = 1;
nodes = (
(621,2070,l),
(828,2070,l),
(828,2186,o),
(737,2277,o),
(621,2277,c)
);
},
{
closed = 1;
nodes = (
(207,2484,l),
(0,2484,l),
(0,2368,o),
(91,2277,o),
(207,2277,c)
);
},
{
closed = 1;
nodes = (
(207,2277,l),
(414,2277,l),
(414,2393,o),
(323,2484,o),
(207,2484,c)
);
},
{
closed = 1;
nodes = (
(1035,2484,l),
(919,2484,o),
(828,2393,o),
(828,2277,c),
(1035,2277,l)
);
},
{
closed = 1;
nodes = (
(1035,2277,l),
(1151,2277,o),
(1242,2368,o),
(1242,2484,c),
(1035,2484,l)
);
},
{
closed = 1;
nodes = (
(0,2691,l),
(0,2484,l),
(207,2484,l),
(207,2691,l)
);
},
{
closed = 1;
nodes = (
(1035,2691,l),
(1035,2484,l),
(1242,2484,l),
(1242,2691,l)
);
},
{
closed = 1;
nodes = (
(207,2898,l),
(91,2898,o),
(0,2807,o),
(0,2691,c),
(207,2691,l)
);
},
{
closed = 1;
nodes = (
(207,2898,l),
(207,2691,l),
(414,2691,l),
(414,2898,l)
);
},
{
closed = 1;
nodes = (
(414,2898,l),
(414,2691,l),
(621,2691,l),
(621,2898,l)
);
},
{
closed = 1;
nodes = (
(621,2898,l),
(621,2691,l),
(828,2691,l),
(828,2898,l)
);
},
{
closed = 1;
nodes = (
(828,2898,l),
(828,2691,l),
(1035,2691,l),
(1035,2898,l)
);
},
{
closed = 1;
nodes = (
(1035,2691,l),
(1242,2691,l),
(1242,2807,o),
(1151,2898,o),
(1035,2898,c)
);
}
);
width = 1449;
}
);
note = 0.Chiave2;
unicode = 101;
}
